<svg width="1440" height="228" fill="none" xmlns="http://www.w3.org/2000/svg"><mask id="a" style="mask-type:alpha" maskUnits="userSpaceOnUse" x="0" y="0" width="1440" height="228"><path fill="#C4C4C4" d="M0 0h1440v228H0z"/></mask><g mask="url(#a)"><path fill-rule="evenodd" clip-rule="evenodd" d="M1431.81 220.508c-66.02 8.992-133.42 5.249-198.4-8.72a618.471 618.471 0 01-92.68-27.567c2.98-.471 5.97-.925 8.96-1.357a711.194 711.194 0 0088.62 22.826 708.464 708.464 0 0096.82 11.628c32.51 1.66 65.1.778 97.48-2.636a625.107 625.107 0 01-97.44 2.294 708.589 708.589 0 01-96.67-11.898 713.538 713.538 0 01-87.38-22.42c.81-.114 1.61-.227 2.42-.338 2.21-.295 4.42-.581 6.63-.858a955.312 955.312 0 0082.34 17.462c63 10.321 127.17 14.475 190.89 9.944-63.73 4.343-127.85 0-190.79-10.474a954.88 954.88 0 01-80.72-17.146c2.81-.346 5.63-.677 8.45-.992 25 4.671 50.14 8.668 75.35 12.089 31.23 4.236 62.59 7.355 94.03 9.25 31.44 1.895 62.98 2.518 94.47 1.447-31.49.977-63.01.271-94.44-1.706-31.43-1.977-62.79-5.214-93.99-9.545-24.41-3.39-48.75-7.328-72.99-11.804 2.65-.287 5.29-.56 7.93-.82 22.33 2.405 44.67 4.719 67.02 6.882 62.22 6.037 124.68 10.71 187.26 11.18-62.57-.659-124.97-5.531-187.23-11.768-21.19-2.091-42.36-4.34-63.53-6.632 2.37-.222 4.74-.434 7.11-.634 19.09.427 38.16 1.148 57.23 2.053 32.36 1.594 64.73 3.674 97.12 5.754v.001c30.01 1.928 60.04 3.856 90.09 5.402-29.56-1.615-59.09-3.598-88.62-5.582h-.01c-32.89-2.209-65.78-4.417-98.7-6.116-16.97-.837-33.93-1.546-50.9-2.012a778.973 778.973 0 0150.22-2.212c31.51-.565 63.03.459 94.49 2.353 31.45 1.895 62.95 4.614 94.32 7.756-31.36-3.213-62.75-6.143-94.22-8.085-31.46-1.942-62.99-3.072-94.52-2.601-18.84.19-37.66 1.068-56.43 2.632-7.5-.179-15.01-.308-22.52-.377-2.93-.318-5.85-.637-8.78-.956l-5.66-.618c-3.32-.362-6.64-.718-9.96-1.072-8.29-1.669-16.58-3.391-24.85-5.189a817.495 817.495 0 01-29.29-9.555c-10.24-4.377-20.32-9.105-30.26-14.112a664.468 664.468 0 01-11.27-6.755 429.98 429.98 0 01-78.295-61.327l-17.872-17.37c-5.965-5.802-12.013-11.51-18.284-16.995-12.509-10.956-25.995-20.983-40.896-28.539a140.387 140.387 0 00-23.201-9.344 98.774 98.774 0 00-12.237-2.73 81.133 81.133 0 00-12.532-.812 67.561 67.561 0 00-12.472 1.553 58.88 58.88 0 00-11.789 4.296 57.184 57.184 0 00-10.469 6.967 77.648 77.648 0 00-8.877 8.838 161.675 161.675 0 00-14.501 20.36c-4.127 6.593-8.111 13.237-12.114 19.913l-.853 1.424c-.62 1.047-1.238 2.095-1.857 3.142-7.828 13.257-15.661 26.523-24.456 39.131-9.491 13.605-20.148 26.515-33.611 36.259l-5.046 3.625-1.261.895-1.32.812-2.641 1.624c-.623.371-1.244.756-1.864 1.141-1.151.715-2.3 1.429-3.465 2.048l-5.505 2.883c-.352.178-.699.363-1.045.547l-.001.001-.002.001h-.001l-.002.001c-.568.303-1.135.604-1.72.874l-2.841 1.248-5.682 2.518c-1.225.47-2.459.921-3.691 1.371h-.001l-.001.001c-.712.26-1.423.519-2.131.782-.313.116-.627.234-.942.353l-.01.004-.01.003c-1.618.609-3.25 1.222-4.932 1.664a179.7 179.7 0 01-13.111 3.567c-17.679-9.715-34.9-20.298-52.082-30.88-2.617-1.607-5.233-3.217-7.85-4.826-10.799-6.642-21.607-13.289-32.492-19.806-13.522-8.097-27.232-15.9-41.32-22.996-7.073-3.531-14.147-6.873-21.456-9.969a339.967 339.967 0 00-22.104-8.45 277.883 277.883 0 00-45.977-11.262 248.687 248.687 0 00-47.203-2.566 215.883 215.883 0 00-46.767 6.956 147.74 147.74 0 00-43.183 19.006c-3.301 2.165-6.484 4.531-9.561 6.979l-2.467 1.96a1179.532 1179.532 0 00-6.776 5.407c-6.118 4.955-12.178 9.992-18.214 15.052l-1.494 1.255a7314.564 7314.564 0 00-6.892 5.218l-4.296 3.255c-3.477 2.352-6.955 4.7-10.442 7.034a1259.525 1259.525 0 01-8.482 4.961l-1.131.653a729.983 729.983 0 01-11.792 5.762 511.258 511.258 0 01-11.88 4.637c-1.71.51-3.424 1.008-5.141 1.494a621.386 621.386 0 01-97.849 19.219 476.292 476.292 0 01-99.628.965 476.51 476.51 0 0099.652-.683 621.696 621.696 0 0095.337-18.217 312.01 312.01 0 01-2.392.833c-30.652 10.722-62.152 19.395-94.312 24.138-32.16 4.743-64.946 6.026-97.224 1.883 32.267 4.237 65.099 3.107 97.271-1.589 32.172-4.695 63.755-13.24 94.477-23.878a426.712 426.712 0 0010.55-3.774l.547-.164.374-.112c-5.156 2.325-10.353 4.561-15.562 6.757-14.701 6.214-29.638 11.851-44.798 16.664a385.63 385.63 0 01-46.414 11.522c-31.358 5.696-63.66 7.261-95.278 2.436 31.583 4.919 63.932 3.448 95.326-2.142a384.303 384.303 0 0046.495-11.404c15.244-4.707 30.216-10.368 44.94-16.476a625.396 625.396 0 0020.224-8.87c.781-.244 1.561-.491 2.341-.739a708.802 708.802 0 01-25.748 13.351 434.311 434.311 0 01-43.36 18.618c-7.416 2.636-14.89 5.131-22.399 7.25-7.51 2.118-15.22 4.06-22.918 5.696l-5.788 1.177c-1.299.262-2.608.481-3.92.701l-.936.158c-.32.054-.638.109-.957.165-2.74.508-5.503.887-8.265 1.265-1.136.156-2.272.312-3.405.476-7.817.918-15.668 1.695-23.578 1.907a224.232 224.232 0 01-47.05-3.095 224.276 224.276 0 0047.05 3.236c7.875-.177 15.726-.941 23.578-1.824 1.072-.152 2.145-.297 3.218-.442l.007-.001c2.83-.382 5.659-.764 8.47-1.275.603-.103 1.21-.203 1.817-.302l.003-.001c1.335-.219 2.675-.439 4.003-.698l5.788-1.177c7.71-1.612 15.326-3.436 22.953-5.625a390.603 390.603 0 0022.506-7.191 434.572 434.572 0 0043.477-18.5c9.73-4.743 19.34-9.73 28.828-14.959 1.006-.329 2.01-.661 3.014-.996-11.038 7.05-22.289 13.814-33.739 20.181-27.268 15.181-56.34 27.491-86.838 34.494a246.486 246.486 0 01-46.378 6.425 202.219 202.219 0 01-46.672-3.53 202.868 202.868 0 0046.672 3.636 247.298 247.298 0 0046.449-6.284c30.545-6.932 59.699-19.16 87.061-34.282 12.174-6.731 24.086-13.927 35.796-21.431 1.169-.397 2.338-.797 3.505-1.201l-1.117.813c-12.637 9.192-25.523 18.053-38.903 26.221a345.727 345.727 0 01-41.368 21.96 288.059 288.059 0 01-44.232 15.394 233.109 233.109 0 01-46.295 6.979 186.855 186.855 0 01-46.626-3.908 187 187 0 0046.638 4.061 233.601 233.601 0 0046.354-6.85 287.982 287.982 0 0044.338-15.299 345.18 345.18 0 0041.497-21.866c13.357-8.156 26.242-17.041 38.904-26.198.905-.654 1.808-1.31 2.711-1.968 1.339-.469 2.678-.942 4.015-1.42-14.523 11.895-29.334 23.429-44.957 33.906-26.219 17.582-54.595 31.858-84.975 40.261a215.936 215.936 0 01-46.543 7.591 173.743 173.743 0 01-46.92-4.308 173.268 173.268 0 0046.92 4.449 215.603 215.603 0 0046.614-7.45c30.451-8.32 59.121-22.455 85.234-40.013 16.079-10.812 31.384-22.767 46.409-35.075a891.078 891.078 0 0013.396-4.952c2.882-1.084 5.753-2.194 8.623-3.303 4.889-1.89 9.775-3.778 14.707-5.536 7.828-2.789 15.703-5.437 23.649-7.873 4.728-1.45 9.502-2.795 14.284-4.143h.002a969.868 969.868 0 009.764-2.789c8.028-2.354 15.985-4.613 24.026-6.72 8.04-2.106 16.056-3.99 24.308-5.425a163.161 163.161 0 0124.757-2.636c8.297-.239 16.595.4 24.757 1.906a111.893 111.893 0 0123.578 7.473c13.472 5.907 25.816 13.98 38.13 22.033l.012.008.001.001c1.593 1.042 3.186 2.083 4.781 3.12 6.979 4.543 14.005 9.003 21.314 13.016a320.403 320.403 0 0022.399 11.169 261.047 261.047 0 0047.156 16.382c4.055.965 8.146 1.8 12.249 2.542 1.384.238 2.774.455 4.166.672l1.269.199.41.064.332.053 6.213.73c2.144.24 4.291.444 6.44.612 2.605.586 5.243 1.013 7.878 1.439h.001c1.265.205 2.53.409 3.79.631 1.002.177 2.015.306 3.029.4l3.042.341c.747.074 1.494.159 2.241.244a309.115 309.115 0 001.711.189c2.777.633 5.567 1.214 8.367 1.745.937.148 1.874.303 2.811.457 3.01.497 6.022.995 9.061 1.273a150.268 150.268 0 011.548.166 218.578 218.578 0 0017.938 3.6l2.773.348c2.591.714 5.197 1.378 7.814 1.994 2.9.747 5.842 1.314 8.783 1.882.908.175 1.816.35 2.723.531 1.086.205 2.175.376 3.263.541a255.207 255.207 0 0021.211 5.505 325.121 325.121 0 0066.584 16.47 368.468 368.468 0 0047.156 3.401c15.78.157 31.558-.475 47.274-1.895 6.097-.511 12.165-1.241 18.232-1.972 1.759-.211 3.517-.423 5.275-.629l11.789-1.4c3.93-.495 7.84-.922 11.73-1.283 15.68-1.483 31.43-1.989 47.156-2.413 15.727-.423 31.512-1.118 47.241-2.354 15.72-1.235 31.42-3.001 46.98-5.507 13.52-2.13 26.98-4.628 40.42-7.124 12.87-2.388 25.72-4.774 38.62-6.836a618.704 618.704 0 0093.84 27.916c65.09 13.816 132.56 17.347 198.52 8.167zm-293.63-36.575c-12.51 2.008-24.96 4.303-37.41 6.597-13.47 2.481-26.93 4.962-40.45 7.078a581.893 581.893 0 01-46.88 5.449c-15.703 1.177-31.454 1.765-47.156 2.248l-3.109.095c-14.681.446-29.452.895-44.13 2.258-3.926.365-7.851.777-11.789 1.283l-11.789 1.377c-1.588.187-3.177.377-4.765.568-6.229.746-12.463 1.494-18.718 2.01-15.68 1.376-31.43 2.024-47.156 1.835a365.93 365.93 0 01-47.062-3.436 324.174 324.174 0 01-58.199-13.643 255.772 255.772 0 0062.997 3.356c31.299-2.519 61.833-10.286 91.859-18.83l11.306-3.119 5.647-1.553c1.898-.471 3.796-.906 5.706-1.295a161.544 161.544 0 0123.224-2.895c14.842-.885 29.726.108 44.582 1.099l.038.002 2.194.147c7.975.529 15.945 1.191 23.916 1.853 7.617.633 15.234 1.266 22.864 1.783l5.89.377 5.9.223 11.73.424 3.3.123c2.81.106 5.62.213 8.43.289 3.91.106 7.83.059 11.79 0 14.87-.073 29.74-.502 44.6-.931 6.2-.179 12.4-.357 18.59-.51.69.282 1.37.566 2.05.852l.46.194c3.68 1.548 7.37 3.101 11.08 4.514.15.059.3.119.46.178zm-434.723 9.193c-1.972-.488-3.938-1-5.899-1.536.199.021.398.042.597.061l2.226.253c1.023.413 2.049.82 3.076 1.222zm1.55-.732c2.47.96 4.952 1.889 7.445 2.787a254.365 254.365 0 0069.947 4.779c7.78-.529 15.526-1.553 23.236-2.765 7.71-1.212 15.396-2.683 23.035-4.319 7.639-1.636 15.232-3.484 22.788-5.461 4.582-1.199 9.146-2.467 13.713-3.735 2.967-.825 5.935-1.649 8.91-2.455l11.318-3.107 5.658-1.542c1.91-.471 3.82-.918 5.742-1.306a163.732 163.732 0 0123.33-2.895c7.826-.422 15.667-.45 23.496-.083 7.827.33 15.632.812 23.436 1.377 7.357.527 14.707 1.138 22.055 1.748 8.24.685 16.474 1.37 24.724 1.936l5.89.388 5.9.224 11.72.447c1.41.047 2.83.106 4.25.166 2.49.104 4.98.208 7.47.246 3.9.059 7.81.059 11.71.059 15.21-.063 30.39-.474 45.59-.884v-.001c5.42-.146 10.84-.293 16.26-.423l-.36-.149c-2.54-1.047-5.08-2.096-7.6-3.216l-6.06-2.797c-15.84-1.719-31.67-3.57-47.45-5.853a590.867 590.867 0 01-23.16-3.778c-2.75-.469-5.47-1.058-8.19-1.647h-.01v-.001c-1.1-.238-2.2-.476-3.3-.706l-11.47-2.471c-6.59-1.355-13.14-2.91-19.671-4.463l-3.211-.763c-7.604-1.8-15.219-3.577-22.859-5.19a358.33 358.33 0 00-46.271-7.12c-15.515-1.035-31.441-.117-46.107 5.179-10.368 3.744-20.33 8.57-30.277 13.39l-.005.002c-4.121 1.997-8.239 3.992-12.382 5.908a459.966 459.966 0 01-43.325 18.148 187.62 187.62 0 01-45.788 10.286 230.15 230.15 0 01-23.484 1c-.797-.019-1.591-.053-2.382-.087a80.953 80.953 0 00-3.512-.101l-2.936-.106-2.876-.271-4.937-.375zm-8.459-2.063c-1.196-.156-2.39-.34-3.58-.522l-.495-.076-.648-.099a162.2 162.2 0 01-.686-.103l-.016-.002-1.369-.207a290.18 290.18 0 01-6.992-2.311c1.082.05 2.165.083 3.242.115h.001c.665.02 1.328.04 1.987.064.475.025.949.045 1.423.059a327.547 327.547 0 007.133 3.082zm-3.94-3.049a319.74 319.74 0 008.515 3.575l2.95.335 5.835.447 2.912.224 3.018.059c.723.021 1.439.051 2.149.081l.001.001c1.259.053 2.502.106 3.745.106 7.8.079 15.599-.243 23.366-.965 7.758-.778 15.465-2 23.082-3.66a201.394 201.394 0 0022.399-6.52 458.655 458.655 0 0043.242-17.994c4.296-1.975 8.549-4.043 12.805-6.112l.001-.001c9.792-4.761 19.598-9.529 29.976-13.188 14.89-5.249 30.899-6.238 46.496-5.178a360.8 360.8 0 0146.402 7.179c7.651 1.624 15.255 3.401 22.87 5.225l1.427.342c7.141 1.71 14.261 3.417 21.431 4.907l11.46 2.471c1.21.25 2.42.511 3.63.771 2.61.562 5.22 1.125 7.85 1.583 7.69 1.447 15.4 2.624 23.13 3.801 15.03 2.187 30.11 4.003 45.23 5.682l-3.19-1.468c-1.05-.492-2.1-.974-3.16-1.455-2.6-1.186-5.2-2.372-7.72-3.704-10.73-2.579-21.43-5.335-32.05-8.341a572.934 572.934 0 01-22.6-6.885 581.199 581.199 0 01-11.2-3.813l-5.58-1.942c-1.5-.565-2.99-1.162-4.48-1.758v-.001c-.34-.136-.67-.271-1.01-.406l-21.965-8.709c-2.205-.892-4.408-1.792-6.61-2.692l-.003-.002c-5.087-2.078-10.175-4.157-15.291-6.144a308 308 0 00-44.964-14.123 160.878 160.878 0 00-23.247-3.66 100.737 100.737 0 00-23.437.859 82.15 82.15 0 00-11.4 2.754 71.803 71.803 0 00-10.798 4.543 175.394 175.394 0 00-20.042 12.369 1999.476 1999.476 0 00-11.896 8.438c-8.856 6.312-17.716 12.628-26.807 18.63-6.578 4.343-13.263 8.52-20.136 12.404a170.73 170.73 0 01-21.302 10.333 175.177 175.177 0 01-22.635 6.967c-1.045.231-2.097.437-3.151.643h-.001c-.883.173-1.767.346-2.648.534l-2.9.588-2.936.459-5.894.895-5.895.624c-.379.036-.757.077-1.134.118-.606.066-1.21.132-1.813.176l-2.959.176c-.69.038-1.384.081-2.081.125-1.268.079-2.543.159-3.814.205-1.292 0-2.591.023-3.894.047-1.09.019-2.184.039-3.279.045zm-5.92-1.267l-.844-.025c-1.223-.036-2.449-.071-3.675-.13l-3.424-.267a285.518 285.518 0 01-8.121-3.072c.802-.028 1.604-.07 2.404-.112.627-.032 1.254-.065 1.879-.091l.758-.031h.01c.969-.039 1.942-.077 2.911-.138a417.375 417.375 0 008.102 3.866zm-5.656-4.075a417.78 417.78 0 006.454 3.052c.843.385 1.687.767 2.532 1.145 1.972.047 3.941.01 5.909-.027 1.309-.025 2.617-.05 3.925-.05a138.01 138.01 0 003.782-.203h.001c.705-.044 1.408-.088 2.112-.126l2.947-.177c.608-.044 1.212-.11 1.816-.177h.002c.368-.041.736-.082 1.106-.117l5.894-.612 5.812-.883 2.912-.459 2.888-.576.695-.139c.202-.041.404-.08.607-.12l.439-.086.002-.001a132.68 132.68 0 004.022-.831 178.354 178.354 0 0022.482-6.897 169.212 169.212 0 0021.161-10.25c6.802-3.849 13.475-8.015 20.041-12.346 9.051-5.961 17.883-12.241 26.725-18.527 3.988-2.836 7.978-5.672 11.99-8.482a176.441 176.441 0 0120.136-12.416 72.084 72.084 0 0110.963-4.59 81.215 81.215 0 0111.542-2.777 101.595 101.595 0 0123.672-.848 161.579 161.579 0 0123.378 3.708 309.586 309.586 0 0145.092 14.122c5.793 2.256 11.542 4.614 17.287 6.97 1.539.632 3.078 1.263 4.617 1.892l21.925 8.732c.42.166.83.332 1.25.499 1.41.566 2.83 1.133 4.25 1.679l5.54 2c3.71 1.31 7.43 2.585 11.16 3.825a596.951 596.951 0 0022.58 6.897 845.294 845.294 0 0029.03 7.674l-8.8-4.484-5.13-2.628a638.155 638.155 0 01-17.71-6.882c-14.79-5.99-29.32-12.675-43.46-20.113-5.6-2.865-11.03-6.036-16.456-9.21l-.003-.001-.003-.002-.002-.001-.003-.002c-1.458-.853-2.917-1.705-4.38-2.553l-20.713-12.145c-13.746-8.073-27.786-15.7-42.57-21.654a193.941 193.941 0 00-22.611-7.603 118.696 118.696 0 00-23.46-4.072 79.213 79.213 0 00-23.578 1.895 68.179 68.179 0 00-11.2 3.895 72.464 72.464 0 00-10.256 5.955 149.663 149.663 0 00-18.273 15.3c-5.187 4.956-10.288 9.997-15.39 15.039l-.687.679-1.017 1.005c-11.341 11.204-22.788 22.372-35.178 32.482a141.781 141.781 0 01-41.262 24.255 161.014 161.014 0 01-23 6.873c-.849.166-1.698.338-2.549.511h-.004l-.004.001-.004.001h-.001c-3.055.619-6.123 1.24-9.227 1.617a140.216 140.216 0 00-1.402.206l-.428.066h-.001c-1.341.204-2.696.411-4.063.54l-5.853.552zm-4.354-.732l-1.029.043-.742.031-.547.024-1.153.052h-.016l-.009.001c-1.404.064-2.84.129-4.24.17h-.792a288.267 288.267 0 01-8.91-3.795 183.71 183.71 0 008.564-1.044 482.957 482.957 0 008.874 4.518zm-6.779-4.836a474.658 474.658 0 009.323 4.688 40.01 40.01 0 001.58-.154l5.894-.554c1.259-.121 2.519-.315 3.784-.51.701-.108 1.405-.217 2.111-.313 3.113-.375 6.149-.992 9.178-1.607.87-.176 1.74-.353 2.611-.523a160.568 160.568 0 0022.823-6.838c2.735-.993 5.37-2.185 8.005-3.377h.001c.988-.447 1.976-.894 2.97-1.331 1.075-.518 2.155-1.081 3.237-1.645.685-.357 1.37-.715 2.056-1.061l2.77-1.342a65.632 65.632 0 001.577-.943l.008-.005.113-.069.119-.072.159-.097.571-.344c.614-.375 1.232-.745 1.849-1.115l.007-.005c1.086-.65 2.171-1.301 3.236-1.975l4.881-3.413c2.744-1.919 5.386-4.026 8.026-6.131l.681-.542.403-.322.321-.255c12.355-10.015 23.779-21.183 35.131-32.375l.996-.982.011-.011.001-.001h.001l.001-.001c5.345-5.27 10.685-10.536 16.12-15.729A150.54 150.54 0 01838.88 82.06a73.714 73.714 0 0110.41-6.037 69.624 69.624 0 0111.388-3.943 80.298 80.298 0 0123.931-1.895 119.24 119.24 0 0123.578 4.131 190.154 190.154 0 0122.718 7.662c14.842 6.002 28.918 13.663 42.664 21.76l20.642 12.11c1.777 1.022 3.55 2.056 5.323 3.09l.003.002h.001c5.112 2.979 10.222 5.961 15.472 8.677 14.1 7.438 28.61 14.087 43.37 20.124 4.19 1.706 8.39 3.363 12.61 4.977l-1.12-.609c-3.78-2.083-7.52-4.21-11.24-6.381-1.55-.785-3.09-1.577-4.64-2.377a465.83 465.83 0 01-42.14-24.573c-6.79-4.472-13.477-9.12-19.984-14.005l-19.287-14.922c-1.637-1.263-3.271-2.53-4.905-3.797-4.79-3.714-9.577-7.425-14.429-11.032-6.507-4.837-13.168-9.485-20.041-13.793a176.042 176.042 0 00-44.032-20.242 96.14 96.14 0 00-23.849-4.06 74.06 74.06 0 00-12.084.612 62.571 62.571 0 00-11.718 2.848 58.839 58.839 0 00-10.858 5.249c-.86.517-1.674 1.094-2.499 1.694-.272.198-.544.39-.815.583h-.001c-.55.39-1.095.777-1.624 1.195a85.924 85.924 0 00-4.645 3.883 145.588 145.588 0 00-16.387 17.9c-5.383 6.716-10.601 13.568-15.821 20.424l-.003.003c-4.622 6.07-9.246 12.143-13.99 18.128-5.058 6.367-10.268 12.616-15.738 18.653-2.712 3.025-5.541 5.967-8.418 8.85-.937 1-1.961 1.919-2.983 2.837l-.001.001-.004.004-.002.001-.006.006c-.49.44-.98.88-1.46 1.329l-2.263 2.071-1.179 1.036-1.179.941-4.81 3.79-1.179.942-1.273.859-2.535 1.718-2.523 1.718-1.308.812-1.321.777-5.293 3.083-1.32.765-1.368.683-2.688 1.377-2.735 1.365a31.06 31.06 0 01-2.77 1.295c-.959.394-1.914.799-2.869 1.204-2.803 1.188-5.606 2.376-8.507 3.315-.688.234-1.371.477-2.053.72l-.001.001h-.002l-.001.001c-1.236.44-2.472.88-3.732 1.267l-5.894 1.683c-.367.101-.734.208-1.101.314-.612.177-1.223.355-1.835.509l-2.994.671-5.965 1.342c-1.885.358-3.774.687-5.669.986zm-3.763-.557c-2.957.412-5.925.75-8.899 1.017a289.197 289.197 0 01-8.965-4.267 182.151 182.151 0 008.617-1.733 566.856 566.856 0 009.247 4.983zm-7.442-5.401a559.403 559.403 0 009.545 5.096c2.379-.359 4.752-.765 7.116-1.219l5.895-1.341 2.971-.671c.642-.155 1.279-.34 1.918-.525.335-.097.669-.194 1.005-.287l5.895-1.683c1.224-.37 2.425-.801 3.623-1.231.705-.253 1.41-.506 2.118-.746 2.94-.949 5.77-2.156 8.601-3.362v-.001c.893-.38 1.785-.761 2.681-1.133.943-.377 1.851-.824 2.759-1.283l2.711-1.353 2.712-1.365 1.355-.671 1.321-.777 5.234-3.06 1.309-.765 1.261-.847 2.511-1.706 2.511-1.695 1.25-.859 1.179-.93 4.774-3.754 1.179-.942 1.12-1.012 2.24-2.048a94.66 94.66 0 011.557-1.423h.001l.002-.002c.978-.88 1.955-1.759 2.861-2.717 2.865-2.919 5.682-5.79 8.394-8.803 5.446-6.002 10.645-12.228 15.703-18.583 4.722-5.948 9.334-11.987 13.948-18.03h.002c5.244-6.868 10.493-13.74 15.911-20.489a145.538 145.538 0 0116.505-17.994 83.08 83.08 0 014.715-3.931c.802-.624 1.615-1.248 2.476-1.8.372-.24.734-.496 1.098-.753.478-.338.958-.677 1.46-.978a59.862 59.862 0 0111.058-5.343 64.095 64.095 0 0111.931-2.883 72.429 72.429 0 0112.248-.589 96.693 96.693 0 0124.097 4.12 177.205 177.205 0 0144.197 20.418c6.896 4.331 13.581 8.992 20.1 13.852 4.743 3.536 9.412 7.166 14.078 10.794a2344.78 2344.78 0 005.244 4.07l19.252 14.946c6.483 4.884 13.154 9.521 19.934 13.993a464.833 464.833 0 0036.3 21.576l-.25-.155a430.268 430.268 0 01-78.49-61.363l-17.872-17.382c-5.966-5.778-12.001-11.474-18.261-16.935-12.438-10.91-25.913-20.866-40.731-28.363a140.455 140.455 0 00-23.024-9.25 97.08 97.08 0 00-12.107-2.683 80.397 80.397 0 00-12.391-.765 64.94 64.94 0 00-12.248 1.541c-3.999.988-7.88 2.4-11.577 4.214a55.874 55.874 0 00-10.245 6.837 75.717 75.717 0 00-8.759 8.733 160.71 160.71 0 00-14.371 20.23c-4.409 7.038-8.653 14.17-12.873 21.325l-1.991 3.374-.031.053v.001l-.001.001c-7.762 13.166-15.538 26.356-24.302 38.938l-3.631 5.085-3.749 4.989c-.411.519-.817 1.04-1.224 1.56l-.005.008-.003.003-.002.003-.003.003c-.87 1.117-1.74 2.231-2.653 3.319l-4.127 4.708-2.074 2.353-2.24 2.178-4.398 4.401c-1.042.93-2.121 1.823-3.198 2.714l-.005.005c-.53.438-1.059.876-1.583 1.318a59.577 59.577 0 01-4.904 3.884l-5.093 3.648-1.273.906-1.332.824-2.676 1.636c-.743.427-1.46.874-2.174 1.318l-.001.001c-1.053.656-2.098 1.306-3.201 1.882l-5.541 2.907a62.04 62.04 0 00-.991.516c-.594.313-1.189.628-1.803.908l-2.865 1.259-5.717 2.518c-1.981.754-3.95 1.472-5.895 2.178-.426.154-.852.313-1.278.471l-.005.002c-1.517.563-3.039 1.129-4.611 1.551a181.665 181.665 0 01-12.087 3.312zm-3.235-.371a181.381 181.381 0 01-8.798 1.715l-.083-.042c-14.017-6.885-27.669-14.5-41.156-22.361-10.709-6.242-21.336-12.67-31.958-19.095l-.031-.019c-2.745-1.66-5.489-3.32-8.235-4.977-2.316-1.397-4.631-2.799-6.946-4.201l-.001-.001c-11.057-6.697-22.125-13.4-33.442-19.676a333.182 333.182 0 00-42.44-20.125 237.485 237.485 0 00-92.095-15.617 250.235 250.235 0 00-46.449 5.602 174.333 174.333 0 00-44.185 15.676 163.693 163.693 0 00-10.15 5.884c-2.841 1.783-5.585 3.765-8.316 5.739l-.003.002-1.325.956c-3.55 2.574-7.083 5.178-10.605 7.799 3.05-2.517 6.112-5.021 9.191-7.504a784.545 784.545 0 019.231-7.355c3.101-2.425 6.236-4.778 9.525-6.932a147.044 147.044 0 0142.983-18.83 214.804 214.804 0 0146.59-6.873c15.73-.64 31.486.227 47.05 2.59a276.85 276.85 0 0145.776 11.262c7.428 2.577 14.807 5.32 22.034 8.45a419.44 419.44 0 0121.385 9.968c14.041 7.061 27.728 14.911 41.262 23.008 12.13 7.257 24.128 14.666 36.137 22.081l4.169 2.574c16.784 10.357 33.61 20.732 50.885 30.302zm-395.743-54.817c.536-.405 1.073-.809 1.61-1.212 6.248-4.708 12.52-9.415 18.862-13.946l1.155-.834.038-.026c2.768-1.999 5.528-3.992 8.415-5.813a160.504 160.504 0 0110.115-5.885 173.496 173.496 0 0143.997-15.558 248.654 248.654 0 0146.448-5.555 236.531 236.531 0 0191.73 15.653 332.937 332.937 0 0142.264 20.112c12.561 6.985 24.842 14.467 37.129 21.953l3.201 1.95c13.357 8.132 26.737 16.205 40.212 24.149 13.056 7.697 26.267 15.096 39.943 21.843-2.974.471-5.96.868-8.955 1.19a350.702 350.702 0 01-25.871-12.183c-13.9-7.12-27.445-14.911-40.943-22.808-6.744-3.942-13.475-7.908-20.148-11.969l-20.041-12.192a430.224 430.224 0 00-41.262-22.443 230.645 230.645 0 00-21.809-8.732 199.048 199.048 0 00-22.659-6.202 215.424 215.424 0 00-46.696-4.625 271.518 271.518 0 00-46.649 4.436 222.626 222.626 0 00-45.14 12.77 161.08 161.08 0 00-21.019 10.462c-2.856 1.669-5.62 3.489-8.376 5.304l-1.527 1.004-9.761 6.508a3099.814 3099.814 0 00-5.65 3.81l1.387-1.161zm-6.359 5.328c3.683-2.488 7.367-4.974 11.058-7.447l9.761-6.485c.565-.369 1.129-.74 1.693-1.11l.015-.009.003-.003h.001c2.7-1.773 5.393-3.542 8.167-5.174a162.601 162.601 0 0120.867-10.368 223.091 223.091 0 0144.998-12.675 271.196 271.196 0 0146.567-4.449 215.053 215.053 0 0146.507 4.649 199.805 199.805 0 0122.553 6.202 228.872 228.872 0 0121.703 8.72 426.068 426.068 0 0141.096 22.443l20.042 12.204c6.672 4.084 13.416 8.05 20.147 12.005 13.487 7.92 27.044 15.734 40.967 22.878a350.557 350.557 0 0024.23 11.529c-2.861.273-5.729.477-8.603.612a215.869 215.869 0 01-5.949-2.221 384.232 384.232 0 01-42.805-19.748 713.276 713.276 0 01-20.678-11.356c-6.85-3.896-13.676-7.791-20.384-11.899-4.049-2.455-8.08-4.946-12.112-7.437l-.001-.001c-9.36-5.784-18.726-11.572-28.358-16.935-6.885-3.836-13.899-7.45-21.102-10.674a168.909 168.909 0 00-22.164-8.238 181.617 181.617 0 00-46.649-7.332 258.092 258.092 0 00-47.155 3.354c-7.793 1.236-15.527 2.766-23.201 4.531-7.675 1.765-15.326 3.743-22.835 6.167a195.42 195.42 0 00-42.924 19.548 3745.663 3745.663 0 00-14.201 8.482l-.003.002-.008.005-.093.056-3.301 1.978 2.151-1.804zm-5.47 4.583a6512.62 6512.62 0 007.697-4.597c4.539-2.713 9.075-5.425 13.617-8.117a194.423 194.423 0 0142.794-19.536c7.474-2.354 15.102-4.366 22.764-6.12 7.663-1.753 15.397-3.283 23.166-4.495a255.42 255.42 0 0146.991-3.296 180.804 180.804 0 0146.413 7.344 169.504 169.504 0 0122.045 8.238c7.168 3.225 14.147 6.838 21.02 10.663 9.472 5.292 18.698 11.004 27.928 16.719l.005.003.001.001c4.151 2.57 8.303 5.14 12.479 7.673 6.719 4.119 13.557 8.038 20.394 11.934 6.838 3.895 13.735 7.72 20.702 11.404a387.09 387.09 0 0042.9 19.854c1.198.468 2.401.926 3.607 1.374-.314.01-.629.019-.943.027-2.41.05-4.82.055-7.229.014l-4.041-1.168c-7.615-2.354-15.125-4.978-22.517-7.956a421.733 421.733 0 01-43.1-20.63c-7.014-3.802-13.982-7.674-20.808-11.769-5.946-3.568-11.839-7.261-17.733-10.955l-2.614-1.638c-13.499-8.473-27.197-16.817-41.839-23.278a150.902 150.902 0 00-22.612-8.015 153.073 153.073 0 00-23.578-4.177 201.592 201.592 0 00-47.993 1.306 407.76 407.76 0 00-46.896 9.72 254.117 254.117 0 00-45.105 16.042c-3.619 1.706-7.179 3.53-10.704 5.39l-10.61 5.566-.004.002a5992.121 5992.121 0 01-8.661 4.533l2.464-2.06zm-5.199 3.485l1.616-1.352c-.819.487-1.637.973-2.456 1.458l-1.421 1.069 2.261-1.175zm.118.758c3.871-2.009 7.743-4.031 11.614-6.054l.01-.005 10.61-5.555c3.537-1.859 7.073-3.683 10.681-5.366a253.479 253.479 0 0144.998-15.959 409.925 409.925 0 0146.826-9.65 201.21 201.21 0 0147.651-1.436 144.214 144.214 0 0145.977 12.17c14.571 6.448 28.211 14.781 41.709 23.266 1.222.766 2.443 1.533 3.664 2.301l.005.003.002.001.001.001.001.001c5.527 3.474 11.056 6.949 16.663 10.321 6.85 4.119 13.817 8.003 20.831 11.769a426.5 426.5 0 0043.113 20.783 233.666 233.666 0 0022.966 8.138 190.246 190.246 0 01-6.58-.369c-.224-.05-.448-.102-.671-.155a252.963 252.963 0 01-46.284-14.828 412.418 412.418 0 01-43.536-21.773c-7.261-4.22-14.344-8.747-21.434-13.278h-.001c-6.609-4.223-13.224-8.45-19.992-12.436a209.77 209.77 0 00-21.703-11.275 130.088 130.088 0 00-23.166-7.779c-15.927-3.636-32.455-4.001-48.641-2.26-16.186 1.742-32.149 5.285-47.899 9.298-7.875 2.036-15.738 4.107-23.578 6.332-7.839 2.224-15.561 4.778-23.2 7.59-10.314 3.707-20.28 8.261-30.241 12.812-4.577 2.091-9.153 4.182-13.761 6.19 1.123-.931 2.244-1.864 3.365-2.798zm-5.492 3.72c.931-.772 1.86-1.545 2.788-2.319-1.056.546-2.113 1.091-3.169 1.635-.901.673-1.801 1.345-2.703 2.016 1.028-.443 2.057-.887 3.084-1.332zm.301.591l1.312-.578c4.123-1.82 8.223-3.691 12.323-5.562 10.699-4.882 21.396-9.763 32.476-13.727a337.916 337.916 0 0123.165-7.544c7.816-2.213 15.679-4.272 23.578-6.308 15.738-3.99 31.642-7.544 47.792-9.227a147.135 147.135 0 0148.335 2.295 128.812 128.812 0 0122.989 7.756 206.943 206.943 0 0121.562 11.239c6.772 3.99 13.397 8.234 20.028 12.482l.002.001c7.06 4.522 14.126 9.049 21.384 13.279a415.654 415.654 0 0043.62 21.866 254.483 254.483 0 0039.666 13.353l-5.408-.618c-.667-.107-1.333-.212-1.999-.316-1.384-.218-2.767-.434-4.143-.673a212.53 212.53 0 01-12.19-2.518 259.283 259.283 0 01-46.991-16.265 332.926 332.926 0 01-22.293-11.121c-7.274-3.99-14.3-8.427-21.22-12.946-1.65-1.069-3.299-2.144-4.949-3.219-12.279-8.007-24.617-16.052-38.128-21.966a112.678 112.678 0 00-23.837-7.508 119.558 119.558 0 00-24.922-1.895 164.585 164.585 0 00-24.898 2.566c-8.253 1.447-16.316 3.377-24.356 5.507-7.715 2.044-15.398 4.262-23.068 6.476l-.97.28c-2.516.726-5.034 1.437-7.553 2.149-5.485 1.551-10.969 3.1-16.414 4.794-7.946 2.472-15.856 5.084-23.684 7.92-5.716 2.072-11.376 4.256-17.043 6.443-2.093.808-4.188 1.616-6.288 2.419a931.397 931.397 0 01-11.768 4.373c1.298-1.067 2.595-2.136 3.89-3.207zm-5.686 3.858c1.18-.97 2.358-1.942 3.535-2.916a903.562 903.562 0 01-3.631 1.577c-1.206.892-2.413 1.781-3.623 2.668 1.241-.44 2.48-.883 3.719-1.329zm15.632-13.01l.423-.355-1.085.732-.118.089.78-.466zm937.749 53.531c-1.44.132-2.89.268-4.33.408l-5.19-.564c3.17.043 6.35.096 9.52.156zm-7.8.752c-2.34.237-4.67.485-7.01.744-3.15-.586-6.3-1.182-9.44-1.786 2.44.011 4.88.028 7.32.05 3.04.332 6.08.663 9.13.992zm-9.41 1.014c-2.66.303-5.33.621-7.99.952a950.98 950.98 0 01-10.96-2.919l-.31-.087a899.692 899.692 0 018.52-.014c3.58.703 7.16 1.392 10.74 2.068zm-9.7 1.167c-1.63.206-3.26.418-4.88.635-1.29.177-2.57.357-3.86.542-1.82-.598-3.65-1.203-5.47-1.816l-7.05-2.444c3.1-.052 6.2-.093 9.3-.12a921.074 921.074 0 0011.96 3.203zm-10.16 1.384c-2.93.429-5.86.877-8.78 1.342-.52-.199-1.03-.398-1.54-.598-2.07-.814-4.13-1.668-6.19-2.52v-.001c-1.78-.739-3.56-1.477-5.34-2.187-.22-.088-.45-.178-.67-.267 3.17-.076 6.34-.144 9.51-.202l8.77 3.022c1.41.475 2.82.945 4.24 1.411zm-472.991 4.074c2.263.556 4.548 1.015 6.836 1.458a289.026 289.026 0 01-3.423-1.209l-2.458-.191a88.143 88.143 0 00-.532-.043l-.452-.034-.01-.001-.069-.005.108.025zm-1.91-1.295c.495.053.991.095 1.487.132a291.3 291.3 0 01-7.018-2.745h-6.957c2.109.654 4.228 1.275 6.356 1.861l3.173.387 2.959.365zm-10.362-3.637h2.343a287.19 287.19 0 01-8.257-3.595 182.725 182.725 0 01-6.457.44c-.454.025-.909.053-1.363.081h-.001l-.253.015c1.284.482 2.571.957 3.861 1.424 1.42.504 2.845.993 4.276 1.466l2.868.169h2.983zm-11.742-4.26c1.275-.072 2.548-.157 3.82-.256a288.655 288.655 0 01-8.572-4.143c-2.857.473-5.725.878-8.602 1.214a354.8 354.8 0 008.611 3.439c.912-.033 1.824-.088 2.734-.142h.001l.002-.001c.669-.04 1.339-.08 2.006-.111zM229.432 137.24c-1.047.774-2.096 1.546-3.146 2.316a584 584 0 01-3.061 1.065l.934-.604.821-.532.461-.299 1.102-.718c.964-.407 1.927-.816 2.889-1.228zm4.264-3.163l-1.86 1.383-2.016.863 1.103-.727.677-.447 1.61-.824.486-.248zm899.754 43.262c-3.09.059-6.17.126-9.26.198a326.083 326.083 0 01-9.28-3.951l-4.21-1.946c3.35.361 6.7.717 10.04 1.071l.26.097 5.71 2.166c1.17.451 2.36.857 3.55 1.262.74.251 1.47.501 2.2.762l.99.341zm-.78-.965l2.69.93c2.94-.052 5.88-.096 8.82-.13-3.74-1.039-7.48-2.098-11.21-3.177l-4.01-.422-.07-.007-5.55-.584 3.59 1.366c1.3.498 2.61.946 3.91 1.393h.01c.61.209 1.22.418 1.82.631zm4.09-1.979c3.25.934 6.52 1.851 9.78 2.755 2.5-.023 4.99-.038 7.48-.043l-1.54-.309c-2.56-.513-5.13-1.029-7.69-1.549-2.68-.287-5.36-.571-8.03-.854zm15.87 1.744c1.64.324 3.29.646 4.93.966 1.43.001 2.86.004 4.29.01-2.49-.273-4.98-.547-7.46-.822l-2.21-.244.45.09zm-493.114 7.106a218.545 218.545 0 01-5.269-1.018l2.606.158c.886.293 1.774.579 2.663.86zm-6.353-2.115l-2.046-.118a126.781 126.781 0 01-3.785-.391l-.002-.001-.486-.055a215.948 215.948 0 01-7.426-1.943h5.746c.399 0 .798-.007 1.197-.019 2.026.778 4.059 1.538 6.1 2.28l.334.118.368.129zm-9.504-3.579h-7.608l-.395-.021a218.611 218.611 0 01-7.936-2.549c2.68-.161 5.354-.381 8.022-.66a348.137 348.137 0 007.917 3.23zm-422.818-36.114l1.294-.835 1.247-.807-1.001.415-.978.405c-.943.532-1.886 1.061-2.831 1.588.757-.253 1.513-.509 2.269-.766zm5.773-3.752l.136-.09-.396.197.26-.107zm911.026 36.103l-2.8-.295-1.53-.161-.38-.041c-1.89-.547-3.77-1.1-5.65-1.658 3.45.728 6.9 1.445 10.36 2.155zm-8.44-.891c-2.82-.298-5.63-.597-8.45-.897l-10.84-4.136c3.1.692 6.2 1.373 9.3 2.044a901.12 901.12 0 009.99 2.989zm-11.06-1.177c-3.17-.34-6.33-.684-9.5-1.033l-5.05-2.338c-1.14-.537-2.28-1.062-3.42-1.586-1.61-.736-3.21-1.472-4.79-2.242 3.43.815 6.87 1.612 10.31 2.393 1.3.535 2.6 1.06 3.91 1.564l8.54 3.242zm-482.169 7.376c.993.164 1.987.328 2.982.484a219.592 219.592 0 01-3.368-.981l-2.646-.153-1.314-.071a31.87 31.87 0 001.808.306c.845.135 1.689.274 2.533.414h.002l.003.001zm-9.033-2.039l4.471.243a219.693 219.693 0 01-6.412-2.176c-1.148.051-2.297.092-3.447.122-1.155.02-2.311.029-3.466.029l3.631.947c.844.205 1.68.399 2.521.586.901.097 1.801.186 2.702.249zm-412.605-33.453l.821-.268 1.208-.667-.31.124c-.384.182-.768.364-1.152.544l-.567.267zm887.597 21.739a1123 1123 0 01-9.32-2.216l-.14-.076-.13-.068-11.1-5.673-.03-.016c3.02 1.095 6.06 2.169 9.1 3.223a482.12 482.12 0 008.01 3.324c1.21.494 2.41.997 3.61 1.502zm.6-.49v.001c1.12.471 2.25.943 3.37 1.407 1.92.44 3.83.874 5.75 1.304a813.252 813.252 0 01-11.55-3.732c.81.337 1.61.676 2.42 1.015v.002l.01.001v.002zm-485.592 11.165a30.91 30.91 0 01-2.084-.314 198.594 198.594 0 00-3.327-.543c.834.028 1.669.051 2.504.069a249.8 249.8 0 002.907.788zm464.152-19.538a609.77 609.77 0 01-5.17-1.904l-.22-.114-5.49-2.977a31.1 31.1 0 00-.59-.334c3.8 1.822 7.62 3.599 11.47 5.329z" fill="url(#paint0_linear_2_2796)"/></g><defs><linearGradient id="paint0_linear_2_2796" x1="719.664" y1="-6.828" x2="719.664" y2="225.601" gradientUnits="userSpaceOnUse"><stop stop-color="#28D6E2"/><stop offset="1" stop-color="#EA6BF7"/></linearGradient></defs></svg>