<svg width="320" height="189" fill="none" xmlns="http://www.w3.org/2000/svg"><g opacity=".5" stroke-miterlimit="10"><path d="M-209.366 93.325c-10.985 6.238-36.158 15.329-24.719 30.316 7.288 9.546 19.689 14.092 30.703 17.661 29.011 9.42 59.163 9.308 88.867 14.689 19.25 3.487 36.42 13.615 55.027 19.375 16.91 5.217 33.893 6.76 51.473 7.669 22.408 1.147 41.449 1.028 63.343-5.098 24.086-6.707 47.657-15.299 72.339-15.739 52.568-.939 98.235 34.757 153.366 23.661 33.021-6.647 64.774-17.505 98.473-21.023 17.021-1.773 40.495.448 56.018-8.197 12.17-6.759 18.705-12.08 33.721-14.666 31.881-5.485 65.118-6.632 96.32-15.545 6.603-1.886 15.843-3.324 10.336-9.688-6.826-7.877-35.524-6.647-45.361-7.84-14.86-1.803-36.128-1.118-49.855-7.892-8.511-4.203-7.453-6.162-.649-11.923 5.329-4.471 33.923-13.094 33.326-21.611-.745-10.821-41.359-11.88-48.267-12.11-23.847-.798-47.806 3.115-71.594 1.304-46.658-3.495-88.219-31.717-135.287-35.636-19.741-1.655-41.441 5.626-60.243-2.609C181.293 11.12 171.307.993 152.93 1c-26.694 0-48.946 19.547-78.353 16.991-22.55-1.953-42.477-4.471-65.192-1.222-20.322 2.966-40.368 7.683-60.623 10.947-15.903 2.556-31.977 3.77-47.888 6.193-13.6 2.064-26.455 6.87-39.877 9.785-14.405 3.13-29.026 5.216-43.491 8.04-11.074 2.154-35.189 3.831-42.179 14.16 11.469 7.84 31.769-3.339 44.87.395 8.07 2.302 6.707.64 2.981 7.511-4.375 7.99-25.04 15.24-32.544 19.525z" stroke="url(#paint0_linear_2_20277)"/><path d="M-178.305 85.68c-8.324 5.06-39.989 18.117-35.771 30.659 3.242 9.62 26.553 13.101 34.564 14.785 28.594 6.014 58.634 6.67 86.445 15.776 36.516 11.924 75.714 18.787 113.72 24.361 40.622 5.962 75.625-20.53 115.077-21.328 25.502-.521 50.34 11.178 74.522 19.45 22.573 7.684 42.634 10.515 66.213 6.849 25.606-4.017 50.384-9.792 73.419-21.529 32.29-16.477 69.909-17.64 105.18-20.129 18.251-1.296 36.561-2.608 54.699-5.075 8.667-1.177 27.104-.931 33.677-7.594 6.304-6.393-5.619-7.541-11.111-8.875-14.674-3.555-30.331-4.717-45.071-7.065-78.055-12.452 16.946-21.693 2.429-39.854-6.968-8.72-35.837-6.886-45.853-6.998-21.679-.253-45.019 3.8-66.429-.976-41.643-9.285-78.136-32.998-121.784-35.614-20.121-1.2-40.599 4.993-59.766-3.816-15.441-7.087-26.731-15.843-43.566-15.865-17.527 0-31.806 9.501-49.184 14.263-24.555 6.707-49.774-2.042-74.604-1.177-23.609.812-46.867 6.118-70.05 10.261-21.053 3.771-42.18 6.544-62.942 11.7-15.769 3.913-31.597 6.894-47.59 9.755-11.029 1.968-45.659 3.406-52.583 14.659-3.301 5.358.001 3.338 4.859 4.568 7.773 1.953 17.886-.745 25.837-.574 1.401 0 14.539-.745 15.709 2.758 1.871 5.536-17.296 14.949-20.046 16.625z" stroke="url(#paint1_linear_2_20277)"/><path d="M-145.91 77.041c-7.639 6.074-31.225 15.747-34.198 26.232-3.138 11.082 18.019 12.825 25.427 14.159 32.536 5.865 65.415 4.255 95.716 18.593 30.934 14.637 68.336 16.522 101.804 20.241 41.285 4.583 73.836-25.338 111.313-25.107 37.477.231 70.088 35.83 111.261 31.344 10.016-1.088 26.672-1.49 35.063-8.428 4.881-4.039 3.771-7.505 6.826-12.445 6.476-10.478 22.32-10.985 33.334-11.648 32.432-1.945 64.99.216 97.437-1.938 6.305-.41 48.141-1.96 44.169-12.326-3.234-8.436-42.991-13.645-49.817-15.5-17.603-4.807 10.947-17.14 15.023-18.929 8.473-3.726 20.866-6.073 9.301-12.81-11.715-6.819-32.499-4.986-45.518-5.12-17.93-.179-35.369-.127-52.471-6.245-36.889-13.198-69.47-32.476-110.129-32.35-19.174.06-37.156 2.236-55.377-5.328C177.753 13.02 166.217 5.59 150.031 5.53c-16.052-.06-29.883 7.087-46.054 11.745-20.814 5.962-41.353 2.638-62.502 1.118-42.299-3.033-86.96 7.593-127.432 19.16-14.726 4.217-29.764 6.103-44.84 8.607-12.177 2.012-35.681 2.98-45.28 12.169-8.54 8.153-.41 7.378 8.943 7.773 3.823.163 35.241-.164 21.224 10.94z" stroke="url(#paint2_linear_2_20277)"/><path d="M-131.438 72.95c-1.64 11.097-41.136 26.523-11.819 35.213 32.432 9.605 68.128 5.961 99.539 19.882 27.305 12.065 55.206 17.401 85.283 19.025 39.72 2.147 74.723-26.485 110.56-26.038 34.392.433 66.459 35.264 104.704 31.687 8.145-.745 20.776-1.669 26.917-8.063 3.197-3.324 2.929-8.421 6.468-11.707 10.143-9.398 37.723-5.761 49.602-5.701 23.847.119 48.797 2.153 72.354-2.325 9.307-1.767 28.676-4.859 17.52-15.441-7.236-6.864-25.293-8.392-26.158-14.562-.797-5.813 18.355-11.387 26.635-14.629 10.045-3.92 14.3-6.684 1.632-10.932-27.857-9.33-57.829-2.169-85.701-14.122-37.007-15.88-67.449-29.064-108.802-28.318-15.396.298-30.375-.902-44.884-6.364-15.65-5.888-28.758-13.012-44.84-13.072-15.65-.067-30.658 6.469-46.561 10.754-18.146 4.881-36.158 3.577-54.662 2.37-41.263-2.705-80.79 3.592-119.98 16.32-24.868 8.086-53.656 5.76-77.503 16.477-32.484 14.636 20.911 11.394 19.696 19.547z" stroke="url(#paint3_linear_2_20277)"/><path d="M-119.425 69.605c9.054 8.033-14.778 18.355-1.9 29.443 9.226 7.952 25.106 8.287 36.516 9.919 15.232 2.191 30.792 3.615 45.607 8.004 10.433 3.085 19.376 8.943 29.578 12.393 13.197 4.508 28.407 6.148 42.246 6.073 29.809-.149 56.883-20.225 85.03-20.18 38.878.06 78.315 25.635 119.89 25.859 11.656.06 24.056-1.49 34.526-6.908 6.842-3.525 11.469-6.513 19.376-7.654 25.233-3.644 66.451 10.255 87.288-9.129 11.111-10.328-11.246-22.282.559-28.564 8.853-4.702 54.117-10.396 24.763-19.137-24.45-7.288-49.02-5.843-72.532-17.543-12.669-6.282-24.495-12.825-38.103-16.998-20.903-6.401-40.816-5.842-62.382-6.588-30.726-1.058-58.463-18.548-87.049-18.63-29.116-.097-58.127 14.003-89.553 12.922-39.944-1.371-75.953-.984-113.847 13.093-21.925 8.146-46.249 6.842-67.815 15.091-4.054 1.55-15.434 5.843-12.751 11.655 1.624 3.54 17.9 4.524 20.553 6.879z" stroke="url(#paint4_linear_2_20277)"/><path d="M-108.837 67.534c11.923 4.628 3.636 16.112 9.583 23.728 4.345 5.574 15.836 6.565 21.962 7.363 14.561 1.893 29.242 2.064 43.722 4.791 22.722 4.278 43.968 21.09 67.286 20.643 9.173-.179 15.56-3.517 23.802-6.901 12.005-4.933 23.02-7.452 35.472-7.519 43.797-.216 89.725 19.338 135.697 20.613 21.388.588 40.697-8.406 62.01-8.943 14.159-.358 51.756 6.811 60.065-10.001 6.066-12.259-5.5-21.26 14.099-25.777 11.275-2.593 49.051-7.72 18.556-16.924-22.058-6.662-43.222-8.197-63.94-19.294-31.44-16.812-59.244-17.184-94.039-19.845-29.339-2.235-57.113-17.378-84.955-17.445-28.683-.067-57.829 12.355-88.39 11.871-34.951-.544-66.861-1.781-99.942 11.178-19.375 7.587-39.668 8.63-59.379 14.502-3.569 1.066-15.731 4.643-15.418 10.217.223 4.837 10.485 6.454 13.809 7.743z" stroke="url(#paint5_linear_2_20277)"/><path d="M-95.579 65.55c5.627 1.774 10.97 4.278 14.495 9.338 2.422 3.473 1.766 6.856 5.418 9.688 4.985 3.912 15.977 2.608 21.611 2.66 11.387.097 22.737-.462 34.124.343 24.16 1.692 42.611 12.416 65.303 18.489 17.088 4.568 36.278-3.972 52.628-4.099 37.201-.261 77.443 15.434 116.775 16.917 21.895.819 43.909-5.306 65.908-6.253 11.677-.506 40.532 2.653 47.977-8.994 2.161-3.384 0-8.399 2.139-11.678 4.121-6.386 17.535-7.534 24.122-8.525 4.159-.626 21.418-1.379 22.521-7.005 1.274-6.514-15.031-9.882-19.376-11.126-18.131-5.217-34.026-9.815-50.675-18.87-27.573-14.993-55.399-13.153-85.7-16.193-28.974-2.906-57.136-16.082-85.052-16.127-25.792-.044-52.389 10.053-79.418 10.68-32.335.745-62.747-2.475-93.562 9.397-15.992 6.163-32.097 9.106-48.529 13.578-9.36 2.518-29.771 11.76-10.709 17.78z" stroke="url(#paint6_linear_2_20277)"/><path d="M-80.957 62.968c8.644 3.778 13.54 9.27 21.142 13.854 13.138 7.921 40.987-.484 54.974-1.409 26.389-1.736 45.168 3.399 68.836 14.115 18.63 8.443 35.883 9.561 56.16 10.023 27.521.619 54.595 8.578 82.131 8.943 21.939.275 43.535-6.119 65.661-6.417 13.414-.179 36.978 3.957 47.582-6.513 2.981-2.98 2.81-5.887 6.849-8.756 5.872-4.166 15.359-5.038 22.088-6.595 21.611-5.008-2.884-16.112-11.685-19.13-13.526-4.643-24.965-10.694-37.626-17.14-24.846-12.706-53.186-9.897-80.148-13.265-27.827-3.473-55.311-14.36-82.407-14.413-23.847-.044-48.558 8.011-73.307 9.256-28.482 1.423-56.585-2.072-83.852 7.907-13.012 4.77-25.911 8.741-39.199 12.624-3.592 1.013-30.568 11.111-17.2 16.916z" stroke="url(#paint7_linear_2_20277)"/><path d="M-66.552 60.58c2.236 2.98 10.657 7.452 15.448 9.837 14.42 7.169 34.616 1.565 49.93.417 25.889-1.937 49.967-.79 74.246 8.943 21.246 8.54 39.556 16.119 62.233 16.894 19.965.678 40.839 3.629 61.325 3.368 23.459-.29 46.762-3.212 70.259-3.428 13.764-.126 31.627 2.743 43.044-6.073 2.675-2.064 4.165-5.873 7.377-8.138 3.898-2.742 9.256-3.905 12.99-6.52 10.127-7.095-37.694-30.167-45.243-33.617-23.101-10.568-51.174-8.004-75.9-11.425-26.828-3.726-53.589-12.885-79.888-12.944-22.356-.052-45.458 6.483-68.508 8.04-25.337 1.722-51.144-1.266-75.58 6.916-8.957 3.04-57.568 20.002-51.733 27.73z" stroke="url(#paint8_linear_2_20277)"/><path d="M-44.054 57.145C-45.857 68.853-9.856 68.495-3.067 68.51c24.779.06 49.528.745 73.911 5.507 23.847 4.68 46.725 13.16 70.692 13.906 43.096 1.334 86.862 7.415 131.039 4.471 10.783-.745 26.44 1.192 30.189-9.643.916-2.638 1.453-11.752.991-14.16-2.124-11.14-20.337-23.503-31.515-27.505-21.06-7.542-46.286-6.394-68.33-9.547-26.373-3.77-52.776-11.38-78.725-11.469-20.478-.067-41.575 4.777-62.546 6.543-21.403 1.804-43.737 0-64.588 5.895-13.235 3.719-40.108 11.722-42.105 24.637z" stroke="url(#paint9_linear_2_20277)"/><path d="M-23.397 53.872C-27.488 62.718-5.57 65.438-1.592 65.997c27.573 3.86 55.706 4.136 83.39 7.728 24.041 3.115 47.896 7.452 72.086 8.1 39.496 1.051 80.111 12.587 119.779 6.76 26.269-3.86 11.021-12.468 3.666-26.947-6.23-12.274 1.714-15.933-16.082-20.822-20.665-5.67-42.895-5.962-64.022-9.054-25.158-3.726-50.429-9.934-75.267-10.03-18.966-.075-38.408 3.606-57.762 5.402-18.4 1.706-37.26.924-55.273 5.269-12.154 2.936-27.684 11.446-32.32 21.47z" stroke="url(#paint10_linear_2_20277)"/><path d="M-7.799 50.952c-.745 7.177 6.104 9.151 14.413 10.895 50.608 10.612 106.932 14.338 157.942 15.65 18.63.484 37.134 3.137 55.832 5.537 13.533 1.736 33.266 5.962 46.464.432 17.431-7.318-9.956-18.63-9.591-27.156.388-8.786 15.717-10.709-5.216-15.65-21.612-5.06-44.207-6.244-66.094-9.642-22.155-3.428-44.385-7.99-66.324-8.079-17.789-.074-36.047 2.832-54.163 4.584-16.186 1.564-32.79 1.304-48.678 4.91-8.42 1.96-23.713 10.337-24.585 18.52z" stroke="url(#paint11_linear_2_20277)"/><path d="M5.95 48.157c6.707 9.025-1.848 8.391 16.097 10.85 49.81 6.834 101.082 12.29 150.415 13.69 16.656.47 33.468 2.892 50.303 4.859 2.638.313 25.829 4.8 28.638-.209 5.709-10.164-18.988-17.445-10.507-25.337 3.726-3.488 11.074-4.084 16.305-6.67-11.722-9.65-38.893-8.63-53.313-10.62-28.81-3.964-58-10.335-86.445-10.432-29.183-.12-64.09 1.691-93.205 8.406C17.844 34.11-1.68 37.895 5.95 48.157z" stroke="url(#paint12_linear_2_20277)"/><path d="M18.03 45.937c10.247 6.439 5.768 10.433 21.254 12.028 44.713 4.508 90.753 7.452 134.691 9.017 3.197.112 54.96 8.697 56.934 4.471 2.534-5.47-22.967-17.46-2.802-22.46 6.499-1.618 13.586-2.281 20.36-3.593-13.116-7.862-33.535-7.988-48.574-10.105-28.161-3.98-56.703-9.688-84.634-9.77-26.59-.096-57.777 1.208-84.27 7.408-4.873 1.103-24.495 5.745-12.959 13.004z" stroke="url(#paint13_linear_2_20277)"/><path d="M28.42 44.245c10.149 3.808 13.875 11.879 26.693 13.496 37.104 4.576 76.117 4.829 112.632 6.007 13.369.424 28.319 4.158 41.926 3.882-5.716-12.669-6.945-17.14 9.383-20.255 5.961-1.148 14.554-.104 20.053-2.489-14.77-6.61-33.482-7.579-49.244-9.83-25.479-3.651-51.233-8.197-76.586-8.301-24.108-.09-52.053.64-76.012 6.483-4.59 1.073-21.544 6.275-8.846 11.007z" stroke="url(#paint14_linear_2_20277)"/><path d="M47.846 41.822c30.428 7.415 59.104 18.817 91.864 18.63 13.481-.066 22.587-.662 34.324-6.505 10.433-5.216 20.829-7.452 32.097-7.855a19.13 19.13 0 006.707-1.311c-9.591-5.671-25.129-6.588-35.927-8.242-22.58-3.458-45.496-6.558-68.076-6.633-17.99-.06-37.939-.223-55.735 4.256-4.069 1.058-15.933 5.06-5.254 7.66z" stroke="url(#paint15_linear_2_20277)"/><path d="M54.97 41.062c23.743 4.83 54.401 13.169 80.402 13.072 19.964-.075 43.081-8.123 61.108-8.876.916-.037 1.699-.298 1.982-1.14-25.338-12.222-63.992-12.535-91.215-12.617-14.107-.052-43.662-3.42-55.519 7.08.44 1.475 1.722 2.168 3.242 2.481z" stroke="url(#paint16_linear_2_20277)"/></g><defs><linearGradient id="paint0_linear_2_20277" x1="170.849" y1="-6.192" x2="170.849" y2="188" gradientUnits="userSpaceOnUse"><stop stop-color="#28D6E2"/><stop offset="1" stop-color="#EA6BF7"/></linearGradient><linearGradient id="paint1_linear_2_20277" x1="165.907" y1="-3.888" x2="165.907" y2="177.823" gradientUnits="userSpaceOnUse"><stop stop-color="#28D6E2"/><stop offset="1" stop-color="#EA6BF7"/></linearGradient><linearGradient id="paint2_linear_2_20277" x1="151.497" y1="-.523" x2="151.497" y2="162.894" gradientUnits="userSpaceOnUse"><stop stop-color="#28D6E2"/><stop offset="1" stop-color="#EA6BF7"/></linearGradient><linearGradient id="paint3_linear_2_20277" x1="139.417" y1="1.887" x2="139.417" y2="152.977" gradientUnits="userSpaceOnUse"><stop stop-color="#28D6E2"/><stop offset="1" stop-color="#EA6BF7"/></linearGradient><linearGradient id="paint4_linear_2_20277" x1="137.104" y1="4.92" x2="137.104" y2="141.118" gradientUnits="userSpaceOnUse"><stop stop-color="#28D6E2"/><stop offset="1" stop-color="#EA6BF7"/></linearGradient><linearGradient id="paint5_linear_2_20277" x1="136.558" y1="7.474" x2="136.558" y2="130.279" gradientUnits="userSpaceOnUse"><stop stop-color="#28D6E2"/><stop offset="1" stop-color="#EA6BF7"/></linearGradient><linearGradient id="paint6_linear_2_20277" x1="137.366" y1="10.083" x2="137.366" y2="118.961" gradientUnits="userSpaceOnUse"><stop stop-color="#28D6E2"/><stop offset="1" stop-color="#EA6BF7"/></linearGradient><linearGradient id="paint7_linear_2_20277" x1="134.547" y1="12.718" x2="134.547" y2="108.502" gradientUnits="userSpaceOnUse"><stop stop-color="#28D6E2"/><stop offset="1" stop-color="#EA6BF7"/></linearGradient><linearGradient id="paint8_linear_2_20277" x1="132.606" y1="14.733" x2="132.606" y2="100.056" gradientUnits="userSpaceOnUse"><stop stop-color="#28D6E2"/><stop offset="1" stop-color="#EA6BF7"/></linearGradient><linearGradient id="paint9_linear_2_20277" x1="130.141" y1="17.258" x2="130.141" y2="93.189" gradientUnits="userSpaceOnUse"><stop stop-color="#28D6E2"/><stop offset="1" stop-color="#EA6BF7"/></linearGradient><linearGradient id="paint10_linear_2_20277" x1="132.489" y1="19.096" x2="132.489" y2="90.22" gradientUnits="userSpaceOnUse"><stop stop-color="#28D6E2"/><stop offset="1" stop-color="#EA6BF7"/></linearGradient><linearGradient id="paint11_linear_2_20277" x1="132.596" y1="20.504" x2="132.596" y2="86.218" gradientUnits="userSpaceOnUse"><stop stop-color="#28D6E2"/><stop offset="1" stop-color="#EA6BF7"/></linearGradient><linearGradient id="paint12_linear_2_20277" x1="130.878" y1="22.151" x2="130.878" y2="79.703" gradientUnits="userSpaceOnUse"><stop stop-color="#28D6E2"/><stop offset="1" stop-color="#EA6BF7"/></linearGradient><linearGradient id="paint13_linear_2_20277" x1="131.62" y1="23.709" x2="131.62" y2="72.622" gradientUnits="userSpaceOnUse"><stop stop-color="#28D6E2"/><stop offset="1" stop-color="#EA6BF7"/></linearGradient><linearGradient id="paint14_linear_2_20277" x1="131.596" y1="25.175" x2="131.596" y2="67.645" gradientUnits="userSpaceOnUse"><stop stop-color="#28D6E2"/><stop offset="1" stop-color="#EA6BF7"/></linearGradient><linearGradient id="paint15_linear_2_20277" x1="128.286" y1="28.712" x2="128.286" y2="60.455" gradientUnits="userSpaceOnUse"><stop stop-color="#28D6E2"/><stop offset="1" stop-color="#EA6BF7"/></linearGradient><linearGradient id="paint16_linear_2_20277" x1="125.196" y1="30.054" x2="125.196" y2="54.134" gradientUnits="userSpaceOnUse"><stop stop-color="#28D6E2"/><stop offset="1" stop-color="#EA6BF7"/></linearGradient></defs></svg>