<?xml version="1.0" encoding="utf-8"?>
<!-- Generator: Adobe Illustrator 24.2.0, SVG Export Plug-In . SVG Version: 6.00 Build 0)  -->
<svg version="1.1" id="Шар_1" xmlns="http://www.w3.org/2000/svg" xmlns:xlink="http://www.w3.org/1999/xlink" x="0px" y="0px"
	 viewBox="0 0 3186.8 615.2" style="enable-background:new 0 0 3186.8 615.2;" xml:space="preserve">
<style type="text/css">
	.st0{fill:#FFFFFF;}
</style>
<g>
	<path class="st0" d="M236.2,135.8c0,17.7,6.6,33.8,19.1,46.4l119.2,119.2l15.5-15.5L270.8,166.7c-8.1-8.1-12.5-19.1-12.5-30.9
		c0-24.3,19.9-43.4,44.1-43.4c24.3,0,44.1,19.9,44.1,44.1c0,9.6-2.9,17.7-8.1,25l15.4,15.4c9.6-11.8,14-25.8,14-41.2
		c0-36.1-29.4-65.5-65.5-65.5C265.6,70.3,236.2,99.7,236.2,135.8z M374.5,319c-2.2,0-3.7-0.7-5.1-2.2L245,192.4
		c-15.5-15.5-23.5-35.3-23.5-56.7c0-44.1,36.1-80.2,80.2-80.2c44.1,0,80.2,36.1,80.2,80.2c0,21.3-8.1,41.2-23.5,56.7
		c-2.9,2.9-7.4,2.9-10.3,0l-25.8-25.8c-1.5-1.5-2.2-2.9-2.2-5.1c0-2.2,0.7-3.7,2.2-5.2c5.1-5.1,8.8-12.5,8.8-20.6
		c0-16.2-13.2-29.4-29.4-29.4c-16.2,0-28.7,13.2-29.4,28.7c0,8.1,2.9,14.7,8.8,20.6L405.4,280c1.5,1.5,2.2,2.9,2.2,5.1
		s-0.7,3.7-2.2,5.2L379.7,316C378.2,318.2,376.7,319,374.5,319z"/>
	<path class="st0" d="M312,384.5l15.4,15.5l119.2-119.2c8.1-8.1,19.1-12.5,30.9-12.5c24.3,0,43.4,19.9,43.4,44.1
		c0,24.3-19.9,44.1-44.1,44.1c-9.6,0-17.7-2.9-25-8.1l-14.7,14.7c11.8,9.6,25.8,14,40.5,14c36.1,0,65.5-29.4,65.5-65.5
		c0-36.1-29.4-65.5-64.7-65.5c0,0,0,0-0.7,0c-17.7,0-33.8,6.6-46.4,19.1L312,384.5z M327.4,417.6c-2.2,0-3.7-0.7-5.1-2.2l-25.8-25.8
		c-1.5-1.5-2.2-2.9-2.2-5.2s0.7-3.7,2.2-5.1L420.9,255c14.7-14.7,35.3-23.5,55.9-23.5c0,0,0,0,0.7,0c44.1,0,80.2,36.1,80.2,80.2
		c0,44.1-36.1,80.2-80.2,80.2c-21.3,0-41.2-8.1-56.7-23.5c-2.9-2.9-2.9-7.4,0-10.3l25.8-25.8c1.5-1.5,2.9-2.2,5.2-2.2
		c2.2,0,3.7,0.7,5.1,2.2c5.2,5.1,12.5,8.8,20.6,8.8c16.2,0,29.4-13.2,29.4-29.4c0-16.2-13.2-29.4-28.7-29.4
		c-8.1,0-14.7,2.9-20.6,8.8L332.6,415.4C331.1,416.8,329.6,417.6,327.4,417.6z"/>
	<path class="st0" d="M125.8,246.1c-36,0-65.5,29.4-65.5,65.5c0,36.1,29.4,65.5,64.7,65.5c0,0,0,0,0.7,0c17.7,0,33.8-6.6,46.4-19.1
		l119.2-119.2l-15.5-15.4L156.7,342.5c-8.1,8.1-19.1,12.5-30.9,12.5c-24.3,0-43.4-19.9-43.4-44.1c0-24.3,19.9-43.4,44.1-43.4
		c9.6,0,17.7,2.9,25,8.1l15.5-15.4C155.2,251.3,140.5,246.1,125.8,246.1z M125.8,391.8c-44.1,0-80.2-36.1-80.2-80.2
		c0-44.1,36.1-80.2,80.2-80.2c21.3,0,41.2,8.1,56.7,23.5c1.5,1.5,2.2,2.9,2.2,5.2s-0.7,3.7-2.2,5.1L156.7,291
		c-2.9,2.9-7.4,2.9-10.3,0c-5.1-5.2-12.5-8.8-20.6-8.8c-16.2,0-29.4,13.2-29.4,28.7c0,16.2,13.2,29.4,28.7,29.4
		c8.1,0,14.7-2.9,20.6-8.8L270,207.1c2.9-2.9,7.4-2.9,10.3,0l25.8,25.8c2.9,2.9,2.9,7.4,0,10.3L182.5,368.3
		C167.8,383.7,147.2,391.8,125.8,391.8z"/>
	<path class="st0" d="M203.1,394c2.2,0,3.7,0.7,5.1,2.2l8.8,8.8c2.9,2.9,2.9,7.4,0.7,10.3c-16.9,19.9-26.5,45.6-26.5,72.1
		c-0.7,61.1,49.3,111.1,110.4,111.1s111.1-50,111.1-111.1c0-26.5-9.6-51.5-26.5-72.1c-2.2-2.9-2.2-7.4,0.7-10.3l8.8-8.8
		c2.9-2.9,7.4-2.9,10.3-0.7c19.9,16.9,45.6,26.5,72.1,26.5c29.4,0,57.4-11.8,78.7-32.4c19.9-20.6,31.6-48.6,31.6-78
		c0-61.1-49.3-110.4-110.4-111.1h-0.7c-26.5,0-51.5,9.6-72.1,26.5c-2.9,2.2-7.4,2.2-10.3-0.7l-8.8-8.8c-2.9-2.9-2.9-7.4-0.7-10.3
		c16.9-19.9,26.5-45.6,26.5-72.1c0-29.4-11.8-57.4-32.4-78.7c-20.6-19.9-48.6-31.6-78-31.6c-61.1,0-111.1,50-111.1,111.1
		c0,26.5,9.6,52.2,26.5,72.1c2.2,2.9,2.2,7.4-0.7,10.3l-8.8,8.8c-2.9,2.9-7.4,2.9-10.3,0.7c-19.9-16.9-45.6-26.5-72.1-26.5
		c-60.3-0.7-110.4,49.3-110.4,110.4c0,61.1,50,111.1,111.1,111.1c26.5,0,51.5-9.6,72.1-26.5C199.4,394.8,200.9,394,203.1,394z
		 M301.7,613.3c-69.2,0-125.8-56.7-125.8-125.8c0-27.2,8.8-53.7,25-75.1c-21.3,16.2-47.8,25-75.1,25c-33.8,0-64.7-13.2-89-36.8
		C13.2,377.1,0,345.5,0,311.6c0-69.2,56.7-125.8,125.8-125.8c27.2,0,53.7,8.8,75.1,25c-16.2-21.3-25-47.8-25-75.1
		C175.9,66.6,232.5,10,301.7,10c33.8,0,65.5,13.2,89,36.8c23.5,23.5,36.8,55.2,36.8,89c0,27.2-8.8,53.7-25,75.1
		c21.3-16.2,47.1-25,74.3-25h0.7c69.2,0,125.8,56.7,125.8,125.8c0,33.8-13.2,64.7-36.8,89c-23.5,24.3-55.2,36.8-89,36.8
		c-27.2,0-53.7-8.8-75-25c16.2,21.3,25,47.8,25,75.1c0,33.8-13.2,64.7-36.8,89C366.4,600,335.5,613.3,301.7,613.3z"/>
	<path class="st0" d="M250.2,447c-9.6,11.8-14,25.8-14,40.5c0,36.1,29.4,65.5,65.5,65.5c36.1,0,65.5-29.4,65.5-64.7c0,0,0,0,0-0.7
		c0-17.7-6.6-33.8-19.1-46.4L228.8,321.9l-15.4,15.4l119.2,119.2c8.1,8.1,12.5,19.1,12.5,30.9c0,24.3-19.9,43.4-44.1,43.4
		c-24.3,0-44.1-19.9-44.1-44.1c0-9.6,2.9-17.7,8.1-25L250.2,447z M301.7,567.7c-44.1,0-80.2-36.1-80.2-80.2
		c0-21.3,8.1-41.9,23.5-56.7c2.9-2.9,7.4-2.9,10.3,0l25.8,25.8c2.9,2.9,2.9,7.4,0,10.3c-5.2,5.1-8.8,12.5-8.8,20.6
		c0,16.2,13.2,29.4,29.4,29.4c16.2,0,29.4-13.2,29.4-28.7c0-8.1-2.9-14.7-8.8-20.6L197.9,342.5c-2.9-2.9-2.9-7.4,0-10.3l25.8-25.8
		c2.9-2.9,7.4-2.9,10.3,0l124.3,124.3c14.7,14.7,23.5,35.3,23.5,55.9c0,0,0,0,0,0.7C381.9,531.6,345.8,567.7,301.7,567.7z"/>
	<path class="st0" d="M239.1,311.6l62.5,62.5l62.5-62.5l-62.5-62.5L239.1,311.6z M301.7,391.8c-2.2,0-3.7-0.7-5.2-2.2l-72.8-72.8
		c-2.9-2.9-2.9-7.4,0-10.3l72.8-72.8c1.5-1.5,2.9-2.2,5.2-2.2c2.2,0,3.7,0.7,5.1,2.2l72.8,72.8c1.5,1.5,2.2,2.9,2.2,5.2
		c0,2.2-0.7,3.7-2.2,5.1l-72.8,72.8C305.3,391.1,303.9,391.8,301.7,391.8z"/>
	<path class="st0" d="M1129,90.3c5.7,0,10.9,0.9,15.7,2.6c4.8,1.7,8.9,3.5,12.3,5.5c4.1,2.3,7.6,4.9,10.7,7.8c1.3-2.1,2.7-4,4.3-5.7
		c1.6-1.7,3-3.1,4.3-4.3c1.6-1.3,3.2-2.4,4.9-3.4h6.1v46.4h-9.8c-2.3-7.8-5.5-14.9-9.5-21.2c-3.4-5.4-8-10.3-13.7-14.8
		c-5.7-4.5-12.6-6.7-20.8-6.7c-4.9,0-9.7,1.3-14.4,4c-4.7,2.7-8.9,7.2-12.6,13.7c-3.7,6.4-6.6,15-8.8,25.6
		c-2.2,10.7-3.3,23.9-3.3,39.7c0,16,1.1,29.2,3.4,39.8c2.3,10.6,5.5,19.1,9.5,25.5c4.1,6.4,8.9,11,14.4,13.7c5.5,2.7,11.5,4,17.8,4
		c5.9,0,11.5-1.3,16.8-3.8c5.4-2.5,10.2-6,14.4-10.3c4.2-4.3,7.6-9.2,10.1-14.8c2.5-5.5,3.8-11.4,3.8-17.6h6.1c0,7-1.4,13.7-4.3,20
		c-2.8,6.3-6.8,11.9-11.8,16.7c-5,4.8-11,8.6-17.8,11.5c-6.8,2.8-14.2,4.3-22.2,4.3c-12.9,0-24.4-2-34.7-5.9
		c-10.2-3.9-19-9.6-26.1-17.2c-7.2-7.6-12.6-16.9-16.5-27.9c-3.8-11.1-5.7-23.8-5.7-38.1c0-14.3,1.9-27,5.6-38.1
		c3.8-11.1,9-20.4,15.9-28c6.8-7.6,15-13.3,24.4-17.2C1107.2,92.3,1117.6,90.3,1129,90.3z"/>
	<path class="st0" d="M1308.2,183.1c11.1,0,19.9-3.5,26.6-10.6c6.7-7.1,10-17.4,10-30.9c0-13.5-3.3-23.8-10-30.9
		c-6.7-7.1-15.5-10.6-26.6-10.6h-9.8v83H1308.2z M1328.9,186.8c5.5,0.2,10.8,1,15.9,2.7c4.2,1.3,8.5,3.5,12.9,6.5
		c4.4,3,7.8,7.3,10.2,12.8l22,48.8l12.2,3.7v3.7H1368c-7.3,0-13.3-1.9-18.1-5.7c-4.7-3.8-8.5-8.8-11.2-15l-24.4-54.9h-15.9v68.3
		l17.1,3.7v3.7h-72v-3.7l14.7-3.7V101.3l-14.7-3.7V94h64.7c14.6,0,26.9,1.2,36.9,3.5c9.9,2.4,17.9,5.6,24,9.8
		c6.1,4.1,10.5,9.2,13.2,15c2.7,5.9,4,12.3,4,19.3c0,5.5-0.8,10.4-2.5,14.5c-1.6,4.1-3.8,7.8-6.5,11c-2.7,3.2-5.8,5.8-9.3,7.9
		c-3.5,2.1-7,3.8-10.6,5.1c-8.5,3.2-18,5-28.6,5.4V186.8z"/>
	<path class="st0" d="M1597.8,141.4c3.8,11.1,5.7,23.8,5.7,38.1c0,14.3-1.9,27-5.7,38.1c-3.8,11.1-9.2,20.4-16.1,27.9
		c-6.9,7.6-15.3,13.3-25,17.2c-9.8,3.9-20.6,5.9-32.5,5.9c-11.9,0-22.7-2-32.5-5.9c-9.8-3.9-18.1-9.6-25-17.2
		c-6.9-7.6-12.3-16.9-16.1-27.9c-3.8-11.1-5.7-23.8-5.7-38.1c0-14.3,1.9-27,5.7-38.1c3.8-11.1,9.2-20.4,16.1-28
		c6.9-7.6,15.3-13.3,25-17.2c9.8-3.9,20.6-5.9,32.5-5.9c11.9,0,22.7,2,32.5,5.9c9.8,3.9,18.1,9.6,25,17.2
		C1588.6,121,1594,130.3,1597.8,141.4z M1557.5,219.8c2.2-10.8,3.3-24.3,3.3-40.4c0-16.1-1.1-29.6-3.3-40.4c-2.2-10.8-5-19.5-8.5-26
		c-3.5-6.5-7.4-11.1-11.8-13.8c-4.4-2.7-8.7-4-12.9-4c-4.2,0-8.5,1.3-12.9,4c-4.4,2.7-8.3,7.3-11.8,13.8c-3.5,6.5-6.4,15.2-8.5,26
		c-2.2,10.8-3.3,24.3-3.3,40.4c0,16.1,1.1,29.6,3.3,40.4c2.2,10.8,5,19.5,8.5,26c3.5,6.5,7.4,11.1,11.8,13.8c4.4,2.7,8.7,4,12.9,4
		c4.2,0,8.6-1.3,12.9-4c4.4-2.7,8.3-7.3,11.8-13.8C1552.5,239.3,1555.3,230.7,1557.5,219.8z"/>
	<path class="st0" d="M1713.4,262.4c9.3,0,16.7-2.8,22.2-8.3c5.5-5.5,8.3-12.9,8.3-22.2c0-6.3-2.2-11.8-6.5-16.5
		c-4.3-4.6-9.6-9-16-13.1c-6.3-4.1-13.3-8.1-20.9-12.2c-7.6-4.1-14.5-8.7-20.9-13.9c-6.3-5.2-11.7-11.3-16-18.2
		c-4.3-6.9-6.5-15.3-6.5-25c0-5.9,1.2-11.4,3.7-16.5c2.4-5.1,6.1-9.6,11.1-13.5c5-3.9,11.2-7,18.7-9.3c7.5-2.3,16.3-3.4,26.4-3.4
		c5.7,0,11,0.9,15.9,2.6c4.9,1.7,9,3.5,12.5,5.5c4.1,2.3,7.6,4.9,10.7,7.8c1.3-2.1,2.7-4,4.3-5.7c1.6-1.7,3-3.1,4.3-4.3
		c1.6-1.3,3.3-2.4,4.9-3.4h6.1v46.4h-9.8c-2.3-7.8-5.4-14.9-9.5-21.2c-3.4-5.4-8-10.3-13.7-14.8c-5.7-4.5-12.6-6.7-20.8-6.7
		c-3.1,0-6,0.7-8.8,2c-2.8,1.3-5.2,3.1-7.3,5.5c-2.1,2.4-3.8,5.2-5.1,8.5c-1.3,3.3-2,7-2,10.9c0,7,2.2,13,6.5,17.9
		c4.3,5,9.6,9.6,16,13.8c6.4,4.2,13.3,8.4,20.9,12.5c7.6,4.1,14.5,8.6,20.9,13.5c6.4,5,11.7,10.6,16,17c4.3,6.3,6.5,14,6.5,22.9
		c0,6.3-1.4,12.4-4.2,18.2c-2.8,5.8-6.9,10.9-12.4,15.2c-5.5,4.4-12.5,7.9-21,10.4c-8.5,2.5-18.3,3.8-29.5,3.8
		c-7.2,0-13.4-0.8-18.8-2.4c-5.4-1.6-9.9-3.4-13.7-5.4c-4.4-2.3-8.2-5-11.5-8c-1.3,2.3-2.7,4.2-4.3,5.9c-1.5,1.6-3,3-4.3,4.1
		c-1.6,1.3-3.3,2.4-4.9,3.4h-6.1v-46.4h9.8c2.4,8,5.9,15.1,10.2,21.5c1.9,2.8,4.1,5.4,6.6,7.9c2.4,2.5,5.3,4.8,8.4,6.7
		c3.2,1.9,6.7,3.5,10.6,4.8C1704.3,261.8,1708.7,262.4,1713.4,262.4z"/>
	<path class="st0" d="M1890.3,262.4c9.3,0,16.7-2.8,22.2-8.3c5.5-5.5,8.3-12.9,8.3-22.2c0-6.3-2.2-11.8-6.5-16.5
		c-4.3-4.6-9.6-9-16-13.1c-6.3-4.1-13.3-8.1-20.9-12.2c-7.6-4.1-14.5-8.7-20.9-13.9c-6.3-5.2-11.7-11.3-16-18.2
		c-4.3-6.9-6.5-15.3-6.5-25c0-5.9,1.2-11.4,3.7-16.5c2.4-5.1,6.1-9.6,11.1-13.5c5-3.9,11.2-7,18.7-9.3c7.5-2.3,16.3-3.4,26.4-3.4
		c5.7,0,11,0.9,15.9,2.6c4.9,1.7,9,3.5,12.5,5.5c4.1,2.3,7.6,4.9,10.7,7.8c1.3-2.1,2.7-4,4.3-5.7c1.6-1.7,3-3.1,4.3-4.3
		c1.6-1.3,3.3-2.4,4.9-3.4h6.1v46.4h-9.8c-2.3-7.8-5.4-14.9-9.5-21.2c-3.4-5.4-8-10.3-13.7-14.8c-5.7-4.5-12.6-6.7-20.8-6.7
		c-3.1,0-6,0.7-8.8,2c-2.8,1.3-5.2,3.1-7.3,5.5c-2.1,2.4-3.8,5.2-5.1,8.5c-1.3,3.3-2,7-2,10.9c0,7,2.2,13,6.5,17.9
		c4.3,5,9.6,9.6,16,13.8c6.4,4.2,13.3,8.4,20.9,12.5c7.6,4.1,14.5,8.6,20.9,13.5c6.4,5,11.7,10.6,16,17c4.3,6.3,6.5,14,6.5,22.9
		c0,6.3-1.4,12.4-4.2,18.2c-2.8,5.8-6.9,10.9-12.4,15.2c-5.5,4.4-12.5,7.9-21,10.4c-8.5,2.5-18.3,3.8-29.5,3.8
		c-7.2,0-13.4-0.8-18.8-2.4c-5.4-1.6-9.9-3.4-13.7-5.4c-4.4-2.3-8.2-5-11.5-8c-1.3,2.3-2.7,4.2-4.3,5.9c-1.5,1.6-3,3-4.3,4.1
		c-1.6,1.3-3.3,2.4-4.9,3.4h-6.1v-46.4h9.8c2.4,8,5.9,15.1,10.2,21.5c1.9,2.8,4.1,5.4,6.6,7.9c2.4,2.5,5.3,4.8,8.4,6.7
		c3.2,1.9,6.7,3.5,10.6,4.8C1881.3,261.8,1885.6,262.4,1890.3,262.4z"/>
	<path class="st0" d="M2008.7,100.1l-13.4-2.4V94h29.3c9.3,0,16.6,2.1,21.8,6.2c5.3,4.1,9,9,11.1,14.5l36.9,94l21.5-63l-18.1-45.7
		l-13.4-2.4V94h29.3c9.3,0,16.5,2.1,21.7,6.2c5.2,4.1,9,9,11.2,14.5l36.9,94l35.2-103.8l-18.3-7.3V94h45.2v3.7L2226,105l-54.9,162.3
		h-7.3l-43.9-111.5L2082,267.3h-7.3L2008.7,100.1z"/>
	<path class="st0" d="M2242.9,208.7h53.5l-26.9-64.2L2242.9,208.7z M2242.6,261.2v3.7h-45.2v-3.7l19.5-7.3l67.1-162.3h7.3l69.6,166
		l12.2,3.7v3.7h-29.3c-9.1,0-16.3-2.1-21.5-6.2c-5.2-4.2-8.9-9-11.2-14.5l-12.5-29.3h-58.3l-16.1,39.1L2242.6,261.2z"/>
	<path class="st0" d="M2357.3,101.3l-12.2-3.7V94h30.5c4.6,0,8.5,0.5,12,1.6c3.4,1.1,6.4,2.5,9,4.3c2.6,1.8,4.9,4,6.8,6.5
		c2,2.5,3.7,5.3,5.1,8.4l36.1,72l37.1-81.8l-18.3-7.3V94h46.4v3.7l-19.5,7.3l-42.7,94v58.6l14.6,3.7v3.7h-69.6v-3.7l14.7-3.7v-56.1
		L2357.3,101.3z"/>
	<path class="st0" d="M1121.2,366.9v3.7l-14.7,3.7v157.4h52.5c0-6.3,0.8-11.9,2.4-16.6c1.6-4.7,3.4-8.7,5.4-12
		c2.3-3.8,5-6.8,8.1-9.3h7.3v43.9h-130.6v-3.7l14.7-3.7V374.2l-14.7-3.7v-3.7H1121.2z"/>
	<path class="st0" d="M1363.9,414.2c3.8,11.1,5.7,23.8,5.7,38.1c0,14.3-1.9,27-5.7,38.1c-3.8,11.1-9.2,20.4-16.1,27.9
		c-6.9,7.6-15.3,13.3-25,17.2c-9.8,3.9-20.6,5.9-32.5,5.9c-11.9,0-22.7-2-32.5-5.9c-9.8-3.9-18.1-9.6-25-17.2
		c-6.9-7.6-12.3-16.9-16.1-27.9c-3.8-11.1-5.7-23.8-5.7-38.1c0-14.3,1.9-27,5.7-38.1c3.8-11.1,9.2-20.4,16.1-28
		c6.9-7.6,15.3-13.3,25-17.2c9.8-3.9,20.6-5.9,32.5-5.9c11.9,0,22.7,2,32.5,5.9c9.8,3.9,18.1,9.6,25,17.2
		C1354.7,393.9,1360.1,403.2,1363.9,414.2z M1323.7,492.7c2.2-10.8,3.3-24.3,3.3-40.4c0-16.1-1.1-29.6-3.3-40.4
		c-2.2-10.8-5-19.5-8.5-26c-3.5-6.5-7.4-11.1-11.8-13.8c-4.4-2.7-8.7-4-12.9-4c-4.2,0-8.5,1.3-12.9,4c-4.4,2.7-8.3,7.3-11.8,13.8
		c-3.5,6.5-6.4,15.2-8.5,26c-2.2,10.8-3.3,24.3-3.3,40.4c0,16.1,1.1,29.6,3.3,40.4c2.2,10.8,5,19.5,8.5,26
		c3.5,6.5,7.4,11.1,11.8,13.8c4.4,2.7,8.7,4,12.9,4c4.2,0,8.6-1.3,12.9-4c4.4-2.7,8.3-7.3,11.8-13.8
		C1318.6,512.2,1321.5,503.5,1323.7,492.7z"/>
	<path class="st0" d="M1501.5,532.9c3.8,0,7-1,9.6-3c2.7-2,4.9-4.3,6.7-6.7c2.1-2.9,4-6.2,5.6-9.8v-56.2l-14.6-3.7v-3.7h69.6v3.7
		l-14.7,3.7V539h-3.7c-7.2,0-12.9-1-17.2-3c-4.3-2-7.6-4.3-9.9-6.7c-2.8-2.9-4.7-6.2-5.9-9.8c-2.1,4.2-4.8,7.9-8.1,11
		c-2.8,2.8-6.4,5.3-11,7.6c-4.6,2.3-10,3.4-16.4,3.4c-9.1,0-17.8-2-26.1-5.9c-8.3-3.9-15.6-9.6-21.9-17.2
		c-6.3-7.6-11.2-16.9-14.9-27.9c-3.7-11.1-5.5-23.8-5.5-38.1c0-14.3,1.9-27,5.6-38.1c3.8-11.1,9-20.4,15.9-28
		c6.8-7.6,15-13.3,24.4-17.2c9.4-3.9,19.9-5.9,31.2-5.9c5.7,0,10.9,0.9,15.7,2.6c4.8,1.7,8.9,3.5,12.3,5.5c4.1,2.3,7.6,4.9,10.7,7.8
		c1.3-2.1,2.7-4,4.3-5.7c1.6-1.7,3-3.1,4.3-4.3c1.6-1.3,3.2-2.4,4.9-3.4h6.1V412h-9.8c-2.3-7.8-5.5-14.9-9.5-21.2
		c-3.4-5.4-8-10.3-13.7-14.8c-5.7-4.5-12.6-6.7-20.8-6.7c-4.9,0-9.7,1.3-14.4,4c-4.7,2.7-8.9,7.2-12.6,13.7
		c-3.7,6.4-6.6,15-8.8,25.6c-2.2,10.7-3.3,23.9-3.3,39.7c0,15.9,1,29.1,2.9,39.4c2,10.3,4.6,18.6,7.9,24.7
		c3.3,6.1,7.1,10.4,11.4,12.8C1492.5,531.7,1496.9,532.9,1501.5,532.9z"/>
	<polygon class="st0" points="1627.2,370.5 1627.2,366.9 1696.8,366.9 1696.8,370.5 1682.1,374.2 1682.1,530.4 1696.8,534.1 
		1696.8,537.8 1627.2,537.8 1627.2,534.1 1641.8,530.4 1641.8,374.2 	"/>
	<path class="st0" d="M1807.8,535.3c9.3,0,16.7-2.8,22.2-8.3c5.5-5.5,8.3-12.9,8.3-22.2c0-6.3-2.2-11.8-6.5-16.5
		c-4.3-4.6-9.6-9-16-13.1c-6.3-4.1-13.3-8.1-20.9-12.2c-7.6-4.1-14.5-8.7-20.9-13.9c-6.3-5.2-11.7-11.3-16-18.2
		c-4.3-6.9-6.5-15.3-6.5-25c0-5.9,1.2-11.4,3.7-16.5c2.4-5.1,6.1-9.6,11.1-13.5c5-3.9,11.2-7,18.7-9.3c7.5-2.3,16.3-3.4,26.4-3.4
		c5.7,0,11,0.9,15.9,2.6c4.9,1.7,9,3.5,12.5,5.5c4.1,2.3,7.6,4.9,10.7,7.8c1.3-2.1,2.7-4,4.3-5.7c1.6-1.7,3-3.1,4.3-4.3
		c1.6-1.3,3.3-2.4,4.9-3.4h6.1V412h-9.8c-2.3-7.8-5.4-14.9-9.5-21.2c-3.4-5.4-8-10.3-13.7-14.8c-5.7-4.5-12.6-6.7-20.8-6.7
		c-3.1,0-6,0.7-8.8,2c-2.8,1.3-5.2,3.1-7.3,5.5c-2.1,2.4-3.8,5.2-5.1,8.5c-1.3,3.3-2,7-2,10.9c0,7,2.2,13,6.5,17.9
		c4.3,5,9.6,9.6,16,13.8c6.4,4.2,13.3,8.4,20.9,12.5c7.6,4.1,14.5,8.6,20.9,13.5c6.4,5,11.7,10.6,16,17c4.3,6.3,6.5,14,6.5,22.9
		c0,6.3-1.4,12.4-4.2,18.2c-2.8,5.8-6.9,10.9-12.4,15.2c-5.5,4.4-12.5,7.9-21,10.4c-8.5,2.5-18.3,3.8-29.5,3.8
		c-7.2,0-13.4-0.8-18.8-2.4c-5.4-1.6-9.9-3.4-13.7-5.4c-4.4-2.3-8.2-5-11.5-8c-1.3,2.3-2.7,4.2-4.3,5.9c-1.5,1.6-3,3-4.3,4.1
		c-1.6,1.3-3.3,2.4-4.9,3.4h-6.1v-46.4h9.8c2.4,8,5.9,15.1,10.2,21.5c1.9,2.8,4.1,5.4,6.6,7.9c2.4,2.5,5.3,4.8,8.4,6.7
		c3.2,1.9,6.7,3.5,10.6,4.8C1798.8,534.7,1803.1,535.3,1807.8,535.3z"/>
	<path class="st0" d="M1960.4,537.8v-3.7l14.6-3.7V373h-28.1c0,6.5-0.9,12.1-2.6,16.7c-1.7,4.6-3.5,8.6-5.5,11.8
		c-2.3,3.8-4.9,6.8-7.8,9.3h-7.3v-43.9h142.8v43.9h-7.3c-3.1-2.4-5.8-5.5-8-9.3c-2-3.2-3.8-7.2-5.4-11.8c-1.6-4.6-2.4-10.2-2.4-16.7
		h-28.1v157.5l14.7,3.7v3.7H1960.4z"/>
	<polygon class="st0" points="2116.6,370.5 2116.6,366.9 2186.2,366.9 2186.2,370.5 2171.5,374.2 2171.5,530.4 2186.2,534.1 
		2186.2,537.8 2116.6,537.8 2116.6,534.1 2131.2,530.4 2131.2,374.2 	"/>
	<path class="st0" d="M2318.2,363.2c5.7,0,10.9,0.9,15.7,2.6c4.8,1.7,8.9,3.5,12.3,5.5c4.1,2.3,7.6,4.9,10.7,7.8
		c1.3-2.1,2.7-4,4.3-5.7c1.6-1.7,3-3.1,4.3-4.3c1.6-1.3,3.2-2.4,4.9-3.4h6.1V412h-9.8c-2.3-7.8-5.5-14.9-9.5-21.2
		c-3.4-5.4-8-10.3-13.7-14.8c-5.7-4.5-12.6-6.7-20.8-6.7c-4.9,0-9.7,1.3-14.4,4c-4.7,2.7-8.9,7.2-12.6,13.7
		c-3.7,6.4-6.6,15-8.8,25.6c-2.2,10.7-3.3,23.9-3.3,39.7c0,15.9,1.1,29.2,3.4,39.8c2.3,10.6,5.5,19.1,9.5,25.5
		c4.1,6.4,8.9,11,14.4,13.7c5.5,2.7,11.5,4,17.8,4c5.9,0,11.5-1.3,16.8-3.8c5.4-2.5,10.2-6,14.4-10.3c4.2-4.3,7.6-9.2,10.1-14.8
		c2.5-5.5,3.8-11.4,3.8-17.6h6.1c0,7-1.4,13.7-4.3,20c-2.8,6.3-6.8,11.9-11.8,16.7c-5,4.8-11,8.6-17.8,11.5
		c-6.8,2.8-14.2,4.3-22.2,4.3c-12.9,0-24.4-2-34.7-5.9c-10.2-3.9-19-9.6-26.1-17.2c-7.2-7.6-12.6-16.9-16.5-27.9
		c-3.8-11.1-5.7-23.8-5.7-38.1c0-14.3,1.9-27,5.6-38.1c3.8-11.1,9-20.4,15.9-28c6.8-7.6,15-13.3,24.4-17.2
		C2296.4,365.2,2306.8,363.2,2318.2,363.2z"/>
	<path class="st0" d="M2487.6,535.3c9.3,0,16.7-2.8,22.2-8.3c5.5-5.5,8.3-12.9,8.3-22.2c0-6.3-2.2-11.8-6.5-16.5
		c-4.3-4.6-9.6-9-16-13.1c-6.3-4.1-13.3-8.1-20.9-12.2c-7.6-4.1-14.5-8.7-20.9-13.9c-6.3-5.2-11.7-11.3-16-18.2
		c-4.3-6.9-6.5-15.3-6.5-25c0-5.9,1.2-11.4,3.7-16.5c2.4-5.1,6.1-9.6,11.1-13.5c5-3.9,11.2-7,18.7-9.3c7.5-2.3,16.3-3.4,26.4-3.4
		c5.7,0,11,0.9,15.9,2.6c4.9,1.7,9,3.5,12.5,5.5c4.1,2.3,7.6,4.9,10.7,7.8c1.3-2.1,2.7-4,4.3-5.7c1.6-1.7,3-3.1,4.3-4.3
		c1.6-1.3,3.3-2.4,4.9-3.4h6.1V412h-9.8c-2.3-7.8-5.4-14.9-9.5-21.2c-3.4-5.4-8-10.3-13.7-14.8c-5.7-4.5-12.6-6.7-20.8-6.7
		c-3.1,0-6,0.7-8.8,2c-2.8,1.3-5.2,3.1-7.3,5.5c-2.1,2.4-3.8,5.2-5.1,8.5c-1.3,3.3-2,7-2,10.9c0,7,2.2,13,6.5,17.9
		c4.3,5,9.6,9.6,16,13.8c6.4,4.2,13.3,8.4,20.9,12.5c7.6,4.1,14.5,8.6,20.9,13.5c6.4,5,11.7,10.6,16,17c4.3,6.3,6.5,14,6.5,22.9
		c0,6.3-1.4,12.4-4.2,18.2c-2.8,5.8-6.9,10.9-12.4,15.2c-5.5,4.4-12.5,7.9-21,10.4c-8.5,2.5-18.3,3.8-29.5,3.8
		c-7.2,0-13.4-0.8-18.8-2.4c-5.4-1.6-9.9-3.4-13.7-5.4c-4.4-2.3-8.2-5-11.5-8c-1.3,2.3-2.7,4.2-4.3,5.9c-1.5,1.6-3,3-4.3,4.1
		c-1.6,1.3-3.3,2.4-4.9,3.4h-6.1v-46.4h9.8c2.4,8,5.9,15.1,10.2,21.5c1.9,2.8,4.1,5.4,6.6,7.9c2.4,2.5,5.3,4.8,8.4,6.7
		c3.2,1.9,6.7,3.5,10.6,4.8C2478.6,534.7,2482.9,535.3,2487.6,535.3z"/>
	<polygon class="st0" points="2709.7,370.5 2709.7,366.9 2779.3,366.9 2779.3,370.5 2764.6,374.2 2764.6,530.4 2779.3,534.1 
		2779.3,537.8 2709.7,537.8 2709.7,534.1 2724.4,530.4 2724.4,374.2 	"/>
	<path class="st0" d="M2970.9,377.9l-19.5-7.3v-3.7h46.4v3.7l-19.5,7.3v163.5h-7.3l-113.5-133v118.4l19.5,7.3v3.7h-46.4v-3.7
		l19.5-7.3V375.4l-17.1-4.9v-3.7h25.6c4.9,0,9.1,0.5,12.7,1.6c3.6,1.1,6.7,2.4,9.4,4.1c2.7,1.7,5,3.6,7,5.6c2,2,3.7,3.9,5.1,5.7
		l78.1,91.5V377.9z"/>
	<path class="st0" d="M3123.7,363.2c5.7,0,10.9,0.9,15.7,2.6c4.8,1.7,8.9,3.5,12.3,5.5c4.1,2.3,7.6,4.9,10.7,7.8
		c1.3-2.1,2.7-4,4.3-5.7c1.6-1.7,3-3.1,4.3-4.3c1.6-1.3,3.2-2.4,4.9-3.4h6.1V412h-9.8c-2.3-7.8-5.5-14.9-9.5-21.2
		c-3.4-5.4-8-10.3-13.7-14.8c-5.7-4.5-12.6-6.7-20.8-6.7c-4.9,0-9.7,1.3-14.4,4c-4.7,2.7-8.9,7.2-12.6,13.7
		c-3.7,6.4-6.6,15-8.8,25.6c-2.2,10.7-3.3,23.9-3.3,39.7c0,15.9,1.1,29.2,3.4,39.8c2.3,10.6,5.5,19.1,9.5,25.5
		c4.1,6.4,8.9,11,14.4,13.7c5.5,2.7,11.5,4,17.8,4c5.9,0,11.5-1.3,16.8-3.8c5.4-2.5,10.2-6,14.4-10.3c4.2-4.3,7.6-9.2,10.1-14.8
		c2.5-5.5,3.8-11.4,3.8-17.6h6.1c0,7-1.4,13.7-4.3,20c-2.8,6.3-6.8,11.9-11.8,16.7c-5,4.8-11,8.6-17.8,11.5
		c-6.8,2.8-14.2,4.3-22.2,4.3c-12.9,0-24.4-2-34.7-5.9c-10.2-3.9-19-9.6-26.1-17.2c-7.2-7.6-12.6-16.9-16.5-27.9
		c-3.8-11.1-5.7-23.8-5.7-38.1c0-14.3,1.9-27,5.6-38.1c3.8-11.1,9-20.4,15.9-28c6.8-7.6,15-13.3,24.4-17.2
		C3101.9,365.2,3112.3,363.2,3123.7,363.2z"/>
	<rect x="822.1" y="0" class="st0" width="21.6" height="605.9"/>
</g>
</svg>
