<svg width="1440" height="300" fill="none" xmlns="http://www.w3.org/2000/svg"><mask id="a" style="mask-type:alpha" maskUnits="userSpaceOnUse" x="0" y="0" width="1440" height="300"><path fill="#C4C4C4" d="M0 0h1440v300H0z"/></mask><g opacity=".5" mask="url(#a)" stroke-miterlimit="10"><path d="M5.008 188.126c-22.263 12.642-73.285 31.069-50.1 61.443 14.772 19.349 39.905 28.562 62.23 35.797 58.8 19.092 119.911 18.865 180.116 29.771 39.014 7.068 73.814 27.595 111.529 39.27 34.272 10.573 68.694 13.7 104.325 15.543 45.418 2.326 84.009 2.084 128.385-10.332 48.817-13.593 96.592-31.009 146.617-31.9 106.544-1.903 199.103 70.446 310.844 47.956 66.926-13.473 131.286-35.48 199.586-42.609 34.5-3.595 82.08.906 113.54-16.614 24.66-13.7 37.91-24.484 68.34-29.725 64.62-11.117 131.98-13.443 195.23-31.508 13.38-3.821 32.11-6.736 20.95-19.635-13.84-15.965-72.01-13.473-91.94-15.89-30.12-3.655-73.23-2.265-101.05-15.995-17.25-8.519-15.1-12.491-1.31-24.167 10.79-9.062 68.75-26.538 67.54-43.802-1.51-21.931-83.83-24.076-97.83-24.544-48.33-1.616-96.89 6.314-145.1 2.643-94.57-7.084-178.81-64.283-274.205-72.228-40.011-3.353-83.995 11.404-122.103-5.286C796.799 21.512 776.56.984 739.313 1c-54.103 0-99.204 39.618-158.805 34.438-45.706-3.958-86.094-9.063-132.132-2.478-41.189 6.012-81.819 15.573-122.872 22.188-32.233 5.181-64.812 7.643-97.06 12.552-27.565 4.184-53.619 13.926-80.822 19.832-29.196 6.344-58.83 10.573-88.148 16.297-22.445 4.365-71.322 7.764-85.49 28.698 23.246 15.89 64.39-6.767 90.943.801 16.357 4.667 13.593 1.299 6.041 15.225-8.866 16.191-50.75 30.888-65.96 39.573z" stroke="url(#paint0_linear_107_206)"/><path d="M67.962 172.631c-16.871 10.256-81.049 36.719-72.5 62.139 6.57 19.499 53.816 26.553 70.053 29.967 57.955 12.189 118.84 13.518 175.209 31.975 74.01 24.167 153.458 38.078 230.489 49.376 82.333 12.083 153.278-41.612 233.239-43.228 51.686-1.058 102.029 22.656 151.042 39.421 45.75 15.573 86.411 21.312 134.2 13.881 51.896-8.141 102.116-19.847 148.806-43.636 65.45-33.395 141.69-35.751 213.18-40.796 36.99-2.628 74.1-5.287 110.87-10.286 17.56-2.387 54.93-1.888 68.25-15.391 12.78-12.96-11.39-15.286-22.52-17.989-29.74-7.205-61.47-9.561-91.35-14.319-158.2-25.239 34.35-43.968 4.92-80.777-14.12-17.672-72.63-13.956-92.93-14.183-43.94-.514-91.25 7.703-134.64-1.979-84.4-18.82-158.37-66.88-246.832-72.183-40.781-2.431-82.288 10.12-121.135-7.733-31.296-14.364-54.179-32.111-88.3-32.157-35.525 0-64.464 19.258-99.687 28.91-49.768 13.594-100.881-4.139-151.208-2.387-47.85 1.647-94.99 12.4-141.979 20.799-42.669 7.642-85.49 13.261-127.57 23.713-31.96 7.93-64.042 13.972-96.455 19.772-22.354 3.987-92.543 6.902-106.575 29.71-6.691 10.859 0 6.766 9.848 9.258 15.753 3.958 36.25-1.51 52.366-1.163 2.84 0 29.468-1.51 31.84 5.589 3.791 11.222-35.057 30.299-40.63 33.697z" stroke="url(#paint1_linear_107_206)"/><path d="M133.62 155.122c-15.482 12.31-63.286 31.915-69.313 53.167-6.359 22.46 36.522 25.994 51.536 28.698 65.944 11.887 132.584 8.624 193.998 37.684 62.697 29.665 138.505 33.486 206.338 41.023 83.677 9.289 149.652-51.354 225.611-50.886 75.959.469 142.054 72.621 225.505 63.529 20.3-2.206 54.055-3.021 71.065-17.083 9.89-8.187 7.64-15.21 13.84-25.224 13.12-21.237 45.23-22.264 67.56-23.608 65.73-3.942 131.72.438 197.48-3.927 12.78-.831 97.58-3.972 89.53-24.982-6.56-17.098-87.14-27.656-100.98-31.417-35.67-9.742 22.19-34.74 30.45-38.365 17.18-7.552 42.3-12.31 18.85-25.964-23.74-13.82-65.86-10.104-92.25-10.376-36.34-.363-71.69-.257-106.35-12.658-74.77-26.749-140.8-65.823-223.21-65.567-38.863.121-75.309 4.532-112.239-10.8-31.416-13.004-54.798-28.063-87.604-28.184-32.534-.12-60.568 14.365-93.344 23.805-42.186 12.083-83.813 5.346-126.678 2.265-85.732-6.147-176.251 15.391-258.282 38.833-29.846 8.549-60.326 12.37-90.882 17.445-24.68 4.078-72.318 6.042-91.773 24.665-17.309 16.524-.83 14.954 18.126 15.754 7.748.332 71.427-.332 43.016 22.173z" stroke="url(#paint2_linear_107_206)"/><path d="M162.952 146.83c-3.322 22.491-83.374 53.756-23.955 71.368 65.734 19.469 138.083 12.083 201.747 40.298 55.341 24.453 111.891 35.268 172.852 38.56 80.505 4.35 151.449-53.68 224.085-52.773 69.706.876 134.699 71.472 212.214 64.222 16.509-1.51 42.11-3.383 54.555-16.342 6.48-6.737 5.94-17.068 13.11-23.729 20.56-19.046 76.46-11.675 100.53-11.555 48.34.242 98.91 4.365 146.65-4.712 18.87-3.58 58.12-9.848 35.51-31.296-14.66-13.911-51.26-17.007-53.01-29.513-1.62-11.782 37.2-23.08 53.98-29.65 20.36-7.945 28.98-13.548 3.31-22.158-56.46-18.91-117.21-4.395-173.7-28.622-75.01-32.187-136.71-58.906-220.523-57.396-31.205.604-61.565-1.828-90.973-12.899-31.718-11.932-58.287-26.372-90.881-26.493-31.719-.136-62.139 13.11-94.371 21.796-36.779 9.893-73.286 7.25-110.789 4.803-83.632-5.483-163.745 7.28-243.177 33.078-50.403 16.388-108.75 11.675-157.084 33.395-65.839 29.665 42.382 23.094 39.92 39.618z" stroke="url(#paint3_linear_107_206)"/><path d="M187.301 140.048c18.352 16.283-29.951 37.202-3.851 59.677 18.699 16.116 50.886 16.796 74.01 20.104 30.873 4.44 62.41 7.325 92.438 16.222 21.145 6.253 39.27 18.125 59.948 25.118 26.749 9.138 57.577 12.461 85.626 12.31 60.416-.302 115.29-40.993 172.338-40.902 78.799.12 158.73 51.958 242.996 52.411 23.623.121 48.756-3.021 69.978-14.002 13.865-7.144 23.246-13.201 39.266-15.511 51.15-7.386 134.69 20.783 176.92-18.503 22.52-20.934-22.79-45.162 1.13-57.894 17.95-9.531 109.69-21.071 50.19-38.788-49.55-14.772-99.35-11.842-147.01-35.555-25.67-12.733-49.64-25.994-77.22-34.453-42.37-12.974-82.728-11.841-126.44-13.352-62.274-2.145-118.492-37.594-176.432-37.76-59.012-.197-117.812 28.38-181.507 26.19-80.958-2.779-153.941-1.993-230.746 26.538-44.436 16.51-93.736 13.866-137.448 30.586-8.217 3.142-31.281 11.842-25.843 23.623 3.293 7.175 36.28 9.169 41.657 13.941z" stroke="url(#paint4_linear_107_206)"/><path d="M208.764 135.851c24.166 9.38 7.371 32.656 19.424 48.092 8.805 11.298 32.096 13.307 44.512 14.923 29.513 3.836 59.269 4.184 88.616 9.712 46.053 8.67 89.114 42.745 136.375 41.839 18.594-.363 31.538-7.13 48.243-13.987 24.333-9.999 46.657-15.104 71.896-15.24 88.767-.438 181.854 39.195 275.032 41.778 43.349 1.193 82.484-17.037 125.678-18.125 28.7-.725 104.9 13.805 121.74-20.27 12.3-24.846-11.14-43.092 28.58-52.245 22.85-5.256 99.42-15.648 37.61-34.302-44.71-13.503-87.6-16.614-129.59-39.104-63.73-34.075-120.082-34.83-190.604-40.223-59.465-4.531-115.758-35.223-172.187-35.359-58.136-.136-117.208 25.043-179.151 24.061-70.838-1.102-135.514-3.61-202.562 22.657-39.271 15.376-80.399 17.49-120.35 29.392-7.235 2.16-31.885 9.41-31.25 20.708.453 9.803 21.251 13.08 27.988 15.693z" stroke="url(#paint5_linear_107_206)"/><path d="M235.634 131.831c11.404 3.595 22.234 8.67 29.378 18.926 4.909 7.038 3.58 13.896 10.981 19.635 10.104 7.93 32.383 5.287 43.802 5.393 23.079.196 46.083-.937 69.162.694 48.968 3.429 86.366 25.164 132.358 37.474 34.634 9.259 73.527-8.051 106.665-8.308 75.4-.528 156.963 31.281 236.683 34.287 44.376 1.661 88.994-10.754 133.581-12.672 23.666-1.028 82.156 5.377 97.236-18.231 4.38-6.857 0-17.023 4.34-23.668 8.35-12.945 35.54-15.271 48.89-17.28 8.43-1.268 43.41-2.794 45.65-14.198 2.58-13.201-30.47-20.028-39.27-22.55-36.75-10.573-68.97-19.892-102.71-38.244C996.492 62.7 940.093 66.43 878.679 60.268c-58.725-5.89-115.803-32.595-172.383-32.686-52.276-.09-106.183 20.376-160.966 21.645-65.537 1.51-127.177-5.015-189.633 19.046-32.413 12.491-65.053 18.457-98.358 27.52-18.971 5.105-60.341 23.834-21.705 36.038z" stroke="url(#paint6_linear_107_206)"/><path d="M265.268 126.598c17.521 7.658 27.444 18.789 42.85 28.078 26.629 16.056 83.073-.981 111.424-2.854 53.484-3.52 91.546 6.887 139.517 28.607 37.761 17.113 72.727 19.379 113.825 20.315 55.78 1.254 110.653 17.385 166.463 18.125 44.467.559 88.239-12.4 133.083-13.005 27.188-.362 74.95 8.021 96.44-13.201 6.04-6.041 5.69-11.932 13.88-17.747 11.9-8.443 31.13-10.21 44.77-13.367 43.8-10.15-5.85-32.655-23.68-38.773-27.42-9.41-50.6-21.674-76.26-34.74-50.362-25.752-107.803-20.058-162.45-26.885-56.399-7.038-112.103-29.105-167.022-29.211-48.333-.09-98.419 16.237-148.58 18.76-57.728 2.884-114.686-4.2-169.952 16.025-26.372 9.666-52.517 17.717-79.448 25.586-7.28 2.054-61.957 22.521-34.86 34.287z" stroke="url(#paint7_linear_107_206)"/><path d="M294.464 121.757c4.532 6.041 21.599 15.104 31.311 19.937 29.227 14.531 70.159 3.172 101.198.846 52.472-3.927 101.274-1.601 150.483 18.125 43.062 17.31 80.173 32.67 126.135 34.241 40.464 1.375 82.771 7.356 124.292 6.827 47.548-.589 94.779-6.509 142.402-6.947 27.898-.257 64.105 5.558 87.245-12.31 5.42-4.184 8.44-11.902 14.95-16.494 7.9-5.558 18.76-7.915 26.33-13.216 20.52-14.379-76.4-61.142-91.7-68.135-46.824-21.418-103.721-16.222-153.837-23.155-54.375-7.552-108.614-26.115-161.916-26.236-45.313-.106-92.136 13.14-138.853 16.297-51.354 3.49-103.66-2.567-153.187 14.017-18.155 6.163-116.679 40.54-104.853 56.203z" stroke="url(#paint8_linear_107_206)"/><path d="M340.064 114.796c-3.655 23.729 69.313 23.004 83.073 23.034 50.222.121 100.383 1.51 149.804 11.162 48.333 9.485 94.703 26.674 143.278 28.184 87.347 2.704 176.054 15.029 265.591 9.063 21.86-1.511 53.59 2.416 61.19-19.545 1.86-5.347 2.94-23.819 2.01-28.698-4.31-22.581-41.22-47.639-63.879-55.75-42.685-15.285-93.812-12.959-138.49-19.348-53.454-7.643-106.968-23.064-159.561-23.245-41.506-.136-84.266 9.681-126.769 13.261-43.379 3.655-88.647 0-130.908 11.948-26.825 7.537-81.291 23.759-85.339 49.934z" stroke="url(#paint9_linear_107_206)"/><path d="M381.933 108.163c-8.292 17.929 36.129 23.442 44.195 24.574 55.885 7.824 112.904 8.383 169.016 15.663 48.726 6.314 97.074 15.105 146.102 16.419 80.052 2.129 162.37 25.511 242.77 13.699 53.244-7.824 22.334-25.269 7.431-54.617-12.627-24.876 3.474-32.292-32.595-42.2-41.884-11.495-86.94-12.084-129.76-18.352-50.992-7.552-102.21-20.134-152.552-20.33-38.44-.151-77.847 7.31-117.072 10.95-37.293 3.459-75.521 1.873-112.028 10.679-24.635 5.95-56.112 23.2-65.507 43.515z" stroke="url(#paint10_linear_107_206)"/><path d="M413.546 102.243c-1.51 14.546 12.371 18.548 29.212 22.083 102.572 21.508 216.729 29.06 320.118 31.719 37.76.981 75.264 6.358 113.16 11.222 27.429 3.519 67.425 12.083 94.174.876 35.33-14.832-20.179-37.761-19.439-55.04.786-17.807 31.855-21.704-10.573-31.718-43.802-10.256-89.597-12.658-133.958-19.545-44.905-6.948-89.961-16.192-134.428-16.373-36.053-.151-73.058 5.74-109.777 9.289-32.806 3.172-66.458 2.643-98.66 9.954-17.068 3.972-48.062 20.95-49.829 37.533z" stroke="url(#paint11_linear_107_206)"/><path d="M441.413 96.578c13.594 18.291-3.746 17.007 32.625 21.992 100.956 13.85 204.873 24.906 304.863 27.746 33.758.951 67.833 5.86 101.953 9.848 5.347.634 52.351 9.727 58.045-.423 11.57-20.602-38.485-35.359-21.297-51.354 7.553-7.069 22.445-8.277 33.048-13.519-23.758-19.56-78.828-17.49-108.055-21.523-58.393-8.035-117.556-20.95-175.208-21.146-59.148-.241-129.896 3.429-188.908 17.038-12.96 2.87-52.532 10.543-37.066 31.34z" stroke="url(#paint12_linear_107_206)"/><path d="M465.897 92.079c20.768 13.05 11.691 21.146 43.077 24.378 90.625 9.138 183.939 15.104 272.993 18.276 6.48.227 111.393 17.627 115.396 9.063 5.135-11.087-46.551-35.389-5.679-45.524 13.17-3.278 27.535-4.622 41.264-7.28-26.583-15.935-67.969-16.192-98.449-20.482-57.078-8.065-114.927-19.635-171.538-19.801-53.891-.197-117.102 2.447-170.798 15.013-9.878 2.236-49.647 11.646-26.266 26.357z" stroke="url(#paint13_linear_107_206)"/><path d="M486.952 88.65c20.571 7.718 28.123 24.076 54.103 27.353 75.203 9.274 154.274 9.788 228.284 12.174 27.097.861 57.396 8.428 84.976 7.869-11.585-25.677-14.077-34.739 19.016-41.053 12.084-2.326 29.499-.211 40.646-5.045-29.937-13.397-67.863-15.36-99.809-19.922-51.641-7.401-103.841-16.614-155.225-16.826-48.862-.181-105.503 1.299-154.063 13.14-9.304 2.176-43.666 12.718-17.928 22.31z" stroke="url(#paint14_linear_107_206)"/><path d="M526.329 83.74c61.67 15.029 119.791 38.138 186.189 37.761 27.324-.136 45.781-1.345 69.57-13.186 21.146-10.573 42.216-15.105 65.054-15.92a38.769 38.769 0 0013.593-2.658c-19.439-11.495-50.931-13.353-72.817-16.706-45.765-7.008-92.211-13.291-137.976-13.442-36.462-.121-76.896-.453-112.965 8.624-8.246 2.145-32.292 10.256-10.648 15.527z" stroke="url(#paint15_linear_107_206)"/><path d="M540.769 82.2c48.122 9.787 110.26 26.688 162.959 26.492 40.464-.151 87.317-16.463 123.854-17.989 1.858-.076 3.444-.604 4.018-2.31C780.245 63.62 701.9 62.986 646.725 62.82c-28.593-.106-88.496-6.933-112.527 14.349.892 2.99 3.49 4.395 6.571 5.03z" stroke="url(#paint16_linear_107_206)"/></g><defs><linearGradient id="paint0_linear_107_206" x1="775.632" y1="-13.577" x2="775.633" y2="380.013" gradientUnits="userSpaceOnUse"><stop stop-color="#28D6E2"/><stop offset="1" stop-color="#EA6BF7"/></linearGradient><linearGradient id="paint1_linear_107_206" x1="765.614" y1="-8.907" x2="765.615" y2="359.386" gradientUnits="userSpaceOnUse"><stop stop-color="#28D6E2"/><stop offset="1" stop-color="#EA6BF7"/></linearGradient><linearGradient id="paint2_linear_107_206" x1="736.408" y1="-2.086" x2="736.408" y2="329.129" gradientUnits="userSpaceOnUse"><stop stop-color="#28D6E2"/><stop offset="1" stop-color="#EA6BF7"/></linearGradient><linearGradient id="paint3_linear_107_206" x1="711.924" y1="2.797" x2="711.925" y2="309.028" gradientUnits="userSpaceOnUse"><stop stop-color="#28D6E2"/><stop offset="1" stop-color="#EA6BF7"/></linearGradient><linearGradient id="paint4_linear_107_206" x1="707.236" y1="8.945" x2="707.236" y2="284.991" gradientUnits="userSpaceOnUse"><stop stop-color="#28D6E2"/><stop offset="1" stop-color="#EA6BF7"/></linearGradient><linearGradient id="paint5_linear_107_206" x1="706.133" y1="14.121" x2="706.133" y2="263.024" gradientUnits="userSpaceOnUse"><stop stop-color="#28D6E2"/><stop offset="1" stop-color="#EA6BF7"/></linearGradient><linearGradient id="paint6_linear_107_206" x1="707.768" y1="19.409" x2="707.768" y2="240.084" gradientUnits="userSpaceOnUse"><stop stop-color="#28D6E2"/><stop offset="1" stop-color="#EA6BF7"/></linearGradient><linearGradient id="paint7_linear_107_206" x1="702.055" y1="24.749" x2="702.055" y2="218.887" gradientUnits="userSpaceOnUse"><stop stop-color="#28D6E2"/><stop offset="1" stop-color="#EA6BF7"/></linearGradient><linearGradient id="paint8_linear_107_206" x1="698.119" y1="28.835" x2="698.119" y2="201.766" gradientUnits="userSpaceOnUse"><stop stop-color="#28D6E2"/><stop offset="1" stop-color="#EA6BF7"/></linearGradient><linearGradient id="paint9_linear_107_206" x1="693.124" y1="33.951" x2="693.124" y2="187.85" gradientUnits="userSpaceOnUse"><stop stop-color="#28D6E2"/><stop offset="1" stop-color="#EA6BF7"/></linearGradient><linearGradient id="paint10_linear_107_206" x1="697.883" y1="37.677" x2="697.883" y2="181.833" gradientUnits="userSpaceOnUse"><stop stop-color="#28D6E2"/><stop offset="1" stop-color="#EA6BF7"/></linearGradient><linearGradient id="paint11_linear_107_206" x1="698.099" y1="40.531" x2="698.099" y2="173.72" gradientUnits="userSpaceOnUse"><stop stop-color="#28D6E2"/><stop offset="1" stop-color="#EA6BF7"/></linearGradient><linearGradient id="paint12_linear_107_206" x1="694.618" y1="43.868" x2="694.618" y2="160.515" gradientUnits="userSpaceOnUse"><stop stop-color="#28D6E2"/><stop offset="1" stop-color="#EA6BF7"/></linearGradient><linearGradient id="paint13_linear_107_206" x1="696.121" y1="47.027" x2="696.122" y2="146.164" gradientUnits="userSpaceOnUse"><stop stop-color="#28D6E2"/><stop offset="1" stop-color="#EA6BF7"/></linearGradient><linearGradient id="paint14_linear_107_206" x1="696.071" y1="49.998" x2="696.071" y2="136.076" gradientUnits="userSpaceOnUse"><stop stop-color="#28D6E2"/><stop offset="1" stop-color="#EA6BF7"/></linearGradient><linearGradient id="paint15_linear_107_206" x1="689.365" y1="57.169" x2="689.365" y2="121.505" gradientUnits="userSpaceOnUse"><stop stop-color="#28D6E2"/><stop offset="1" stop-color="#EA6BF7"/></linearGradient><linearGradient id="paint16_linear_107_206" x1="683.103" y1="59.888" x2="683.103" y2="108.694" gradientUnits="userSpaceOnUse"><stop stop-color="#28D6E2"/><stop offset="1" stop-color="#EA6BF7"/></linearGradient></defs></svg>