<svg width="28" height="24" fill="none" xmlns="http://www.w3.org/2000/svg"><path d="M14.524 7.842c0 4.99-3.531 10.286-10.516 15.813-.538.46-1.305.46-1.843 0L.63 22.503c-.69-.537-.844-1.535-.307-2.226 2.917-3.684 4.375-6.985 4.375-9.749 0-1.612-.537-3.53-1.688-5.833-.384-.768 0-1.766.844-2.073L10.225.089c.691-.23 1.459 0 1.843.537 1.688 2.457 2.456 4.836 2.456 7.216zm13.203 0c0 4.99-3.531 10.286-10.516 15.813-.538.46-1.305.46-1.842 0l-1.536-1.152c-.69-.537-.844-1.535-.307-2.226 2.917-3.684 4.376-6.985 4.376-9.749 0-1.612-.538-3.53-1.69-5.833-.383-.768 0-1.766.845-2.073L23.428.089c.691-.23 1.459 0 1.843.537 1.688 2.457 2.456 4.836 2.456 7.216z" fill="#0E0E0E"/></svg>