<svg width="755" height="755" fill="none" xmlns="http://www.w3.org/2000/svg"><path d="M468.136 386.553c-2.759 0-4.598-.92-6.438-2.759L306.266 228.361c-19.314-19.314-29.431-44.146-29.431-70.818 0-55.183 45.066-100.25 100.249-100.25 55.183 0 100.249 45.067 100.249 100.25 0 26.672-10.116 51.504-29.43 70.818-3.679 3.679-9.198 3.679-12.877 0l-32.19-32.19c-1.839-1.839-2.759-3.679-2.759-6.438s.92-4.598 2.759-6.438c6.438-6.438 11.037-15.635 11.037-25.752 0-20.234-16.555-36.789-36.789-36.789s-35.869 16.555-36.788 35.869c0 10.117 3.678 18.395 11.036 25.753l155.432 155.432c1.84 1.839 2.76 3.679 2.76 6.438s-.92 4.598-2.76 6.438l-32.19 32.19c-1.839 2.759-3.679 3.679-6.438 3.679zm-172.907-229.01c0 22.073 8.278 42.307 23.913 57.942L468.136 364.48l19.314-19.314-148.994-148.995c-10.117-10.117-15.635-23.912-15.635-38.628 0-30.35 24.832-54.263 55.183-54.263s55.183 24.832 55.183 55.183c0 11.956-3.679 22.073-10.117 31.27l19.314 19.314c11.957-14.715 17.475-32.19 17.475-51.504 0-45.066-36.789-81.855-81.855-81.855-45.986 0-82.775 36.789-82.775 81.855z" fill="#3C3C3C"/><path d="M409.275 509.795c-2.76 0-4.599-.92-6.439-2.759l-32.19-32.19c-1.839-1.84-2.759-3.679-2.759-6.438s.92-4.599 2.759-6.438l155.433-155.433c18.394-18.394 44.146-29.431 69.898-29.431h.92c55.183 0 100.249 45.067 100.249 100.25S652.08 477.605 596.897 477.605c-26.672 0-51.504-10.117-70.818-29.431-3.679-3.679-3.679-9.197 0-12.876l32.19-32.19c1.839-1.84 3.679-2.759 6.438-2.759s4.598.919 6.438 2.759c6.438 6.438 15.635 11.036 25.752 11.036 20.234 0 36.789-16.554 36.789-36.788 0-20.234-16.555-36.789-35.869-36.789-10.117 0-18.395 3.679-25.752 11.037L415.713 507.036c-1.84 1.839-3.679 2.759-6.438 2.759zm-19.315-41.387l19.315 19.314 148.994-148.994c10.117-10.117 23.912-15.636 38.628-15.636 30.351 0 54.263 24.833 54.263 55.183 0 30.351-24.832 55.183-55.183 55.183-11.956 0-22.073-3.678-31.27-10.116l-18.395 18.394c14.716 11.956 32.191 17.475 50.585 17.475 45.066 0 81.855-36.789 81.855-81.855s-36.789-81.855-80.935-81.855h-.92c-22.073 0-42.307 8.277-57.942 23.912L389.96 468.408zm-232.688 9.197c-55.183 0-100.25-45.066-100.25-100.249 0-55.183 45.067-100.25 100.25-100.25 26.672 0 51.504 10.117 70.818 29.431 1.839 1.84 2.759 3.679 2.759 6.438 0 2.76-.92 4.599-2.759 6.438l-32.19 32.191c-3.679 3.678-9.197 3.678-12.876 0-6.438-6.438-15.635-11.037-25.752-11.037-20.234 0-36.789 16.555-36.789 35.869 0 20.234 16.555 36.789 35.869 36.789 10.117 0 18.394-3.679 25.752-11.037l155.432-155.432c3.679-3.679 9.198-3.679 12.876 0l32.191 32.19c3.678 3.679 3.678 9.197 0 12.876L228.09 448.174c-18.394 19.314-44.146 29.431-70.818 29.431zm0-182.104c-45.066 0-81.855 36.789-81.855 81.855s36.789 81.855 80.935 81.855h.92c22.073 0 42.307-8.278 57.942-23.913l148.994-148.994-19.314-19.314L195.9 415.984c-10.117 10.117-23.913 15.635-38.628 15.635-30.351 0-54.264-24.832-54.264-55.183s24.833-54.263 55.183-54.263c11.957 0 22.074 3.678 31.271 10.116l19.314-19.314c-14.716-11.036-33.11-17.474-51.504-17.474z" fill="#3C3C3C"/><path d="M377.084 754.44c-86.453 0-157.271-70.818-157.271-157.272 0-34.029 11.036-67.139 31.27-93.811-26.672 20.234-59.782 31.271-93.811 31.271-42.307 0-80.935-16.555-111.286-45.986C16.555 459.211 0 419.663 0 377.356c0-86.454 70.818-157.272 157.272-157.272 34.029 0 67.139 11.037 93.811 31.27-20.234-26.671-31.27-59.781-31.27-93.811C219.813 71.09 290.631.271 377.084.271c42.307 0 81.855 16.555 111.286 45.986 29.431 29.431 45.986 68.979 45.986 111.286 0 34.03-11.037 67.14-31.27 93.811 26.672-20.233 58.862-31.27 92.891-31.27h.92c86.453 0 157.272 70.818 157.272 157.272 0 42.307-16.555 80.935-45.986 111.286-29.431 30.35-68.979 45.986-111.286 45.986-34.03 0-67.139-11.037-93.811-31.271 20.233 26.672 31.27 59.782 31.27 93.811 0 42.307-16.555 80.936-45.986 111.286-30.351 29.431-68.979 45.986-111.286 45.986zM253.842 480.364c2.759 0 4.599.92 6.438 2.759l11.037 11.037c3.679 3.679 3.679 9.197.919 12.876-21.153 24.832-33.109 57.023-33.109 90.132-.92 76.337 61.621 138.878 137.957 138.878 76.337 0 138.878-62.541 138.878-138.878 0-33.109-11.957-64.38-33.11-90.132-2.759-3.679-2.759-9.197.92-12.876l11.036-11.037c3.679-3.678 9.197-3.678 12.876-.919 24.833 21.153 57.023 33.109 90.133 33.109 36.788 0 71.738-14.715 98.409-40.467 24.833-25.752 39.548-60.701 39.548-97.49 0-76.337-61.621-137.958-137.957-138.878h-.92c-33.11 0-64.38 11.957-90.132 33.11-3.679 2.759-9.198 2.759-12.876-.919l-11.037-11.037c-3.679-3.679-3.679-9.197-.92-12.876 21.154-24.833 33.11-57.023 33.11-90.132 0-36.789-14.715-71.739-40.468-98.41-25.752-24.833-60.701-39.548-97.49-39.548-76.336 0-138.877 62.54-138.877 138.877 0 33.11 11.956 65.3 33.11 90.133 2.759 3.678 2.759 9.197-.92 12.876l-11.037 11.036c-3.678 3.679-9.197 3.679-12.876.92-24.832-21.154-57.022-33.11-90.132-33.11-75.417-.92-137.958 61.621-137.958 137.958 0 76.336 62.541 138.877 138.878 138.877 33.11 0 64.38-11.956 90.132-33.11 1.84-1.839 3.679-2.759 6.438-2.759z" fill="#3C3C3C"/><path d="M377.084 697.418c-55.183 0-100.249-45.066-100.249-100.25 0-26.671 10.117-52.424 29.431-70.818 3.679-3.679 9.197-3.679 12.876 0l32.19 32.19c3.679 3.679 3.679 9.197 0 12.876-6.438 6.438-11.036 15.636-11.036 25.752 0 20.234 16.555 36.789 36.788 36.789 20.234 0 36.789-16.555 36.789-35.869 0-10.117-3.679-18.394-11.037-25.752L247.404 415.984c-3.679-3.679-3.679-9.197 0-12.876l32.19-32.19c3.679-3.679 9.197-3.679 12.876 0L447.903 526.35c18.394 18.394 29.431 44.147 29.431 69.899v.919c0 55.184-45.067 100.25-100.25 100.25zm-64.38-150.834c-11.956 14.715-17.475 32.19-17.475 50.584 0 45.067 36.789 81.855 81.855 81.855 45.067 0 81.855-36.788 81.855-80.935v-.92c0-22.073-8.277-42.307-23.912-57.942L286.032 390.232l-19.314 19.314L415.713 558.54c10.116 10.117 15.635 23.913 15.635 38.628 0 30.351-24.833 54.264-55.183 54.264-30.351 0-55.183-24.833-55.183-55.183 0-11.957 3.678-22.073 10.116-31.271l-18.394-18.394z" fill="#3C3C3C"/><path d="M377.084 477.605c-2.759 0-4.598-.92-6.438-2.759l-91.052-91.052c-3.679-3.679-3.679-9.197 0-12.876l91.052-91.052c1.84-1.84 3.679-2.76 6.438-2.76s4.599.92 6.438 2.76l91.052 91.052c1.84 1.839 2.759 3.679 2.759 6.438s-.919 4.598-2.759 6.438l-91.052 91.052c-1.839 1.839-3.679 2.759-6.438 2.759zm-78.176-100.249l78.176 78.176 78.176-78.176-78.176-78.176-78.176 78.176z" fill="#3C3C3C"/></svg>