<svg version="1.1" id="Шар_1" xmlns="http://www.w3.org/2000/svg" x="0" y="0" viewBox="0 0 3186.8 615.2" xml:space="preserve"><style>.st0{fill:#3a3a3a}</style><path class="st0" d="M236.2 135.8c0 17.7 6.6 33.8 19.1 46.4l119.2 119.2 15.5-15.5-119.2-119.2c-8.1-8.1-12.5-19.1-12.5-30.9 0-24.3 19.9-43.4 44.1-43.4 24.3 0 44.1 19.9 44.1 44.1 0 9.6-2.9 17.7-8.1 25l15.4 15.4c9.6-11.8 14-25.8 14-41.2 0-36.1-29.4-65.5-65.5-65.5-36.7.1-66.1 29.5-66.1 65.6zM374.5 319c-2.2 0-3.7-.7-5.1-2.2L245 192.4c-15.5-15.5-23.5-35.3-23.5-56.7 0-44.1 36.1-80.2 80.2-80.2s80.2 36.1 80.2 80.2c0 21.3-8.1 41.2-23.5 56.7-2.9 2.9-7.4 2.9-10.3 0l-25.8-25.8c-1.5-1.5-2.2-2.9-2.2-5.1 0-2.2.7-3.7 2.2-5.2 5.1-5.1 8.8-12.5 8.8-20.6 0-16.2-13.2-29.4-29.4-29.4S273 119.5 272.3 135c0 8.1 2.9 14.7 8.8 20.6L405.4 280c1.5 1.5 2.2 2.9 2.2 5.1s-.7 3.7-2.2 5.2L379.7 316c-1.5 2.2-3 3-5.2 3z"/><path class="st0" d="M312 384.5l15.4 15.5 119.2-119.2c8.1-8.1 19.1-12.5 30.9-12.5 24.3 0 43.4 19.9 43.4 44.1 0 24.3-19.9 44.1-44.1 44.1-9.6 0-17.7-2.9-25-8.1l-14.7 14.7c11.8 9.6 25.8 14 40.5 14 36.1 0 65.5-29.4 65.5-65.5s-29.4-65.5-64.7-65.5h-.7c-17.7 0-33.8 6.6-46.4 19.1L312 384.5zm15.4 33.1c-2.2 0-3.7-.7-5.1-2.2l-25.8-25.8c-1.5-1.5-2.2-2.9-2.2-5.2s.7-3.7 2.2-5.1L420.9 255c14.7-14.7 35.3-23.5 55.9-23.5h.7c44.1 0 80.2 36.1 80.2 80.2s-36.1 80.2-80.2 80.2c-21.3 0-41.2-8.1-56.7-23.5-2.9-2.9-2.9-7.4 0-10.3l25.8-25.8c1.5-1.5 2.9-2.2 5.2-2.2 2.2 0 3.7.7 5.1 2.2 5.2 5.1 12.5 8.8 20.6 8.8 16.2 0 29.4-13.2 29.4-29.4s-13.2-29.4-28.7-29.4c-8.1 0-14.7 2.9-20.6 8.8l-125 124.3c-1.5 1.4-3 2.2-5.2 2.2zM125.8 246.1c-36 0-65.5 29.4-65.5 65.5s29.4 65.5 64.7 65.5h.7c17.7 0 33.8-6.6 46.4-19.1l119.2-119.2-15.5-15.4-119.1 119.1c-8.1 8.1-19.1 12.5-30.9 12.5-24.3 0-43.4-19.9-43.4-44.1 0-24.3 19.9-43.4 44.1-43.4 9.6 0 17.7 2.9 25 8.1l15.5-15.4c-11.8-8.9-26.5-14.1-41.2-14.1zm0 145.7c-44.1 0-80.2-36.1-80.2-80.2s36.1-80.2 80.2-80.2c21.3 0 41.2 8.1 56.7 23.5 1.5 1.5 2.2 2.9 2.2 5.2s-.7 3.7-2.2 5.1L156.7 291c-2.9 2.9-7.4 2.9-10.3 0-5.1-5.2-12.5-8.8-20.6-8.8-16.2 0-29.4 13.2-29.4 28.7 0 16.2 13.2 29.4 28.7 29.4 8.1 0 14.7-2.9 20.6-8.8L270 207.1c2.9-2.9 7.4-2.9 10.3 0l25.8 25.8c2.9 2.9 2.9 7.4 0 10.3L182.5 368.3c-14.7 15.4-35.3 23.5-56.7 23.5z"/><path class="st0" d="M203.1 394c2.2 0 3.7.7 5.1 2.2l8.8 8.8c2.9 2.9 2.9 7.4.7 10.3-16.9 19.9-26.5 45.6-26.5 72.1-.7 61.1 49.3 111.1 110.4 111.1s111.1-50 111.1-111.1c0-26.5-9.6-51.5-26.5-72.1-2.2-2.9-2.2-7.4.7-10.3l8.8-8.8c2.9-2.9 7.4-2.9 10.3-.7 19.9 16.9 45.6 26.5 72.1 26.5 29.4 0 57.4-11.8 78.7-32.4 19.9-20.6 31.6-48.6 31.6-78 0-61.1-49.3-110.4-110.4-111.1h-.7c-26.5 0-51.5 9.6-72.1 26.5-2.9 2.2-7.4 2.2-10.3-.7l-8.8-8.8c-2.9-2.9-2.9-7.4-.7-10.3 16.9-19.9 26.5-45.6 26.5-72.1 0-29.4-11.8-57.4-32.4-78.7-20.6-19.9-48.6-31.6-78-31.6-61.1 0-111.1 50-111.1 111.1 0 26.5 9.6 52.2 26.5 72.1 2.2 2.9 2.2 7.4-.7 10.3l-8.8 8.8c-2.9 2.9-7.4 2.9-10.3.7-19.9-16.9-45.6-26.5-72.1-26.5-60.3-.7-110.4 49.3-110.4 110.4 0 61.1 50 111.1 111.1 111.1 26.5 0 51.5-9.6 72.1-26.5 1.6-1.5 3.1-2.3 5.3-2.3zm98.6 219.3c-69.2 0-125.8-56.7-125.8-125.8 0-27.2 8.8-53.7 25-75.1-21.3 16.2-47.8 25-75.1 25-33.8 0-64.7-13.2-89-36.8C13.2 377.1 0 345.5 0 311.6c0-69.2 56.7-125.8 125.8-125.8 27.2 0 53.7 8.8 75.1 25-16.2-21.3-25-47.8-25-75.1C175.9 66.6 232.5 10 301.7 10c33.8 0 65.5 13.2 89 36.8 23.5 23.5 36.8 55.2 36.8 89 0 27.2-8.8 53.7-25 75.1 21.3-16.2 47.1-25 74.3-25h.7c69.2 0 125.8 56.7 125.8 125.8 0 33.8-13.2 64.7-36.8 89-23.5 24.3-55.2 36.8-89 36.8-27.2 0-53.7-8.8-75-25 16.2 21.3 25 47.8 25 75.1 0 33.8-13.2 64.7-36.8 89-24.3 23.4-55.2 36.7-89 36.7z"/><path class="st0" d="M250.2 447c-9.6 11.8-14 25.8-14 40.5 0 36.1 29.4 65.5 65.5 65.5s65.5-29.4 65.5-64.7v-.7c0-17.7-6.6-33.8-19.1-46.4L228.8 321.9l-15.4 15.4 119.2 119.2c8.1 8.1 12.5 19.1 12.5 30.9 0 24.3-19.9 43.4-44.1 43.4-24.3 0-44.1-19.9-44.1-44.1 0-9.6 2.9-17.7 8.1-25L250.2 447zm51.5 120.7c-44.1 0-80.2-36.1-80.2-80.2 0-21.3 8.1-41.9 23.5-56.7 2.9-2.9 7.4-2.9 10.3 0l25.8 25.8c2.9 2.9 2.9 7.4 0 10.3-5.2 5.1-8.8 12.5-8.8 20.6 0 16.2 13.2 29.4 29.4 29.4s29.4-13.2 29.4-28.7c0-8.1-2.9-14.7-8.8-20.6L197.9 342.5c-2.9-2.9-2.9-7.4 0-10.3l25.8-25.8c2.9-2.9 7.4-2.9 10.3 0l124.3 124.3c14.7 14.7 23.5 35.3 23.5 55.9v.7c.1 44.3-36 80.4-80.1 80.4z"/><path class="st0" d="M239.1 311.6l62.5 62.5 62.5-62.5-62.5-62.5-62.5 62.5zm62.6 80.2c-2.2 0-3.7-.7-5.2-2.2l-72.8-72.8c-2.9-2.9-2.9-7.4 0-10.3l72.8-72.8c1.5-1.5 2.9-2.2 5.2-2.2 2.2 0 3.7.7 5.1 2.2l72.8 72.8c1.5 1.5 2.2 2.9 2.2 5.2 0 2.2-.7 3.7-2.2 5.1l-72.8 72.8c-1.5 1.5-2.9 2.2-5.1 2.2zM1129 90.3c5.7 0 10.9.9 15.7 2.6 4.8 1.7 8.9 3.5 12.3 5.5 4.1 2.3 7.6 4.9 10.7 7.8 1.3-2.1 2.7-4 4.3-5.7 1.6-1.7 3-3.1 4.3-4.3 1.6-1.3 3.2-2.4 4.9-3.4h6.1v46.4h-9.8c-2.3-7.8-5.5-14.9-9.5-21.2-3.4-5.4-8-10.3-13.7-14.8-5.7-4.5-12.6-6.7-20.8-6.7-4.9 0-9.7 1.3-14.4 4-4.7 2.7-8.9 7.2-12.6 13.7-3.7 6.4-6.6 15-8.8 25.6-2.2 10.7-3.3 23.9-3.3 39.7 0 16 1.1 29.2 3.4 39.8 2.3 10.6 5.5 19.1 9.5 25.5 4.1 6.4 8.9 11 14.4 13.7 5.5 2.7 11.5 4 17.8 4 5.9 0 11.5-1.3 16.8-3.8 5.4-2.5 10.2-6 14.4-10.3 4.2-4.3 7.6-9.2 10.1-14.8 2.5-5.5 3.8-11.4 3.8-17.6h6.1c0 7-1.4 13.7-4.3 20-2.8 6.3-6.8 11.9-11.8 16.7-5 4.8-11 8.6-17.8 11.5-6.8 2.8-14.2 4.3-22.2 4.3-12.9 0-24.4-2-34.7-5.9-10.2-3.9-19-9.6-26.1-17.2-7.2-7.6-12.6-16.9-16.5-27.9-3.8-11.1-5.7-23.8-5.7-38.1s1.9-27 5.6-38.1c3.8-11.1 9-20.4 15.9-28 6.8-7.6 15-13.3 24.4-17.2 9.7-3.8 20.1-5.8 31.5-5.8zm179.2 92.8c11.1 0 19.9-3.5 26.6-10.6 6.7-7.1 10-17.4 10-30.9s-3.3-23.8-10-30.9c-6.7-7.1-15.5-10.6-26.6-10.6h-9.8v83h9.8zm20.7 3.7c5.5.2 10.8 1 15.9 2.7 4.2 1.3 8.5 3.5 12.9 6.5s7.8 7.3 10.2 12.8l22 48.8 12.2 3.7v3.7H1368c-7.3 0-13.3-1.9-18.1-5.7-4.7-3.8-8.5-8.8-11.2-15l-24.4-54.9h-15.9v68.3l17.1 3.7v3.7h-72v-3.7l14.7-3.7V101.3l-14.7-3.7V94h64.7c14.6 0 26.9 1.2 36.9 3.5 9.9 2.4 17.9 5.6 24 9.8 6.1 4.1 10.5 9.2 13.2 15 2.7 5.9 4 12.3 4 19.3 0 5.5-.8 10.4-2.5 14.5-1.6 4.1-3.8 7.8-6.5 11s-5.8 5.8-9.3 7.9c-3.5 2.1-7 3.8-10.6 5.1-8.5 3.2-18 5-28.6 5.4v1.3zm268.9-45.4c3.8 11.1 5.7 23.8 5.7 38.1s-1.9 27-5.7 38.1c-3.8 11.1-9.2 20.4-16.1 27.9-6.9 7.6-15.3 13.3-25 17.2-9.8 3.9-20.6 5.9-32.5 5.9-11.9 0-22.7-2-32.5-5.9-9.8-3.9-18.1-9.6-25-17.2-6.9-7.6-12.3-16.9-16.1-27.9-3.8-11.1-5.7-23.8-5.7-38.1s1.9-27 5.7-38.1c3.8-11.1 9.2-20.4 16.1-28 6.9-7.6 15.3-13.3 25-17.2 9.8-3.9 20.6-5.9 32.5-5.9 11.9 0 22.7 2 32.5 5.9 9.8 3.9 18.1 9.6 25 17.2 6.9 7.6 12.3 16.9 16.1 28zm-40.3 78.4c2.2-10.8 3.3-24.3 3.3-40.4 0-16.1-1.1-29.6-3.3-40.4-2.2-10.8-5-19.5-8.5-26s-7.4-11.1-11.8-13.8c-4.4-2.7-8.7-4-12.9-4-4.2 0-8.5 1.3-12.9 4s-8.3 7.3-11.8 13.8c-3.5 6.5-6.4 15.2-8.5 26-2.2 10.8-3.3 24.3-3.3 40.4 0 16.1 1.1 29.6 3.3 40.4 2.2 10.8 5 19.5 8.5 26s7.4 11.1 11.8 13.8c4.4 2.7 8.7 4 12.9 4 4.2 0 8.6-1.3 12.9-4 4.4-2.7 8.3-7.3 11.8-13.8 3.5-6.5 6.3-15.1 8.5-26zm155.9 42.6c9.3 0 16.7-2.8 22.2-8.3 5.5-5.5 8.3-12.9 8.3-22.2 0-6.3-2.2-11.8-6.5-16.5-4.3-4.6-9.6-9-16-13.1-6.3-4.1-13.3-8.1-20.9-12.2-7.6-4.1-14.5-8.7-20.9-13.9-6.3-5.2-11.7-11.3-16-18.2-4.3-6.9-6.5-15.3-6.5-25 0-5.9 1.2-11.4 3.7-16.5 2.4-5.1 6.1-9.6 11.1-13.5 5-3.9 11.2-7 18.7-9.3 7.5-2.3 16.3-3.4 26.4-3.4 5.7 0 11 .9 15.9 2.6 4.9 1.7 9 3.5 12.5 5.5 4.1 2.3 7.6 4.9 10.7 7.8 1.3-2.1 2.7-4 4.3-5.7 1.6-1.7 3-3.1 4.3-4.3 1.6-1.3 3.3-2.4 4.9-3.4h6.1v46.4h-9.8c-2.3-7.8-5.4-14.9-9.5-21.2-3.4-5.4-8-10.3-13.7-14.8-5.7-4.5-12.6-6.7-20.8-6.7-3.1 0-6 .7-8.8 2-2.8 1.3-5.2 3.1-7.3 5.5-2.1 2.4-3.8 5.2-5.1 8.5-1.3 3.3-2 7-2 10.9 0 7 2.2 13 6.5 17.9 4.3 5 9.6 9.6 16 13.8 6.4 4.2 13.3 8.4 20.9 12.5 7.6 4.1 14.5 8.6 20.9 13.5 6.4 5 11.7 10.6 16 17 4.3 6.3 6.5 14 6.5 22.9 0 6.3-1.4 12.4-4.2 18.2-2.8 5.8-6.9 10.9-12.4 15.2-5.5 4.4-12.5 7.9-21 10.4s-18.3 3.8-29.5 3.8c-7.2 0-13.4-.8-18.8-2.4-5.4-1.6-9.9-3.4-13.7-5.4-4.4-2.3-8.2-5-11.5-8-1.3 2.3-2.7 4.2-4.3 5.9-1.5 1.6-3 3-4.3 4.1-1.6 1.3-3.3 2.4-4.9 3.4h-6.1v-46.4h9.8c2.4 8 5.9 15.1 10.2 21.5 1.9 2.8 4.1 5.4 6.6 7.9 2.4 2.5 5.3 4.8 8.4 6.7 3.2 1.9 6.7 3.5 10.6 4.8 3.9 1.1 8.3 1.7 13 1.7zm176.9 0c9.3 0 16.7-2.8 22.2-8.3 5.5-5.5 8.3-12.9 8.3-22.2 0-6.3-2.2-11.8-6.5-16.5-4.3-4.6-9.6-9-16-13.1-6.3-4.1-13.3-8.1-20.9-12.2-7.6-4.1-14.5-8.7-20.9-13.9-6.3-5.2-11.7-11.3-16-18.2-4.3-6.9-6.5-15.3-6.5-25 0-5.9 1.2-11.4 3.7-16.5 2.4-5.1 6.1-9.6 11.1-13.5 5-3.9 11.2-7 18.7-9.3 7.5-2.3 16.3-3.4 26.4-3.4 5.7 0 11 .9 15.9 2.6 4.9 1.7 9 3.5 12.5 5.5 4.1 2.3 7.6 4.9 10.7 7.8 1.3-2.1 2.7-4 4.3-5.7 1.6-1.7 3-3.1 4.3-4.3 1.6-1.3 3.3-2.4 4.9-3.4h6.1v46.4h-9.8c-2.3-7.8-5.4-14.9-9.5-21.2-3.4-5.4-8-10.3-13.7-14.8-5.7-4.5-12.6-6.7-20.8-6.7-3.1 0-6 .7-8.8 2-2.8 1.3-5.2 3.1-7.3 5.5-2.1 2.4-3.8 5.2-5.1 8.5-1.3 3.3-2 7-2 10.9 0 7 2.2 13 6.5 17.9 4.3 5 9.6 9.6 16 13.8 6.4 4.2 13.3 8.4 20.9 12.5 7.6 4.1 14.5 8.6 20.9 13.5 6.4 5 11.7 10.6 16 17 4.3 6.3 6.5 14 6.5 22.9 0 6.3-1.4 12.4-4.2 18.2-2.8 5.8-6.9 10.9-12.4 15.2-5.5 4.4-12.5 7.9-21 10.4s-18.3 3.8-29.5 3.8c-7.2 0-13.4-.8-18.8-2.4-5.4-1.6-9.9-3.4-13.7-5.4-4.4-2.3-8.2-5-11.5-8-1.3 2.3-2.7 4.2-4.3 5.9-1.5 1.6-3 3-4.3 4.1-1.6 1.3-3.3 2.4-4.9 3.4h-6.1v-46.4h9.8c2.4 8 5.9 15.1 10.2 21.5 1.9 2.8 4.1 5.4 6.6 7.9 2.4 2.5 5.3 4.8 8.4 6.7 3.2 1.9 6.7 3.5 10.6 4.8 4 1.1 8.3 1.7 13 1.7zm118.4-162.3l-13.4-2.4V94h29.3c9.3 0 16.6 2.1 21.8 6.2 5.3 4.1 9 9 11.1 14.5l36.9 94 21.5-63-18.1-45.7-13.4-2.4V94h29.3c9.3 0 16.5 2.1 21.7 6.2 5.2 4.1 9 9 11.2 14.5l36.9 94 35.2-103.8-18.3-7.3V94h45.2v3.7L2226 105l-54.9 162.3h-7.3l-43.9-111.5-37.9 111.5h-7.3l-66-167.2zm234.2 108.6h53.5l-26.9-64.2-26.6 64.2zm-.3 52.5v3.7h-45.2v-3.7l19.5-7.3L2284 91.6h7.3l69.6 166 12.2 3.7v3.7h-29.3c-9.1 0-16.3-2.1-21.5-6.2-5.2-4.2-8.9-9-11.2-14.5l-12.5-29.3h-58.3l-16.1 39.1 18.4 7.1zm114.7-159.9l-12.2-3.7V94h30.5c4.6 0 8.5.5 12 1.6 3.4 1.1 6.4 2.5 9 4.3 2.6 1.8 4.9 4 6.8 6.5 2 2.5 3.7 5.3 5.1 8.4l36.1 72 37.1-81.8-18.3-7.3V94h46.4v3.7l-19.5 7.3-42.7 94v58.6l14.6 3.7v3.7h-69.6v-3.7l14.7-3.7v-56.1l-50-100.2zM1121.2 366.9v3.7l-14.7 3.7v157.4h52.5c0-6.3.8-11.9 2.4-16.6 1.6-4.7 3.4-8.7 5.4-12 2.3-3.8 5-6.8 8.1-9.3h7.3v43.9h-130.6V534l14.7-3.7V374.2l-14.7-3.7v-3.7h69.6zm242.7 47.3c3.8 11.1 5.7 23.8 5.7 38.1s-1.9 27-5.7 38.1c-3.8 11.1-9.2 20.4-16.1 27.9-6.9 7.6-15.3 13.3-25 17.2-9.8 3.9-20.6 5.9-32.5 5.9-11.9 0-22.7-2-32.5-5.9-9.8-3.9-18.1-9.6-25-17.2-6.9-7.6-12.3-16.9-16.1-27.9-3.8-11.1-5.7-23.8-5.7-38.1s1.9-27 5.7-38.1c3.8-11.1 9.2-20.4 16.1-28 6.9-7.6 15.3-13.3 25-17.2 9.8-3.9 20.6-5.9 32.5-5.9 11.9 0 22.7 2 32.5 5.9 9.8 3.9 18.1 9.6 25 17.2 6.9 7.7 12.3 17 16.1 28zm-40.2 78.5c2.2-10.8 3.3-24.3 3.3-40.4 0-16.1-1.1-29.6-3.3-40.4-2.2-10.8-5-19.5-8.5-26s-7.4-11.1-11.8-13.8c-4.4-2.7-8.7-4-12.9-4-4.2 0-8.5 1.3-12.9 4s-8.3 7.3-11.8 13.8c-3.5 6.5-6.4 15.2-8.5 26-2.2 10.8-3.3 24.3-3.3 40.4 0 16.1 1.1 29.6 3.3 40.4 2.2 10.8 5 19.5 8.5 26s7.4 11.1 11.8 13.8c4.4 2.7 8.7 4 12.9 4 4.2 0 8.6-1.3 12.9-4 4.4-2.7 8.3-7.3 11.8-13.8 3.4-6.5 6.3-15.2 8.5-26zm177.8 40.2c3.8 0 7-1 9.6-3 2.7-2 4.9-4.3 6.7-6.7 2.1-2.9 4-6.2 5.6-9.8v-56.2l-14.6-3.7v-3.7h69.6v3.7l-14.7 3.7V539h-3.7c-7.2 0-12.9-1-17.2-3-4.3-2-7.6-4.3-9.9-6.7-2.8-2.9-4.7-6.2-5.9-9.8-2.1 4.2-4.8 7.9-8.1 11-2.8 2.8-6.4 5.3-11 7.6s-10 3.4-16.4 3.4c-9.1 0-17.8-2-26.1-5.9-8.3-3.9-15.6-9.6-21.9-17.2-6.3-7.6-11.2-16.9-14.9-27.9-3.7-11.1-5.5-23.8-5.5-38.1s1.9-27 5.6-38.1c3.8-11.1 9-20.4 15.9-28 6.8-7.6 15-13.3 24.4-17.2 9.4-3.9 19.9-5.9 31.2-5.9 5.7 0 10.9.9 15.7 2.6 4.8 1.7 8.9 3.5 12.3 5.5 4.1 2.3 7.6 4.9 10.7 7.8 1.3-2.1 2.7-4 4.3-5.7 1.6-1.7 3-3.1 4.3-4.3 1.6-1.3 3.2-2.4 4.9-3.4h6.1V412h-9.8c-2.3-7.8-5.5-14.9-9.5-21.2-3.4-5.4-8-10.3-13.7-14.8-5.7-4.5-12.6-6.7-20.8-6.7-4.9 0-9.7 1.3-14.4 4-4.7 2.7-8.9 7.2-12.6 13.7-3.7 6.4-6.6 15-8.8 25.6-2.2 10.7-3.3 23.9-3.3 39.7 0 15.9 1 29.1 2.9 39.4 2 10.3 4.6 18.6 7.9 24.7 3.3 6.1 7.1 10.4 11.4 12.8 4.7 2.5 9.1 3.7 13.7 3.7zm125.7-162.4v-3.6h69.6v3.6l-14.7 3.7v156.2l14.7 3.7v3.7h-69.6v-3.7l14.6-3.7V374.2zm180.6 164.8c9.3 0 16.7-2.8 22.2-8.3 5.5-5.5 8.3-12.9 8.3-22.2 0-6.3-2.2-11.8-6.5-16.5-4.3-4.6-9.6-9-16-13.1-6.3-4.1-13.3-8.1-20.9-12.2-7.6-4.1-14.5-8.7-20.9-13.9-6.3-5.2-11.7-11.3-16-18.2-4.3-6.9-6.5-15.3-6.5-25 0-5.9 1.2-11.4 3.7-16.5 2.4-5.1 6.1-9.6 11.1-13.5 5-3.9 11.2-7 18.7-9.3 7.5-2.3 16.3-3.4 26.4-3.4 5.7 0 11 .9 15.9 2.6 4.9 1.7 9 3.5 12.5 5.5 4.1 2.3 7.6 4.9 10.7 7.8 1.3-2.1 2.7-4 4.3-5.7 1.6-1.7 3-3.1 4.3-4.3 1.6-1.3 3.3-2.4 4.9-3.4h6.1V412h-9.8c-2.3-7.8-5.4-14.9-9.5-21.2-3.4-5.4-8-10.3-13.7-14.8-5.7-4.5-12.6-6.7-20.8-6.7-3.1 0-6 .7-8.8 2-2.8 1.3-5.2 3.1-7.3 5.5-2.1 2.4-3.8 5.2-5.1 8.5-1.3 3.3-2 7-2 10.9 0 7 2.2 13 6.5 17.9 4.3 5 9.6 9.6 16 13.8 6.4 4.2 13.3 8.4 20.9 12.5 7.6 4.1 14.5 8.6 20.9 13.5 6.4 5 11.7 10.6 16 17 4.3 6.3 6.5 14 6.5 22.9 0 6.3-1.4 12.4-4.2 18.2-2.8 5.8-6.9 10.9-12.4 15.2-5.5 4.4-12.5 7.9-21 10.4s-18.3 3.8-29.5 3.8c-7.2 0-13.4-.8-18.8-2.4-5.4-1.6-9.9-3.4-13.7-5.4-4.4-2.3-8.2-5-11.5-8-1.3 2.3-2.7 4.2-4.3 5.9-1.5 1.6-3 3-4.3 4.1-1.6 1.3-3.3 2.4-4.9 3.4h-6.1v-46.4h9.8c2.4 8 5.9 15.1 10.2 21.5 1.9 2.8 4.1 5.4 6.6 7.9 2.4 2.5 5.3 4.8 8.4 6.7 3.2 1.9 6.7 3.5 10.6 4.8 4 1.2 8.3 1.8 13 1.8zm152.6 2.5v-3.7l14.6-3.7V373h-28.1c0 6.5-.9 12.1-2.6 16.7-1.7 4.6-3.5 8.6-5.5 11.8-2.3 3.8-4.9 6.8-7.8 9.3h-7.3v-43.9h142.8v43.9h-7.3c-3.1-2.4-5.8-5.5-8-9.3-2-3.2-3.8-7.2-5.4-11.8-1.6-4.6-2.4-10.2-2.4-16.7h-28.1v157.5l14.7 3.7v3.7h-69.6zm156.2-167.3v-3.6h69.6v3.6l-14.7 3.7v156.2l14.7 3.7v3.7h-69.6v-3.7l14.6-3.7V374.2zm201.6-7.3c5.7 0 10.9.9 15.7 2.6 4.8 1.7 8.9 3.5 12.3 5.5 4.1 2.3 7.6 4.9 10.7 7.8 1.3-2.1 2.7-4 4.3-5.7 1.6-1.7 3-3.1 4.3-4.3 1.6-1.3 3.2-2.4 4.9-3.4h6.1V412h-9.8c-2.3-7.8-5.5-14.9-9.5-21.2-3.4-5.4-8-10.3-13.7-14.8-5.7-4.5-12.6-6.7-20.8-6.7-4.9 0-9.7 1.3-14.4 4-4.7 2.7-8.9 7.2-12.6 13.7-3.7 6.4-6.6 15-8.8 25.6-2.2 10.7-3.3 23.9-3.3 39.7 0 15.9 1.1 29.2 3.4 39.8 2.3 10.6 5.5 19.1 9.5 25.5 4.1 6.4 8.9 11 14.4 13.7 5.5 2.7 11.5 4 17.8 4 5.9 0 11.5-1.3 16.8-3.8 5.4-2.5 10.2-6 14.4-10.3 4.2-4.3 7.6-9.2 10.1-14.8 2.5-5.5 3.8-11.4 3.8-17.6h6.1c0 7-1.4 13.7-4.3 20-2.8 6.3-6.8 11.9-11.8 16.7-5 4.8-11 8.6-17.8 11.5-6.8 2.8-14.2 4.3-22.2 4.3-12.9 0-24.4-2-34.7-5.9-10.2-3.9-19-9.6-26.1-17.2-7.2-7.6-12.6-16.9-16.5-27.9-3.8-11.1-5.7-23.8-5.7-38.1s1.9-27 5.6-38.1c3.8-11.1 9-20.4 15.9-28 6.8-7.6 15-13.3 24.4-17.2 9.7-3.7 20.1-5.7 31.5-5.7zm169.4 172.1c9.3 0 16.7-2.8 22.2-8.3 5.5-5.5 8.3-12.9 8.3-22.2 0-6.3-2.2-11.8-6.5-16.5-4.3-4.6-9.6-9-16-13.1-6.3-4.1-13.3-8.1-20.9-12.2-7.6-4.1-14.5-8.7-20.9-13.9-6.3-5.2-11.7-11.3-16-18.2-4.3-6.9-6.5-15.3-6.5-25 0-5.9 1.2-11.4 3.7-16.5 2.4-5.1 6.1-9.6 11.1-13.5 5-3.9 11.2-7 18.7-9.3 7.5-2.3 16.3-3.4 26.4-3.4 5.7 0 11 .9 15.9 2.6 4.9 1.7 9 3.5 12.5 5.5 4.1 2.3 7.6 4.9 10.7 7.8 1.3-2.1 2.7-4 4.3-5.7 1.6-1.7 3-3.1 4.3-4.3 1.6-1.3 3.3-2.4 4.9-3.4h6.1V412h-9.8c-2.3-7.8-5.4-14.9-9.5-21.2-3.4-5.4-8-10.3-13.7-14.8-5.7-4.5-12.6-6.7-20.8-6.7-3.1 0-6 .7-8.8 2-2.8 1.3-5.2 3.1-7.3 5.5-2.1 2.4-3.8 5.2-5.1 8.5-1.3 3.3-2 7-2 10.9 0 7 2.2 13 6.5 17.9 4.3 5 9.6 9.6 16 13.8 6.4 4.2 13.3 8.4 20.9 12.5 7.6 4.1 14.5 8.6 20.9 13.5 6.4 5 11.7 10.6 16 17 4.3 6.3 6.5 14 6.5 22.9 0 6.3-1.4 12.4-4.2 18.2-2.8 5.8-6.9 10.9-12.4 15.2-5.5 4.4-12.5 7.9-21 10.4s-18.3 3.8-29.5 3.8c-7.2 0-13.4-.8-18.8-2.4-5.4-1.6-9.9-3.4-13.7-5.4-4.4-2.3-8.2-5-11.5-8-1.3 2.3-2.7 4.2-4.3 5.9-1.5 1.6-3 3-4.3 4.1-1.6 1.3-3.3 2.4-4.9 3.4h-6.1v-46.4h9.8c2.4 8 5.9 15.1 10.2 21.5 1.9 2.8 4.1 5.4 6.6 7.9 2.4 2.5 5.3 4.8 8.4 6.7 3.2 1.9 6.7 3.5 10.6 4.8 4 1.2 8.3 1.8 13 1.8zm222.1-164.8v-3.6h69.6v3.6l-14.7 3.7v156.2l14.7 3.7v3.7h-69.6v-3.7l14.7-3.7V374.2zm261.2 7.4l-19.5-7.3v-3.7h46.4v3.7l-19.5 7.3v163.5h-7.3l-113.5-133v118.4l19.5 7.3v3.7h-46.4v-3.7l19.5-7.3V375.4l-17.1-4.9v-3.7h25.6c4.9 0 9.1.5 12.7 1.6 3.6 1.1 6.7 2.4 9.4 4.1 2.7 1.7 5 3.6 7 5.6 2 2 3.7 3.9 5.1 5.7l78.1 91.5v-97.4zm152.8-14.7c5.7 0 10.9.9 15.7 2.6 4.8 1.7 8.9 3.5 12.3 5.5 4.1 2.3 7.6 4.9 10.7 7.8 1.3-2.1 2.7-4 4.3-5.7 1.6-1.7 3-3.1 4.3-4.3 1.6-1.3 3.2-2.4 4.9-3.4h6.1V412h-9.8c-2.3-7.8-5.5-14.9-9.5-21.2-3.4-5.4-8-10.3-13.7-14.8-5.7-4.5-12.6-6.7-20.8-6.7-4.9 0-9.7 1.3-14.4 4-4.7 2.7-8.9 7.2-12.6 13.7-3.7 6.4-6.6 15-8.8 25.6-2.2 10.7-3.3 23.9-3.3 39.7 0 15.9 1.1 29.2 3.4 39.8 2.3 10.6 5.5 19.1 9.5 25.5 4.1 6.4 8.9 11 14.4 13.7 5.5 2.7 11.5 4 17.8 4 5.9 0 11.5-1.3 16.8-3.8 5.4-2.5 10.2-6 14.4-10.3 4.2-4.3 7.6-9.2 10.1-14.8 2.5-5.5 3.8-11.4 3.8-17.6h6.1c0 7-1.4 13.7-4.3 20-2.8 6.3-6.8 11.9-11.8 16.7-5 4.8-11 8.6-17.8 11.5-6.8 2.8-14.2 4.3-22.2 4.3-12.9 0-24.4-2-34.7-5.9-10.2-3.9-19-9.6-26.1-17.2-7.2-7.6-12.6-16.9-16.5-27.9-3.8-11.1-5.7-23.8-5.7-38.1s1.9-27 5.6-38.1c3.8-11.1 9-20.4 15.9-28 6.8-7.6 15-13.3 24.4-17.2 9.7-3.7 20.1-5.7 31.5-5.7zM822.1 0h21.6v605.9h-21.6z"/></svg>