<svg width="599" height="272" fill="none" xmlns="http://www.w3.org/2000/svg"><g opacity=".5" stroke-miterlimit="10"><path d="M-536.173 134.062c-15.832 8.99-52.112 22.093-35.626 43.692 10.504 13.758 28.376 20.31 44.25 25.454 41.812 13.576 85.268 13.415 128.079 21.17 27.742 5.026 52.488 19.622 79.306 27.924 24.37 7.519 48.847 9.742 74.184 11.052 32.296 1.654 59.738 1.482 91.293-7.346 34.712-9.666 68.684-22.05 104.256-22.684 75.763-1.353 141.58 50.093 221.036 34.101 47.591-9.581 93.355-25.229 141.923-30.299 24.531-2.556 58.363.645 80.735-11.814 17.539-9.742 26.959-17.41 48.6-21.137 45.947-7.905 93.849-9.559 138.819-22.404 9.516-2.718 22.834-4.791 14.897-13.963-9.838-11.352-51.199-9.58-65.376-11.299-21.417-2.599-52.07-1.611-71.853-11.374-12.266-6.057-10.741-8.882-.935-17.184 7.68-6.444 48.89-18.871 48.031-31.147-1.074-15.595-59.609-17.12-69.565-17.453-34.369-1.15-68.899 4.49-103.182 1.88-67.246-5.038-127.145-45.711-194.981-51.361-28.451-2.384-59.727 8.109-86.824-3.76C26.857 15.586 12.464.99-14.022 1c-38.472 0-70.543 28.172-112.924 24.488-32.5-2.814-61.22-6.444-93.956-1.761C-250.19 28-279.082 34.8-308.274 39.504c-22.92 3.684-46.087 5.435-69.018 8.925-19.601 2.975-38.128 9.903-57.471 14.102-20.761 4.511-41.834 7.519-62.681 11.59-15.96 3.103-50.715 5.52-60.79 20.406 16.529 11.299 45.786-4.812 64.668.57 11.631 3.318 9.666.923 4.296 10.825-6.305 11.514-36.088 21.964-46.903 28.14z" stroke="url(#paint0_linear_2_1148)"/><path d="M-491.407 123.043c-11.997 7.293-57.633 26.11-51.554 44.186 4.672 13.866 38.268 18.881 49.814 21.309 41.21 8.667 84.505 9.612 124.588 22.737 52.627 17.185 109.121 27.076 163.897 35.11 58.546 8.592 108.993-29.589 165.852-30.739 36.754-.751 72.551 16.111 107.404 28.033 32.532 11.073 61.445 15.154 95.428 9.87 36.904-5.789 72.615-14.113 105.814-31.029 46.537-23.747 100.755-25.422 151.589-29.009 26.303-1.869 52.692-3.76 78.834-7.315 12.491-1.697 39.062-1.342 48.535-10.944 9.087-9.215-8.098-10.869-16.014-12.792-21.147-5.123-43.713-6.798-64.957-10.182-112.494-17.947 24.423-31.265 3.501-57.439-10.042-12.566-51.65-9.924-66.085-10.085-31.244-.365-64.882 5.477-95.739-1.407-60.017-13.383-112.613-47.558-175.519-51.328-28.999-1.73-58.513 7.196-86.137-5.5C25.589 16.307 9.318 3.687-14.944 3.655c-25.262 0-45.84 13.694-70.887 20.557-35.389 9.666-71.734-2.943-107.521-1.697-34.026 1.17-67.546 8.817-100.959 14.79-30.342 5.434-60.791 9.43-90.713 16.861-22.727 5.639-45.539 9.935-68.588 14.06-15.896 2.835-65.806 4.908-75.784 21.126-4.758 7.722 0 4.811 7.003 6.584 11.202 2.814 25.777-1.075 37.237-.827 2.019 0 20.954-1.075 22.64 3.974 2.696 7.98-24.928 21.545-28.891 23.961z" stroke="url(#paint1_linear_2_1148)"/><path d="M-444.72 110.595c-11.008 8.753-45.002 22.694-49.287 37.806-4.522 15.971 25.97 18.484 36.646 20.407 46.892 8.452 94.279 6.132 137.949 26.797 44.583 21.094 98.489 23.811 146.724 29.171 59.501 6.605 106.415-36.518 160.428-36.185 54.013.333 101.013 51.64 160.353 45.174 14.435-1.568 38.44-2.148 50.534-12.147 7.034-5.821 5.434-10.816 9.838-17.936 9.333-15.101 32.167-15.832 48.041-16.788 46.742-2.803 93.667.312 140.43-2.792 9.086-.591 69.383-2.825 63.658-17.765-4.661-12.158-61.961-19.665-71.799-22.339-25.369-6.928 15.778-24.703 21.652-27.281 12.212-5.37 30.073-8.753 13.404-18.463-16.883-9.827-46.838-7.185-65.602-7.378-25.841-.258-50.973-.183-75.622-9-53.165-19.022-100.122-46.807-158.721-46.624-27.635.085-53.551 3.222-79.811-7.68C21.755 18.325 5.129 7.617-18.2 7.531c-23.135-.086-43.07 10.214-66.376 16.927-29.997 8.592-59.598 3.802-90.079 1.61-60.962-4.37-125.329 10.945-183.66 27.614-21.223 6.08-42.897 8.796-64.624 12.405-17.55 2.9-51.425 4.296-65.259 17.54-12.308 11.749-.59 10.632 12.889 11.201 5.51.237 50.791-.236 30.588 15.767z" stroke="url(#paint2_linear_2_1148)"/><path d="M-423.862 104.698c-2.362 15.992-59.286 38.225-17.034 50.748 46.742 13.844 98.188 8.592 143.459 28.655 39.353 17.389 79.564 25.079 122.912 27.42 57.246 3.093 107.694-38.171 159.344-37.526 49.567.622 95.782 50.823 150.902 45.667 11.739-1.074 29.944-2.405 38.794-11.621 4.608-4.79 4.221-12.136 9.323-16.873 14.617-13.543 54.367-8.302 71.487-8.216 34.369.172 70.328 3.104 104.278-3.351 13.415-2.545 41.329-7.003 25.251-22.254-10.429-9.892-36.453-12.094-37.699-20.987-1.149-8.377 26.454-16.411 38.386-21.083 14.478-5.649 20.611-9.634 2.352-15.756-40.147-13.447-83.345-3.125-123.514-20.353-53.336-22.888-97.21-41.887-156.809-40.813-22.19.43-43.777-1.3-64.689-9.172C20.327 20.698 1.434 10.43-21.743 10.344c-22.555-.097-44.186 9.323-67.106 15.498-26.153 7.035-52.112 5.156-78.78 3.416-59.47-3.899-116.436 5.177-172.92 23.521-35.84 11.653-77.33 8.302-111.699 23.747-46.817 21.094 30.137 16.422 28.386 28.172z" stroke="url(#paint3_linear_2_1148)"/><path d="M-406.548 99.876c13.049 11.578-21.298 26.453-2.739 42.435 13.297 11.46 36.184 11.943 52.628 14.295 21.953 3.158 44.379 5.209 65.731 11.535 15.036 4.447 27.924 12.889 42.628 17.861 19.021 6.498 40.942 8.861 60.887 8.754 42.961-.215 81.981-29.15 122.547-29.085 56.033.086 112.87 36.947 172.791 37.269 16.798.086 34.67-2.148 49.76-9.956 9.859-5.081 16.529-9.388 27.925-11.031 36.366-5.252 95.771 14.779 125.801-13.157 16.014-14.886-16.207-32.113.806-41.167 12.759-6.778 77.996-14.983 35.69-27.582-35.239-10.504-70.65-8.42-104.536-25.282-18.258-9.055-35.303-18.484-54.915-24.5-30.127-9.225-58.825-8.42-89.908-9.493C54.266 39.245 14.29 14.039-26.909 13.92c-41.963-.14-83.775 20.18-129.067 18.623-57.568-1.976-109.466-1.417-164.08 18.871-31.598 11.74-66.655 9.86-97.737 21.75-5.843 2.233-22.244 8.42-18.377 16.797 2.341 5.102 25.798 6.52 29.622 9.914z" stroke="url(#paint4_linear_2_1148)"/><path d="M-391.286 96.89c17.185 6.669 5.241 23.22 13.812 34.196 6.262 8.034 22.823 9.463 31.652 10.612 20.986 2.728 42.145 2.975 63.013 6.906 32.748 6.165 63.368 30.395 96.975 29.751 13.221-.258 22.426-5.07 34.305-9.946 17.302-7.11 33.176-10.74 51.123-10.837 63.122-.311 129.314 27.871 195.571 29.708 30.825.848 58.653-12.115 89.371-12.889 20.406-.515 74.591 9.817 86.567-14.413 8.742-17.668-7.927-30.642 20.32-37.151 16.251-3.738 70.693-11.127 26.744-24.391-31.791-9.602-62.294-11.815-92.152-27.807-45.314-24.23-85.386-24.767-135.532-28.601C48.198 38.806 8.169 16.98-31.957 16.884c-41.34-.096-83.345 17.808-127.391 17.11-50.373-.784-96.363-2.567-144.039 16.11-27.925 10.934-57.171 12.438-85.579 20.901-5.145 1.536-22.673 6.691-22.222 14.725.322 6.97 15.112 9.301 19.902 11.16z" stroke="url(#paint5_linear_2_1148)"/><path d="M-372.179 94.033c8.109 2.556 15.81 6.165 20.89 13.457 3.491 5.005 2.545 9.881 7.808 13.963 7.186 5.638 23.028 3.759 31.147 3.834 16.411.14 32.769-.666 49.18.494 34.82 2.438 61.414 17.893 94.118 26.647 24.627 6.584 52.284-5.725 75.848-5.907 53.616-.376 111.614 22.243 168.301 24.38 31.555 1.182 63.282-7.647 94.988-9.011 16.83-.73 58.416 3.824 69.146-12.964 3.115-4.876 0-12.104 3.083-16.83 5.939-9.204 25.272-10.858 34.766-12.287 5.993-.902 30.868-1.987 32.457-10.096 1.837-9.387-21.663-14.241-27.925-16.035-26.131-7.518-49.04-14.145-73.034-27.194-39.739-21.61-79.844-18.957-123.514-23.34C43.322 38.957 2.734 19.968-37.5 19.904c-37.171-.065-75.504 14.489-114.459 15.39-46.602 1.075-90.434-3.565-134.845 13.544-23.049 8.882-46.259 13.125-69.941 19.57-13.49 3.63-42.908 16.947-15.434 25.626z" stroke="url(#paint6_linear_2_1148)"/><path d="M-351.106 90.31c12.458 5.445 19.515 13.361 30.47 19.966 18.935 11.417 59.072-.698 79.231-2.03 38.032-2.502 65.098 4.898 99.209 20.343 26.851 12.168 51.715 13.779 80.94 14.445 39.663.892 78.683 12.362 118.368 12.889 31.62.397 62.745-8.818 94.634-9.248 19.332-.257 53.293 5.703 68.577-9.387 4.296-4.296 4.049-8.485 9.87-12.62 8.463-6.004 22.136-7.26 31.834-9.505 31.147-7.217-4.156-23.22-16.841-27.57-19.493-6.692-35.98-15.413-54.227-24.703-35.809-18.312-76.654-14.263-115.513-19.118C35.342 38.767-4.269 23.075-43.32 23c-34.368-.064-69.984 11.546-105.652 13.34-41.05 2.051-81.552-2.986-120.85 11.395-18.753 6.874-37.345 12.599-56.495 18.194-5.176 1.461-44.056 16.014-24.788 24.381z" stroke="url(#paint7_linear_2_1148)"/><path d="M-330.345 86.87c3.222 4.295 15.358 10.74 22.264 14.177 20.783 10.332 49.889 2.255 71.961.601 37.312-2.792 72.014-1.139 107.006 12.888 30.62 12.309 57.01 23.232 89.692 24.349 28.773.977 58.857 5.23 88.382 4.854 33.811-.419 67.396-4.629 101.26-4.94 19.838-.183 45.582 3.952 62.036-8.754 3.856-2.975 6.004-8.463 10.633-11.728 5.618-3.952 13.34-5.628 18.721-9.398 14.596-10.225-54.325-43.477-65.205-48.45-33.295-15.23-73.754-11.535-109.39-16.464-38.665-5.37-77.234-18.57-115.136-18.656-32.221-.076-65.517 9.344-98.736 11.588-36.518 2.481-73.711-1.825-108.929 9.968-12.91 4.381-82.969 28.826-74.559 39.964z" stroke="url(#paint8_linear_2_1148)"/><path d="M-297.92 81.918c-2.599 16.874 49.288 16.358 59.072 16.38 35.712.085 71.38 1.074 106.523 7.937 34.369 6.745 67.342 18.967 101.882 20.041 62.112 1.923 125.19 10.687 188.859 6.444 15.541-1.074 38.106 1.719 43.509-13.898 1.321-3.802 2.094-16.937 1.428-20.406-3.061-16.057-29.31-33.875-45.421-39.643-30.352-10.87-66.708-9.215-98.478-13.758-38.01-5.435-76.063-16.4-113.46-16.53-29.515-.096-59.921 6.885-90.144 9.43-30.847 2.6-63.035 0-93.087 8.496-19.075 5.36-57.804 16.895-60.683 35.507z" stroke="url(#paint9_linear_2_1148)"/><path d="M-268.148 77.203c-5.896 12.748 25.691 16.669 31.427 17.474 39.739 5.564 80.284 5.961 120.184 11.138 34.648 4.489 69.028 10.74 103.891 11.675 56.924 1.514 115.459 18.14 172.63 9.741 37.859-5.563 15.885-17.968 5.284-38.837-8.979-17.69 2.47-22.963-23.178-30.008-29.783-8.174-61.821-8.593-92.27-13.05C13.56 39.966-22.86 31.02-58.657 30.88c-27.335-.108-55.356 5.198-83.249 7.786-26.518 2.46-53.701 1.332-79.661 7.594-17.517 4.231-39.9 16.497-46.581 30.943z" stroke="url(#paint10_linear_2_1148)"/><path d="M-245.668 72.992c-1.074 10.343 8.796 13.19 20.772 15.702 72.937 15.295 154.113 20.665 227.63 22.555 26.851.698 53.52 4.522 80.467 7.98 19.504 2.503 47.945 8.592 66.966.623 25.121-10.547-14.349-26.85-13.823-39.138.558-12.663 22.651-15.434-7.518-22.554-31.147-7.293-63.712-9-95.256-13.898C1.639 39.32-30.4 32.748-62.02 32.618c-25.636-.107-51.95 4.081-78.06 6.605-23.328 2.256-47.258 1.88-70.156 7.078-12.137 2.825-34.176 14.897-35.432 26.69z" stroke="url(#paint11_linear_2_1148)"/><path d="M-225.853 68.964c9.667 13.007-2.663 12.094 23.199 15.638 71.789 9.85 145.682 17.711 216.783 19.73 24.005.677 48.235 4.168 72.498 7.003 3.802.451 37.226 6.917 41.275-.301 8.227-14.65-27.367-25.143-15.144-36.517 5.37-5.026 15.96-5.886 23.5-9.612-16.895-13.91-56.054-12.438-76.837-15.306C17.9 43.886-24.17 34.703-65.167 34.563c-42.059-.172-92.366 2.438-134.329 12.115-9.215 2.04-37.355 7.497-26.357 22.286z" stroke="url(#paint12_linear_2_1148)"/><path d="M-208.443 65.765c14.768 9.28 8.313 15.037 30.632 17.335 64.442 6.498 130.796 10.74 194.12 12.996 4.608.161 79.21 12.534 82.057 6.444 3.651-7.883-33.102-25.165-4.039-32.371 9.366-2.33 19.58-3.287 29.343-5.177-18.903-11.331-48.332-11.514-70.006-14.564-40.587-5.735-81.723-13.962-121.978-14.08-38.321-.14-83.269 1.74-121.451 10.675-7.025 1.59-35.304 8.281-18.678 18.742z" stroke="url(#paint13_linear_2_1148)"/><path d="M-193.471 63.326c14.628 5.488 19.998 17.12 38.472 19.45 53.476 6.595 109.702 6.96 162.33 8.657 19.267.613 40.813 5.993 60.424 5.596-8.237-18.258-10.01-24.703 13.522-29.192 8.593-1.654 20.976-.15 28.903-3.587-21.288-9.527-48.257-10.923-70.972-14.167C2.486 44.82-34.632 38.27-71.171 38.118c-34.745-.129-75.021.924-109.551 9.344-6.616 1.547-31.051 9.044-12.749 15.864z" stroke="url(#paint14_linear_2_1148)"/><path d="M-165.471 59.836c43.853 10.686 85.182 27.119 132.396 26.85 19.43-.096 32.554-.956 49.47-9.376 15.037-7.518 30.02-10.74 46.259-11.32a27.57 27.57 0 009.666-1.89c-13.822-8.174-36.216-9.495-51.779-11.88-32.543-4.983-65.57-9.45-98.113-9.558-25.927-.086-54.679-.322-80.327 6.132-5.864 1.526-22.963 7.293-7.572 11.042z" stroke="url(#paint15_linear_2_1148)"/><path d="M-155.203 58.74c34.219 6.96 78.405 18.98 115.878 18.84 28.773-.107 62.09-11.707 88.07-12.792 1.322-.053 2.45-.43 2.858-1.643C15.084 45.53-40.625 45.079-79.86 44.96c-20.332-.076-62.928-4.93-80.016 10.203.634 2.126 2.481 3.125 4.672 3.576z" stroke="url(#paint16_linear_2_1148)"/></g><defs><linearGradient id="paint0_linear_2_1148" x1="11.805" y1="-9.366" x2="11.805" y2="270.51" gradientUnits="userSpaceOnUse"><stop stop-color="#28D6E2"/><stop offset="1" stop-color="#EA6BF7"/></linearGradient><linearGradient id="paint1_linear_2_1148" x1="4.682" y1="-6.046" x2="4.682" y2="255.841" gradientUnits="userSpaceOnUse"><stop stop-color="#28D6E2"/><stop offset="1" stop-color="#EA6BF7"/></linearGradient><linearGradient id="paint2_linear_2_1148" x1="-16.087" y1="-1.193" x2="-16.087" y2="234.329" gradientUnits="userSpaceOnUse"><stop stop-color="#28D6E2"/><stop offset="1" stop-color="#EA6BF7"/></linearGradient><linearGradient id="paint3_linear_2_1148" x1="-33.496" y1="2.278" x2="-33.496" y2="220.034" gradientUnits="userSpaceOnUse"><stop stop-color="#28D6E2"/><stop offset="1" stop-color="#EA6BF7"/></linearGradient><linearGradient id="paint4_linear_2_1148" x1="-36.831" y1="6.65" x2="-36.831" y2="202.942" gradientUnits="userSpaceOnUse"><stop stop-color="#28D6E2"/><stop offset="1" stop-color="#EA6BF7"/></linearGradient><linearGradient id="paint5_linear_2_1148" x1="-37.615" y1="10.329" x2="-37.615" y2="187.32" gradientUnits="userSpaceOnUse"><stop stop-color="#28D6E2"/><stop offset="1" stop-color="#EA6BF7"/></linearGradient><linearGradient id="paint6_linear_2_1148" x1="-36.452" y1="14.091" x2="-36.452" y2="171.01" gradientUnits="userSpaceOnUse"><stop stop-color="#28D6E2"/><stop offset="1" stop-color="#EA6BF7"/></linearGradient><linearGradient id="paint7_linear_2_1148" x1="-40.514" y1="17.887" x2="-40.514" y2="155.935" gradientUnits="userSpaceOnUse"><stop stop-color="#28D6E2"/><stop offset="1" stop-color="#EA6BF7"/></linearGradient><linearGradient id="paint8_linear_2_1148" x1="-43.313" y1="20.794" x2="-43.313" y2="143.763" gradientUnits="userSpaceOnUse"><stop stop-color="#28D6E2"/><stop offset="1" stop-color="#EA6BF7"/></linearGradient><linearGradient id="paint9_linear_2_1148" x1="-46.865" y1="24.431" x2="-46.865" y2="133.866" gradientUnits="userSpaceOnUse"><stop stop-color="#28D6E2"/><stop offset="1" stop-color="#EA6BF7"/></linearGradient><linearGradient id="paint10_linear_2_1148" x1="-43.481" y1="27.081" x2="-43.481" y2="129.589" gradientUnits="userSpaceOnUse"><stop stop-color="#28D6E2"/><stop offset="1" stop-color="#EA6BF7"/></linearGradient><linearGradient id="paint11_linear_2_1148" x1="-43.327" y1="29.109" x2="-43.327" y2="123.818" gradientUnits="userSpaceOnUse"><stop stop-color="#28D6E2"/><stop offset="1" stop-color="#EA6BF7"/></linearGradient><linearGradient id="paint12_linear_2_1148" x1="-45.803" y1="31.483" x2="-45.803" y2="114.429" gradientUnits="userSpaceOnUse"><stop stop-color="#28D6E2"/><stop offset="1" stop-color="#EA6BF7"/></linearGradient><linearGradient id="paint13_linear_2_1148" x1="-44.734" y1="33.729" x2="-44.734" y2="104.224" gradientUnits="userSpaceOnUse"><stop stop-color="#28D6E2"/><stop offset="1" stop-color="#EA6BF7"/></linearGradient><linearGradient id="paint14_linear_2_1148" x1="-44.77" y1="35.842" x2="-44.77" y2="97.05" gradientUnits="userSpaceOnUse"><stop stop-color="#28D6E2"/><stop offset="1" stop-color="#EA6BF7"/></linearGradient><linearGradient id="paint15_linear_2_1148" x1="-49.538" y1="40.941" x2="-49.538" y2="86.69" gradientUnits="userSpaceOnUse"><stop stop-color="#28D6E2"/><stop offset="1" stop-color="#EA6BF7"/></linearGradient><linearGradient id="paint16_linear_2_1148" x1="-53.991" y1="42.875" x2="-53.991" y2="77.58" gradientUnits="userSpaceOnUse"><stop stop-color="#28D6E2"/><stop offset="1" stop-color="#EA6BF7"/></linearGradient></defs></svg>