<svg width="1440" height="300" viewBox="0 0 1440 300" fill="none" xmlns="http://www.w3.org/2000/svg">
<mask id="mask0_107_206" style="mask-type:alpha" maskUnits="userSpaceOnUse" x="0" y="0" width="1440" height="300">
<rect width="1440" height="300" fill="#C4C4C4"/>
</mask>
<g mask="url(#mask0_107_206)">
<g opacity="0.5">
<g style="mix-blend-mode:overlay">
<path d="M5.00839 188.126C-17.2552 200.768 -68.2769 219.195 -45.092 249.569C-30.3201 268.918 -5.18688 278.131 17.1371 285.366C75.9376 304.458 137.049 304.231 197.254 315.137C236.268 322.205 271.068 342.732 308.783 354.407C343.055 364.98 377.477 368.107 413.108 369.95C458.526 372.276 497.117 372.034 541.493 359.618C590.31 346.025 638.085 328.609 688.11 327.718C794.654 325.815 887.213 398.164 998.954 375.674C1065.88 362.201 1130.24 340.194 1198.54 333.065C1233.04 329.47 1280.62 333.971 1312.08 316.451C1336.74 302.751 1349.99 291.967 1380.42 286.726C1445.04 275.609 1512.4 273.283 1575.65 255.218C1589.03 251.397 1607.76 248.482 1596.6 235.583C1582.76 219.618 1524.59 222.11 1504.66 219.693C1474.54 216.038 1431.43 217.428 1403.61 203.698C1386.36 195.179 1388.51 191.207 1402.3 179.531C1413.09 170.469 1471.05 152.993 1469.84 135.729C1468.33 113.798 1386.01 111.653 1372.01 111.185C1323.68 109.569 1275.12 117.499 1226.91 113.828C1132.34 106.744 1048.1 49.5448 952.705 41.6C912.694 38.2469 868.71 53.0037 830.602 36.3136C796.799 21.5115 776.56 0.984904 739.313 1.00001C685.21 1.00001 640.109 40.6183 580.508 35.4375C534.802 31.4803 494.414 26.375 448.376 32.9604C407.187 38.9719 366.557 48.5328 325.504 55.1485C293.271 60.3292 260.692 62.7912 228.444 67.7C200.879 71.8839 174.825 81.6261 147.622 87.5318C118.426 93.8756 88.7912 98.1048 59.474 103.829C37.0292 108.194 -11.8477 111.593 -26.0155 132.527C-2.77013 148.417 38.3735 125.76 64.9266 133.328C81.2844 137.995 78.5204 134.627 70.9683 148.553C62.1021 164.744 20.2183 179.441 5.00839 188.126Z" stroke="url(#paint0_linear_107_206)" stroke-miterlimit="10"/>
</g>
<g style="mix-blend-mode:overlay">
<path d="M67.9623 172.631C51.0909 182.887 -13.0867 209.35 -4.53775 234.77C2.03256 254.269 49.2784 261.323 65.5154 264.737C123.47 276.926 184.355 278.255 240.724 296.712C314.734 320.879 394.182 334.79 471.213 346.088C553.546 358.171 624.491 304.476 704.452 302.86C756.138 301.802 806.481 325.516 855.494 342.281C901.244 357.854 941.905 363.593 989.694 356.162C1041.59 348.021 1091.81 336.315 1138.5 312.526C1203.95 279.131 1280.19 276.775 1351.68 271.73C1388.67 269.102 1425.78 266.443 1462.55 261.444C1480.11 259.057 1517.48 259.556 1530.8 246.053C1543.58 233.093 1519.41 230.767 1508.28 228.064C1478.54 220.859 1446.81 218.503 1416.93 213.745C1258.73 188.506 1451.28 169.777 1421.85 132.968C1407.73 115.296 1349.22 119.012 1328.92 118.785C1284.98 118.271 1237.67 126.488 1194.28 116.806C1109.88 97.9866 1035.91 49.9251 947.448 44.6235C906.667 42.1917 865.16 54.7433 826.313 36.8902C795.017 22.5261 772.134 4.77871 738.013 4.7334C702.488 4.7334 673.549 23.9912 638.326 33.6428C588.558 47.2366 537.445 29.5043 487.118 31.2564C439.268 32.9027 392.128 43.6569 345.139 52.0548C302.47 59.6975 259.649 65.3162 217.569 75.7683C185.609 83.698 153.527 89.7397 121.114 95.5397C98.7597 99.5272 28.5706 102.442 14.5388 125.25C7.84768 136.109 14.5389 132.016 24.3868 134.508C40.1404 138.466 60.6368 132.998 76.7529 133.345C79.5925 133.345 106.221 131.835 108.593 138.934C112.384 150.156 73.5357 169.233 67.9623 172.631Z" stroke="url(#paint1_linear_107_206)" stroke-miterlimit="10"/>
</g>
<g style="mix-blend-mode:overlay">
<path d="M133.62 155.122C118.138 167.432 70.3337 187.037 64.3072 208.289C57.9483 230.749 100.829 234.283 115.843 236.987C181.787 248.874 248.427 245.611 309.841 274.671C372.538 304.336 448.346 308.157 516.179 315.694C599.856 324.983 665.831 264.34 741.79 264.808C817.749 265.277 883.844 337.429 967.295 328.337C987.595 326.131 1021.35 325.316 1038.36 311.254C1048.25 303.067 1046 296.044 1052.2 286.03C1065.32 264.793 1097.43 263.766 1119.76 262.422C1185.49 258.48 1251.48 262.86 1317.24 258.495C1330.02 257.664 1414.82 254.523 1406.77 233.513C1400.21 216.415 1319.63 205.857 1305.79 202.096C1270.12 192.354 1327.98 167.356 1336.24 163.731C1353.42 156.179 1378.54 151.421 1355.09 137.767C1331.35 123.947 1289.23 127.663 1262.84 127.391C1226.5 127.028 1191.15 127.134 1156.49 114.733C1081.72 87.984 1015.69 48.9095 933.28 49.1663C894.417 49.2871 857.971 53.6975 821.041 38.3668C789.625 25.3621 766.243 10.3032 733.437 10.1824C700.903 10.0616 672.869 24.5465 640.093 33.9866C597.907 46.0699 556.28 39.3335 513.415 36.2522C427.683 30.1048 337.164 51.6433 255.133 75.085C225.287 83.634 194.807 87.4553 164.251 92.5303C139.571 96.6084 91.9327 98.572 72.4785 117.195C55.1691 133.719 71.6478 132.149 90.6035 132.949C98.3519 133.281 162.031 132.617 133.62 155.122Z" stroke="url(#paint2_linear_107_206)" stroke-miterlimit="10"/>
</g>
<g style="mix-blend-mode:overlay">
<path d="M162.952 146.83C159.63 169.321 79.5775 200.586 138.997 218.198C204.731 237.667 277.08 230.281 340.744 258.496C396.085 282.949 452.635 293.764 513.596 297.056C594.101 301.406 665.045 243.376 737.681 244.283C807.387 245.159 872.38 315.755 949.895 308.505C966.404 306.995 992.005 305.122 1004.45 292.163C1010.93 285.426 1010.39 275.095 1017.56 268.434C1038.12 249.388 1094.02 256.759 1118.09 256.879C1166.43 257.121 1217 261.244 1264.74 252.167C1283.61 248.587 1322.86 242.319 1300.25 220.871C1285.59 206.96 1248.99 203.864 1247.24 191.358C1245.62 179.576 1284.44 168.278 1301.22 161.708C1321.58 153.763 1330.2 148.16 1304.53 139.55C1248.07 120.64 1187.32 135.155 1130.83 110.928C1055.82 78.7408 994.12 52.0215 910.307 53.532C879.102 54.1361 848.742 51.7043 819.334 40.633C787.616 28.7007 761.047 14.2611 728.453 14.1403C696.734 14.0043 666.314 27.2507 634.082 35.9356C597.303 45.8288 560.796 43.1856 523.293 40.7387C439.661 35.2559 359.548 48.0189 280.116 73.8169C229.713 90.2049 171.366 85.4924 123.032 107.212C57.1931 136.877 165.414 130.306 162.952 146.83Z" stroke="url(#paint3_linear_107_206)" stroke-miterlimit="10"/>
</g>
<g style="mix-blend-mode:overlay">
<path d="M187.301 140.048C205.653 156.331 157.35 177.25 183.45 199.725C202.149 215.841 234.336 216.521 257.46 219.829C288.333 224.269 319.87 227.154 349.898 236.051C371.043 242.304 389.168 254.176 409.846 261.169C436.595 270.307 467.423 273.63 495.472 273.479C555.888 273.177 610.762 232.486 667.81 232.577C746.609 232.697 826.54 284.535 910.806 284.988C934.429 285.109 959.562 281.967 980.784 270.986C994.649 263.842 1004.03 257.785 1020.05 255.475C1071.2 248.089 1154.74 276.258 1196.97 236.972C1219.49 216.038 1174.18 191.81 1198.1 179.078C1216.05 169.547 1307.79 158.007 1248.29 140.29C1198.74 125.518 1148.94 128.448 1101.28 104.735C1075.61 92.0021 1051.64 78.7406 1024.06 70.2823C981.69 57.3078 941.332 58.4406 897.62 56.9302C835.346 54.7854 779.128 19.3359 721.188 19.1698C662.176 18.9734 603.376 47.5505 539.681 45.3604C458.723 42.5812 385.74 43.3666 308.935 71.8984C264.499 88.4073 215.199 85.764 171.487 102.484C163.27 105.626 140.206 114.326 145.644 126.107C148.937 133.282 181.924 135.276 187.301 140.048Z" stroke="url(#paint4_linear_107_206)" stroke-miterlimit="10"/>
</g>
<g style="mix-blend-mode:overlay">
<path d="M208.764 135.851C232.93 145.231 216.135 168.507 228.188 183.943C236.993 195.241 260.284 197.25 272.7 198.866C302.213 202.702 331.969 203.05 361.316 208.578C407.369 217.248 450.43 251.323 497.691 250.417C516.285 250.054 529.229 243.287 545.934 236.43C570.267 226.431 592.591 221.326 617.83 221.19C706.597 220.752 799.684 260.385 892.862 262.968C936.211 264.161 975.346 245.931 1018.54 244.843C1047.24 244.118 1123.44 258.648 1140.28 224.573C1152.58 199.727 1129.14 181.481 1168.86 172.328C1191.71 167.072 1268.28 156.68 1206.47 138.026C1161.76 124.523 1118.87 121.412 1076.88 98.9217C1013.15 64.8467 956.798 64.0915 886.276 58.6993C826.811 54.168 770.518 23.4763 714.089 23.3404C655.953 23.2045 596.881 48.3831 534.938 47.4013C464.1 46.2987 399.424 43.7914 332.376 70.0576C293.105 85.4336 251.977 87.5482 212.026 99.4503C204.791 101.61 180.141 108.86 180.776 120.158C181.229 129.961 202.027 133.238 208.764 135.851Z" stroke="url(#paint5_linear_107_206)" stroke-miterlimit="10"/>
</g>
<g style="mix-blend-mode:overlay">
<path d="M235.634 131.831C247.038 135.426 257.868 140.501 265.012 150.757C269.921 157.795 268.592 164.653 275.993 170.392C286.097 178.322 308.376 175.679 319.795 175.785C342.874 175.981 365.878 174.848 388.957 176.479C437.925 179.908 475.323 201.643 521.315 213.953C555.949 223.212 594.842 205.902 627.98 205.645C703.38 205.117 784.943 236.926 864.663 239.932C909.039 241.593 953.657 229.178 998.244 227.26C1021.91 226.232 1080.4 232.637 1095.48 209.029C1099.86 202.172 1095.48 192.006 1099.82 185.361C1108.17 172.416 1135.36 170.09 1148.71 168.081C1157.14 166.813 1192.12 165.287 1194.36 153.883C1196.94 140.682 1163.89 133.855 1155.09 131.333C1118.34 120.76 1086.12 111.441 1052.38 93.0892C996.492 62.6996 940.093 66.4303 878.679 60.2678C819.954 54.3772 762.876 27.673 706.296 27.5824C654.02 27.4918 600.113 47.9579 545.33 49.2267C479.793 50.7371 418.153 44.2121 355.697 68.273C323.284 80.7642 290.644 86.7303 257.339 95.7928C238.368 100.898 196.998 119.627 235.634 131.831Z" stroke="url(#paint6_linear_107_206)" stroke-miterlimit="10"/>
</g>
<g style="mix-blend-mode:overlay">
<path d="M265.268 126.598C282.789 134.256 292.712 145.387 308.118 154.676C334.747 170.732 391.191 153.695 419.542 151.822C473.026 148.302 511.088 158.709 559.059 180.429C596.82 197.542 631.786 199.808 672.884 200.744C728.664 201.998 783.537 218.129 839.347 218.869C883.814 219.428 927.586 206.469 972.43 205.864C999.618 205.502 1047.38 213.885 1068.87 192.663C1074.91 186.622 1074.56 180.731 1082.75 174.916C1094.65 166.473 1113.88 164.706 1127.52 161.549C1171.32 151.399 1121.67 128.894 1103.84 122.776C1076.42 113.366 1053.24 101.102 1027.58 88.0368C977.218 62.2842 919.777 67.9785 865.13 61.1514C808.731 54.1129 753.027 32.0456 698.108 31.9399C649.775 31.8493 599.689 48.1769 549.528 50.6993C491.8 53.5842 434.842 46.5003 379.576 66.7248C353.204 76.3915 327.059 84.442 300.128 92.3113C292.848 94.3654 238.171 114.832 265.268 126.598Z" stroke="url(#paint7_linear_107_206)" stroke-miterlimit="10"/>
</g>
<g style="mix-blend-mode:overlay">
<path d="M294.464 121.757C298.996 127.798 316.063 136.861 325.775 141.694C355.002 156.225 395.934 144.866 426.973 142.54C479.445 138.613 528.247 140.939 577.456 160.665C620.518 177.975 657.629 193.335 703.591 194.906C744.055 196.281 786.362 202.262 827.883 201.733C875.431 201.144 922.662 195.224 970.285 194.786C998.183 194.529 1034.39 200.344 1057.53 182.476C1062.95 178.292 1065.97 170.574 1072.48 165.982C1080.38 160.424 1091.24 158.067 1098.81 152.766C1119.33 138.387 1022.41 91.624 1007.11 84.6308C960.286 63.2131 903.389 68.4089 853.273 61.4761C798.898 53.924 744.659 35.361 691.357 35.2401C646.044 35.1344 599.221 48.3808 552.504 51.5375C501.15 55.0266 448.844 48.9698 399.317 65.5542C381.162 71.7167 282.638 106.094 294.464 121.757Z" stroke="url(#paint8_linear_107_206)" stroke-miterlimit="10"/>
</g>
<g style="mix-blend-mode:overlay">
<path d="M340.064 114.796C336.409 138.525 409.377 137.8 423.137 137.83C473.359 137.951 523.52 139.34 572.941 148.992C621.274 158.477 667.644 175.666 716.219 177.176C803.566 179.88 892.273 192.205 981.81 186.239C1003.67 184.728 1035.4 188.655 1043 166.694C1044.86 161.347 1045.94 142.875 1045.01 137.996C1040.7 115.415 1003.79 90.3574 981.131 82.2465C938.446 66.9611 887.319 69.2871 842.641 62.8981C789.187 55.2553 735.673 39.834 683.08 39.6528C641.574 39.5168 598.814 49.3345 556.311 52.9142C512.932 56.5694 467.664 52.9142 425.403 64.8616C398.578 72.3986 344.112 88.6205 340.064 114.796Z" stroke="url(#paint9_linear_107_206)" stroke-miterlimit="10"/>
</g>
<g style="mix-blend-mode:overlay">
<path d="M381.933 108.163C373.641 126.092 418.062 131.605 426.128 132.737C482.013 140.561 539.032 141.12 595.144 148.4C643.87 154.714 692.218 163.505 741.246 164.819C821.298 166.948 903.616 190.33 984.016 178.518C1037.26 170.694 1006.35 153.249 991.447 123.901C978.82 99.0249 994.921 91.6088 958.852 81.7004C916.968 70.2061 871.912 69.6171 829.092 63.3489C778.1 55.7968 726.882 43.215 676.54 43.0186C638.1 42.8676 598.693 50.329 559.468 53.9691C522.175 57.428 483.947 55.8421 447.44 64.6478C422.805 70.5988 391.328 87.8478 381.933 108.163Z" stroke="url(#paint10_linear_107_206)" stroke-miterlimit="10"/>
</g>
<g style="mix-blend-mode:overlay">
<path d="M413.546 102.243C412.036 116.789 425.917 120.791 442.758 124.326C545.33 145.834 659.487 153.386 762.876 156.045C800.636 157.026 838.14 162.403 876.036 167.267C903.465 170.786 943.461 179.35 970.21 168.143C1005.54 153.311 950.031 130.382 950.771 113.103C951.557 95.2955 982.626 91.3986 940.198 81.3846C896.396 71.1288 850.601 68.7273 806.24 61.8398C761.335 54.8919 716.279 45.6481 671.812 45.4668C635.759 45.3158 598.754 51.2065 562.035 54.7559C529.229 57.9278 495.577 57.3992 463.375 64.7096C446.307 68.682 415.313 85.6591 413.546 102.243Z" stroke="url(#paint11_linear_107_206)" stroke-miterlimit="10"/>
</g>
<g style="mix-blend-mode:overlay">
<path d="M441.413 96.5779C455.007 114.869 437.667 113.585 474.038 118.57C574.994 132.42 678.911 143.476 778.901 146.316C812.659 147.267 846.734 152.176 880.854 156.164C886.201 156.798 933.205 165.891 938.899 155.741C950.469 135.139 900.414 120.382 917.602 104.387C925.155 97.318 940.047 96.1096 950.65 90.8685C926.892 71.3086 871.822 73.3778 842.595 69.345C784.202 61.3096 725.039 48.3956 667.387 48.1992C608.239 47.9575 537.491 51.6279 478.479 65.2367C465.519 68.1065 425.947 75.7795 441.413 96.5779Z" stroke="url(#paint12_linear_107_206)" stroke-miterlimit="10"/>
</g>
<g style="mix-blend-mode:overlay">
<path d="M465.897 92.079C486.665 105.129 477.588 113.225 508.974 116.457C599.599 125.595 692.913 131.561 781.967 134.733C788.447 134.96 893.36 152.36 897.363 143.796C902.498 132.709 850.812 108.407 891.684 98.2718C904.854 94.9942 919.219 93.6499 932.948 90.9915C906.365 75.0566 864.979 74.7999 834.499 70.5103C777.421 62.4447 719.572 50.8748 662.961 50.7087C609.07 50.5123 545.859 53.1556 492.163 65.7222C482.285 67.9577 442.516 77.3676 465.897 92.079Z" stroke="url(#paint13_linear_107_206)" stroke-miterlimit="10"/>
</g>
<g style="mix-blend-mode:overlay">
<path d="M486.952 88.6495C507.523 96.3677 515.075 112.726 541.055 116.003C616.258 125.277 695.329 125.791 769.339 128.177C796.436 129.038 826.735 136.605 854.315 136.046C842.73 110.369 840.238 101.307 873.331 94.9932C885.415 92.6672 902.83 94.7818 913.977 89.9484C884.04 76.551 846.114 74.5875 814.168 70.026C762.527 62.625 710.327 53.4115 658.943 53.2C610.081 53.0187 553.44 54.4989 504.88 66.3406C495.576 68.5156 461.214 79.0583 486.952 88.6495Z" stroke="url(#paint14_linear_107_206)" stroke-miterlimit="10"/>
</g>
<g style="mix-blend-mode:overlay">
<path d="M526.329 83.7402C587.999 98.7688 646.12 121.878 712.518 121.501C739.842 121.365 758.299 120.156 782.088 108.315C803.234 97.7417 824.304 93.2105 847.142 92.3949C851.796 92.3319 856.4 91.4314 860.735 89.7365C841.296 78.2422 809.804 76.3844 787.918 73.0313C742.153 66.023 695.707 59.7396 649.942 59.5886C613.48 59.4678 573.046 59.1355 536.977 68.2131C528.731 70.3579 504.685 78.4688 526.329 83.7402Z" stroke="url(#paint15_linear_107_206)" stroke-miterlimit="10"/>
</g>
<g style="mix-blend-mode:overlay">
<path d="M540.769 82.1994C588.891 91.9869 651.029 108.888 703.728 108.692C744.192 108.541 791.045 92.2286 827.582 90.7031C829.44 90.6275 831.026 90.0989 831.6 88.3921C780.245 63.6213 701.9 62.9869 646.725 62.8208C618.132 62.715 558.229 55.888 534.198 77.1697C535.09 80.1604 537.688 81.565 540.769 82.1994Z" stroke="url(#paint16_linear_107_206)" stroke-miterlimit="10"/>
</g>
</g>
</g>
<defs>
<linearGradient id="paint0_linear_107_206" x1="775.632" y1="-13.5774" x2="775.633" y2="380.013" gradientUnits="userSpaceOnUse">
<stop stop-color="#28D6E2"/>
<stop offset="1" stop-color="#EA6BF7"/>
</linearGradient>
<linearGradient id="paint1_linear_107_206" x1="765.614" y1="-8.90709" x2="765.615" y2="359.386" gradientUnits="userSpaceOnUse">
<stop stop-color="#28D6E2"/>
<stop offset="1" stop-color="#EA6BF7"/>
</linearGradient>
<linearGradient id="paint2_linear_107_206" x1="736.408" y1="-2.08557" x2="736.408" y2="329.129" gradientUnits="userSpaceOnUse">
<stop stop-color="#28D6E2"/>
<stop offset="1" stop-color="#EA6BF7"/>
</linearGradient>
<linearGradient id="paint3_linear_107_206" x1="711.924" y1="2.79735" x2="711.925" y2="309.028" gradientUnits="userSpaceOnUse">
<stop stop-color="#28D6E2"/>
<stop offset="1" stop-color="#EA6BF7"/>
</linearGradient>
<linearGradient id="paint4_linear_107_206" x1="707.236" y1="8.94481" x2="707.236" y2="284.991" gradientUnits="userSpaceOnUse">
<stop stop-color="#28D6E2"/>
<stop offset="1" stop-color="#EA6BF7"/>
</linearGradient>
<linearGradient id="paint5_linear_107_206" x1="706.133" y1="14.1212" x2="706.133" y2="263.024" gradientUnits="userSpaceOnUse">
<stop stop-color="#28D6E2"/>
<stop offset="1" stop-color="#EA6BF7"/>
</linearGradient>
<linearGradient id="paint6_linear_107_206" x1="707.768" y1="19.4089" x2="707.768" y2="240.084" gradientUnits="userSpaceOnUse">
<stop stop-color="#28D6E2"/>
<stop offset="1" stop-color="#EA6BF7"/>
</linearGradient>
<linearGradient id="paint7_linear_107_206" x1="702.055" y1="24.7492" x2="702.055" y2="218.887" gradientUnits="userSpaceOnUse">
<stop stop-color="#28D6E2"/>
<stop offset="1" stop-color="#EA6BF7"/>
</linearGradient>
<linearGradient id="paint8_linear_107_206" x1="698.119" y1="28.8346" x2="698.119" y2="201.766" gradientUnits="userSpaceOnUse">
<stop stop-color="#28D6E2"/>
<stop offset="1" stop-color="#EA6BF7"/>
</linearGradient>
<linearGradient id="paint9_linear_107_206" x1="693.124" y1="33.9514" x2="693.124" y2="187.85" gradientUnits="userSpaceOnUse">
<stop stop-color="#28D6E2"/>
<stop offset="1" stop-color="#EA6BF7"/>
</linearGradient>
<linearGradient id="paint10_linear_107_206" x1="697.883" y1="37.6772" x2="697.883" y2="181.833" gradientUnits="userSpaceOnUse">
<stop stop-color="#28D6E2"/>
<stop offset="1" stop-color="#EA6BF7"/>
</linearGradient>
<linearGradient id="paint11_linear_107_206" x1="698.099" y1="40.5311" x2="698.099" y2="173.72" gradientUnits="userSpaceOnUse">
<stop stop-color="#28D6E2"/>
<stop offset="1" stop-color="#EA6BF7"/>
</linearGradient>
<linearGradient id="paint12_linear_107_206" x1="694.618" y1="43.8679" x2="694.618" y2="160.515" gradientUnits="userSpaceOnUse">
<stop stop-color="#28D6E2"/>
<stop offset="1" stop-color="#EA6BF7"/>
</linearGradient>
<linearGradient id="paint13_linear_107_206" x1="696.121" y1="47.0271" x2="696.122" y2="146.164" gradientUnits="userSpaceOnUse">
<stop stop-color="#28D6E2"/>
<stop offset="1" stop-color="#EA6BF7"/>
</linearGradient>
<linearGradient id="paint14_linear_107_206" x1="696.071" y1="49.9983" x2="696.071" y2="136.076" gradientUnits="userSpaceOnUse">
<stop stop-color="#28D6E2"/>
<stop offset="1" stop-color="#EA6BF7"/>
</linearGradient>
<linearGradient id="paint15_linear_107_206" x1="689.365" y1="57.1689" x2="689.365" y2="121.505" gradientUnits="userSpaceOnUse">
<stop stop-color="#28D6E2"/>
<stop offset="1" stop-color="#EA6BF7"/>
</linearGradient>
<linearGradient id="paint16_linear_107_206" x1="683.103" y1="59.8883" x2="683.103" y2="108.694" gradientUnits="userSpaceOnUse">
<stop stop-color="#28D6E2"/>
<stop offset="1" stop-color="#EA6BF7"/>
</linearGradient>
</defs>
</svg>
