<svg width="347" height="425" fill="none" xmlns="http://www.w3.org/2000/svg"><path fill-rule="evenodd" clip-rule="evenodd" d="M295.799 133.019c29.405-7.292 51.2-33.86 51.2-65.519 0-37.28-30.22-67.5-67.5-67.5-37.279 0-67.5 30.22-67.5 67.5 0 6.333.873 12.462 2.503 18.275-13.529-3.427-27.698-5.247-42.292-5.247C77.36 80.528.469 157.419.469 252.269c0 94.85 76.89 171.741 171.741 171.741 94.85 0 171.741-76.891 171.741-171.741 0-46.321-18.339-88.359-48.152-119.25zm-5.854 1.178c-20.129-20.072-45.36-35.03-73.578-42.76a67.01 67.01 0 01-1.865-5.662c31.458 7.966 59.457 24.614 81.297 47.244-1.92.476-3.873.87-5.854 1.178zm0 0c30.273 30.187 49.006 71.942 49.006 118.072 0 92.089-74.653 166.741-166.741 166.741-92.089 0-166.741-74.652-166.741-166.741 0-92.089 74.652-166.741 166.741-166.741 15.287 0 30.093 2.057 44.157 5.91C226.027 116.9 250.65 135 279.499 135c3.553 0 7.041-.274 10.446-.803z" fill="#131612"/></svg>