<svg width="305" height="366" fill="none" xmlns="http://www.w3.org/2000/svg"><path fill-rule="evenodd" clip-rule="evenodd" d="M110.733 66.79A55.18 55.18 0 00112 55c0-30.376-24.624-55-55-55S2 24.624 2 55c0 25.304 17.088 46.617 40.354 53.029C16.12 135.419 0 172.577 0 213.5 0 297.723 68.277 366 152.5 366S305 297.723 305 213.5 236.723 61 152.5 61c-14.482 0-28.493 2.019-41.767 5.79zm-1.565 5.677a54.409 54.409 0 001.565-5.677c-26.412 7.505-49.904 21.95-68.379 41.239 1.883.518 3.806.94 5.763 1.257C21.475 135.972 5 172.812 5 213.5 5 294.962 71.038 361 152.5 361S300 294.962 300 213.5 233.962 66 152.5 66c-15.079 0-29.63 2.263-43.332 6.468zm0 0C101.868 94.28 81.27 110 57 110c-3.024 0-5.991-.244-8.883-.714 16.825-16.852 37.705-29.654 61.051-36.819z" fill="#131612"/></svg>